<svg width="96" height="40" viewBox="0 0 96 40" fill="none" xmlns="http://www.w3.org/2000/svg">
<path d="M47.8954 0.1748C48.5306 -0.0453058 49.2245 0.138441 49.8067 0.425554C50.2134 0.687452 50.6202 0.952136 51.0757 1.12348C51.1106 1.18896 51.183 1.31851 51.2178 1.3826C51.1997 1.42578 51.1649 1.51494 51.1468 1.55812C51.4714 2.29645 51.6789 3.1713 51.3641 3.94711C51.1496 4.20901 50.7762 4.24954 50.4739 4.35096C50.4725 4.7257 50.5324 5.0964 50.5645 5.46835C51.2109 5.57283 51.7581 5.12286 52.3975 5.16744C52.4839 4.80942 52.5521 4.44555 52.6666 4.09463C52.799 4.32728 52.8044 4.59489 52.8059 4.85679C52.9731 4.90415 53.1431 4.94734 53.3141 4.98899C53.3158 5.05321 53.3171 5.18137 53.3171 5.24545C56.1199 5.26217 58.9213 5.23278 61.7243 5.26078C61.7173 5.35662 61.7037 5.54901 61.6981 5.64527C61.7705 5.64527 61.9182 5.64666 61.9917 5.64666C61.989 5.13693 61.9917 4.62554 61.9903 4.11581C62.0614 4.11288 62.2007 4.1087 62.2704 4.10731C62.272 4.50852 62.2733 4.90972 62.2775 5.31107C62.3386 5.38629 62.4612 5.53661 62.5228 5.61183C62.5688 5.55736 62.6606 5.45038 62.7064 5.39591C62.9195 5.59526 62.7983 5.8683 62.7889 6.1132C63.5732 6.1047 64.3655 6.15764 65.1473 6.09356C65.2058 6.05037 65.3229 5.9654 65.3814 5.92235C65.4888 5.964 65.5973 6.00593 65.7046 6.04912C66.057 6.04048 66.4109 6.03937 66.7647 6.03797C66.7575 6.22047 66.7519 6.40282 66.7449 6.58545C66.2894 6.57835 65.8324 6.56874 65.3839 6.64661C65.0941 6.39739 64.7055 6.47651 64.3558 6.46704C63.8181 6.49212 63.2633 6.39739 62.7426 6.5686C62.4331 6.65497 62.0934 6.63421 61.8204 6.45854C61.7546 6.62153 61.8552 6.98652 61.5805 6.97245C60.4995 6.98652 59.4198 6.96284 58.3402 6.97955C58.1925 7.05757 58.0435 7.1314 57.8961 7.2037C57.7401 7.66899 57.2929 7.9795 56.9123 8.26369C56.8649 8.97834 57.1477 9.64562 57.2578 10.3392C57.0447 10.4004 56.8301 10.4634 56.6198 10.533C56.3175 11.2463 56.5027 12.2199 55.8034 12.7175C55.2671 13.0294 54.9121 13.7078 54.1888 13.6007C54.5566 13.9072 54.0885 13.8111 54.1373 13.5659C52.8292 13.4502 51.7273 12.6827 50.5905 12.0977C50.5376 12.418 50.4542 12.733 50.3676 13.0464C50.7995 13.1286 51.1561 13.4462 51.2327 13.8892C51.3707 14.8547 51.0948 15.8133 51.099 16.7814C51.1297 17.3497 50.8859 17.8706 50.5822 18.3345C50.3161 18.6354 49.8968 18.326 49.5778 18.2816C49.5052 18.4223 49.4343 18.5631 49.3646 18.7051C49.4552 19.0838 49.4942 19.4781 49.621 19.8486C50.3328 20.6357 50.9806 21.4884 51.4779 22.4288C51.9899 23.4937 52.4461 24.5845 52.8447 25.6968C52.8835 25.9128 53.0869 25.9904 53.2655 26.0687C53.2892 26.2916 53.3129 26.5142 53.3352 26.74C53.4048 26.8417 53.4759 26.9433 53.5483 27.0464C53.5915 28.4201 53.4229 29.788 53.2095 31.1434C53.0775 31.7551 53.4352 32.3526 53.2903 32.9683C53.307 33.2836 53.09 33.5217 52.988 33.8003C52.9685 34.4509 52.9365 35.1096 53.0078 35.7591C53.0577 36.2355 53.4605 36.5419 53.7336 36.8972C54.0317 37.2136 54.2811 37.6384 54.7324 37.751C55.1573 37.8778 55.5627 38.0617 55.9372 38.3028C56.0514 38.5855 56.0305 38.8853 55.9762 39.179C55.1598 39.3294 54.3268 39.2543 53.5021 39.267C52.8665 39.3003 52.2998 38.959 51.6824 38.8878C51.0848 38.8728 50.3562 39.1693 49.8968 38.6344C50.0915 37.8922 50.1071 37.0951 50.4635 36.4026C50.5777 35.6184 50.3607 34.8228 50.4064 34.0315C50.3384 33.9744 50.2016 33.8602 50.1333 33.8028C50.1824 33.2861 49.9273 32.8263 49.8422 32.3319C49.7867 31.6098 49.721 30.8885 49.6374 30.1697C49.5719 29.82 49.753 29.4997 49.9996 29.2671C50.0219 28.8631 50.0765 28.4631 50.1152 28.0621C50.0553 27.8014 49.8477 27.6079 49.714 27.385C49.2668 27.5734 48.6636 27.4841 48.3976 27.0464C47.7666 26.1076 47.1368 25.1687 46.4988 24.2352C46.248 24.2186 45.9834 24.2449 45.7493 24.1446C45.4793 23.8675 45.3384 23.4984 45.1659 23.1612C44.9192 23.4385 44.9372 23.8632 44.6449 24.1155C44.0264 24.7091 43.862 25.5811 43.5388 26.3416C43.2911 26.8346 43.4304 27.4295 43.1543 27.9102C43.0066 28.1692 42.6361 28.2207 42.5386 28.5164C42.4104 28.8351 42.2599 29.1654 41.9604 29.3593C41.6358 29.5722 41.5496 29.9764 41.4049 30.3105C41.2725 30.6185 41.469 30.9416 41.423 31.2579C41.2168 32.2625 40.5774 33.1024 40.3085 34.086C40.1859 34.529 40.0103 35.0277 39.4948 35.1223C38.9083 36.1699 38.5853 37.4517 38.9168 38.6312C39.1202 39.0018 39.1091 39.4183 39.0464 39.8265C38.1146 39.899 37.1588 40.0243 36.2437 39.7639C36.0291 39.3389 36.0598 38.8388 36.1044 38.3795C36.387 37.1714 36.7619 35.9846 36.9916 34.7643C36.7046 34.5094 36.7716 34.1194 36.7771 33.778C36.7675 33.1414 37.2006 32.6315 37.5015 32.1091C37.6145 31.5728 37.5615 30.9964 37.8386 30.5043C38.1647 29.8885 38.4404 29.2228 38.9435 28.7253C39.0394 28.2865 39.3629 27.9551 39.4936 27.5326C39.6329 27.1592 39.3891 26.7803 39.4381 26.3987C39.5578 25.2408 39.7683 24.0945 39.9508 22.9452C39.6054 22.6568 39.7167 22.1986 39.6067 21.8098C39.661 21.6566 39.7293 21.5104 39.8115 21.3682C39.7251 21.2888 39.6403 21.208 39.5538 21.1287C39.6373 20.7202 39.6137 19.9888 40.2405 20.1215C40.2796 18.7689 39.8101 17.4594 39.9675 16.1052C40.0511 16.2025 40.1331 16.3016 40.2169 16.4005L40.1723 15.9422C40.4342 15.8029 40.7128 15.6956 41.0053 15.6413C40.5289 15.5787 40.065 15.4575 39.5981 15.3487C39.4852 15.0519 39.5482 14.7358 39.5897 14.4321C39.7708 13.4068 39.8377 12.3676 39.8753 11.3283C40.4033 11.1447 40.9856 11.3006 41.501 11.0553C41.3411 9.75554 41.3007 8.39882 41.7629 7.15188C42.1348 6.09022 42.8455 5.0663 43.9542 4.6931C44.478 4.56786 45.1369 4.42702 45.5072 4.9355C45.6089 4.84216 45.7106 4.74604 45.8123 4.6527C44.9668 2.97349 45.9768 0.520283 47.8954 0.1748ZM54.6614 7.4578C54.4385 7.59432 54.2198 7.75048 54.4541 7.99845C54.3399 8.06657 54.2253 8.13218 54.1097 8.19473C53.9286 8.33404 53.5218 8.41331 53.5692 8.69499C53.7727 9.02169 53.9479 9.36511 54.0931 9.72154C54.5374 9.3567 54.8912 8.86606 55.1308 8.34672C55.181 8.29517 55.2828 8.19209 55.3328 8.1418C55.3105 7.90358 55.2576 7.6708 55.1643 7.45083C54.9971 7.45376 54.8285 7.4564 54.6614 7.4578Z" fill="white"/>
<path d="M58.7496 19.9286C59.3875 19.1235 60.4184 18.6776 61.4408 18.6943C64.5515 18.6973 67.6637 18.6929 70.7744 18.6957C72.2917 18.7278 73.771 19.9134 73.9466 21.4543C69.6406 21.4399 65.3357 21.4668 61.0314 21.44C61.0272 24.321 61.0216 27.2032 61.0314 30.0857C64.3357 30.0802 67.6398 30.0745 70.9445 30.0884C70.9318 29.0562 70.9484 28.0239 70.9347 26.9918C69.3008 27.0011 67.6666 27.0043 66.0325 26.9918C64.7218 26.9415 63.7466 25.809 63.4514 24.6026C66.9647 24.5901 70.4767 24.5887 73.9897 24.604C73.9747 26.3691 73.9984 28.1356 73.9772 29.9007C73.9354 31.3871 72.6567 32.6953 71.1911 32.8444C67.8017 32.8444 64.411 32.843 61.0216 32.843C60.0088 32.8357 59.1131 32.1963 58.5419 31.3982C58.1519 30.8339 58.064 30.1333 58.0084 29.4687C58.0028 27.1004 58.0112 24.7308 58.0055 22.3626C58.0183 21.5042 58.1701 20.5974 58.7496 19.9286ZM79.3015 18.7917C79.6515 18.697 80.0162 18.6902 80.3773 18.6943C83.2526 18.703 86.1293 18.6847 89.0046 18.7013C90.6345 18.771 92.0664 20.1782 92.1292 21.8134C92.1322 24.4562 92.1322 27.1002 92.1292 29.7445C92.1 31.3645 90.6651 32.8746 89.0202 32.8469C85.8579 32.8329 82.6956 32.8566 79.5331 32.8357C77.9561 32.6602 76.7455 31.1544 76.7344 29.5954C76.7121 27.1853 76.7372 24.7725 76.7218 22.3626C76.7093 21.6521 76.8375 20.9221 77.2136 20.3092C77.6551 19.5387 78.4463 18.9994 79.3015 18.7917ZM79.7976 21.3636C79.8032 24.3364 79.7851 27.3105 79.806 30.2833C82.8944 30.2918 85.9845 30.2819 89.0728 30.2872C89.0823 27.3119 89.0742 24.3362 89.0767 21.359C85.9843 21.3579 82.8902 21.3525 79.7976 21.3636ZM0.00491433 22.0713C0.0705282 20.4595 1.42028 18.9451 3.06271 18.8824C6.13152 18.8795 9.20186 18.8795 12.2709 18.8838C13.9287 18.8672 15.3095 20.3648 15.4346 21.971C15.2131 21.9892 14.9916 22.0029 14.7701 22.0058C11.1161 22.0018 7.46205 22.0072 3.80926 22.0029C3.80773 24.5996 3.79408 27.1961 3.81623 29.793C7.69469 29.7873 11.5716 29.7845 15.4499 29.7945C15.3399 31.4589 13.9383 32.936 12.2488 33.0014C9.46821 33.0405 6.68763 33.0027 3.90692 33.0196C3.21456 33.0433 2.5013 32.9568 1.87735 32.6406C0.801893 32.0904 0.0411343 30.9689 0.00379987 29.7513C0.000735106 27.1908 -0.00344412 24.6316 0.00491433 22.0713ZM18.3879 20.8092C18.8992 19.6932 20.0694 18.8644 21.3149 18.8796C24.3797 18.8825 27.4458 18.8796 30.5121 18.881C32.1126 18.8908 33.5224 20.2921 33.6354 21.8735C29.5926 21.9306 25.5471 21.8817 21.5031 21.8972C21.4849 22.7107 21.4934 23.5243 21.492 24.3391C24.4982 24.3487 27.5059 24.3419 30.5121 24.3419C31.4036 24.3767 32.3399 24.6624 32.9471 25.3518C33.6296 25.9621 33.9181 26.8913 33.9404 27.7857C33.9555 28.6786 33.9555 29.5759 33.8107 30.4602C33.4791 31.8925 32.1097 32.9596 30.6485 33.0055C27.726 33.0333 24.8017 33.0083 21.8791 33.0195C21.1897 33.0335 20.4764 32.9345 19.8647 32.5988C18.8952 32.0929 18.1986 31.0757 18.1026 29.9838C22.2178 30.0036 26.3343 29.9964 30.4495 29.9867C30.4592 29.12 30.4536 28.2536 30.4536 27.3873C27.4084 27.3664 24.3617 27.3843 21.3149 27.3786C19.564 27.3927 18.0149 25.7836 18.062 24.0382C18.1232 22.9627 17.8754 21.808 18.3879 20.8092ZM93.0806 19.1695C93.4679 19.1598 93.8593 19.1444 94.2452 19.2029C94.0655 19.2489 93.8827 19.2726 93.6991 19.2754C93.6754 19.6948 93.6726 20.1142 93.6782 20.5332C93.6378 20.5332 93.5585 20.5332 93.5194 20.5346C93.5222 20.1041 93.5264 19.6737 93.5208 19.2446C93.4121 19.2532 93.1962 19.2726 93.0889 19.2808L93.0806 19.1695ZM94.4624 19.1539C94.5447 19.1582 94.7117 19.1666 94.7956 19.1708C94.914 19.5482 95.0533 19.9187 95.2261 20.2767C95.3877 19.9159 95.4935 19.5313 95.6719 19.1805C95.7499 19.1694 95.9059 19.1457 95.9836 19.1345C95.9404 19.6472 96.1173 20.2142 95.8404 20.6809C95.7903 20.2267 95.8112 19.7697 95.7818 19.3141C95.5699 19.7391 95.4699 20.2168 95.1926 20.6098C94.9807 20.206 94.8903 19.746 94.6368 19.3647C94.6202 19.7715 94.6284 20.1796 94.6229 20.5875L94.4738 20.5707C94.4737 20.0987 94.4667 19.6263 94.4624 19.1539Z" fill="white"/>
</svg>
