<svg width="96" height="40" viewBox="0 0 96 40" fill="none" xmlns="http://www.w3.org/2000/svg">
<path d="M47.8954 0.0972243C48.5306 -0.122882 49.2245 0.0608651 49.8067 0.347978C50.2134 0.609876 50.6202 0.87456 51.0757 1.04591C51.1106 1.11138 51.183 1.24094 51.2178 1.30502C51.1997 1.34821 51.1649 1.43736 51.1468 1.48055C51.4714 2.21888 51.6789 3.09373 51.3641 3.86953C51.1496 4.13143 50.7762 4.17197 50.4739 4.27339C50.4725 4.64812 50.5324 5.01882 50.5645 5.39077C51.2109 5.49525 51.7581 5.04529 52.3975 5.08987C52.4839 4.73185 52.5521 4.36797 52.6666 4.01706C52.799 4.2497 52.8044 4.51731 52.8059 4.77921C52.9731 4.82658 53.1431 4.86976 53.3141 4.91141C53.3158 4.97563 53.3171 5.1038 53.3171 5.16788C56.1199 5.1846 58.9213 5.1552 61.7243 5.1832C61.7173 5.27905 61.7037 5.47143 61.6981 5.56769C61.7705 5.56769 61.9182 5.56908 61.9917 5.56908C61.989 5.05936 61.9917 4.54796 61.9903 4.03823C62.0614 4.03531 62.2007 4.03113 62.2704 4.02974C62.272 4.43094 62.2733 4.83215 62.2775 5.23349C62.3386 5.30872 62.4612 5.45903 62.5228 5.53426C62.5688 5.47979 62.6606 5.3728 62.7064 5.31833C62.9195 5.51768 62.7983 5.79072 62.7889 6.03562C63.5732 6.02713 64.3655 6.08006 65.1473 6.01598C65.2058 5.9728 65.3229 5.88782 65.3814 5.84477C65.4888 5.88643 65.5973 5.92836 65.7046 5.97154C66.057 5.96291 66.4109 5.96179 66.7647 5.9604C66.7575 6.14289 66.7519 6.32525 66.7449 6.50788C66.2894 6.50077 65.8324 6.49116 65.3839 6.56903C65.0941 6.31981 64.7055 6.39894 64.3558 6.38947C63.8181 6.41454 63.2633 6.31981 62.7426 6.49102C62.4331 6.57739 62.0934 6.55664 61.8204 6.38097C61.7546 6.54396 61.8552 6.90894 61.5805 6.89487C60.4995 6.90894 59.4198 6.88526 58.3402 6.90198C58.1925 6.97999 58.0435 7.05382 57.8961 7.12612C57.7401 7.59141 57.2929 7.90193 56.9123 8.18612C56.8649 8.90076 57.1477 9.56805 57.2578 10.2617C57.0447 10.3228 56.8301 10.3858 56.6198 10.4554C56.3175 11.1687 56.5027 12.1423 55.8034 12.6399C55.2671 12.9518 54.9121 13.6303 54.1888 13.5231C54.5566 13.8296 54.0885 13.7335 54.1373 13.4883C52.8292 13.3727 51.7273 12.6051 50.5905 12.0201C50.5376 12.3404 50.4542 12.6554 50.3676 12.9688C50.7995 13.051 51.1561 13.3686 51.2327 13.8116C51.3707 14.7772 51.0948 15.7357 51.099 16.7038C51.1297 17.2722 50.8859 17.793 50.5822 18.2569C50.3161 18.5578 49.8968 18.2484 49.5778 18.204C49.5052 18.3447 49.4343 18.4855 49.3646 18.6275C49.4552 19.0063 49.4942 19.4005 49.621 19.7711C50.3328 20.5582 50.9806 21.4109 51.4779 22.3512C51.9899 23.4161 52.4461 24.5069 52.8447 25.6192C52.8835 25.8353 53.0869 25.9129 53.2655 25.9911C53.2892 26.214 53.3129 26.4367 53.3352 26.6625C53.4048 26.7642 53.4759 26.8657 53.5483 26.9688C53.5915 28.3425 53.4229 29.7104 53.2095 31.0658C53.0775 31.6775 53.4352 32.275 53.2903 32.8908C53.307 33.206 53.09 33.4441 52.988 33.7227C52.9685 34.3733 52.9365 35.0321 53.0078 35.6815C53.0577 36.1579 53.4605 36.4643 53.7336 36.8197C54.0317 37.136 54.2811 37.5608 54.7324 37.6735C55.1573 37.8002 55.5627 37.9841 55.9372 38.2253C56.0514 38.5079 56.0305 38.8077 55.9762 39.1014C55.1598 39.2518 54.3268 39.1767 53.5021 39.1894C52.8665 39.2227 52.2998 38.8814 51.6824 38.8102C51.0848 38.7952 50.3562 39.0918 49.8968 38.5568C50.0915 37.8146 50.1071 37.0175 50.4635 36.325C50.5777 35.5408 50.3607 34.7452 50.4064 33.954C50.3384 33.8969 50.2016 33.7826 50.1333 33.7252C50.1824 33.2085 49.9273 32.7487 49.8422 32.2543C49.7867 31.5322 49.721 30.8109 49.6374 30.0921C49.5719 29.7424 49.753 29.4222 49.9996 29.1895C50.0219 28.7855 50.0765 28.3856 50.1152 27.9845C50.0553 27.7239 49.8477 27.5304 49.714 27.3075C49.2668 27.4958 48.6636 27.4065 48.3976 26.9688C47.7666 26.03 47.1368 25.0911 46.4988 24.1576C46.248 24.141 45.9834 24.1673 45.7493 24.067C45.4793 23.79 45.3384 23.4208 45.1659 23.0837C44.9192 23.3609 44.9372 23.7856 44.6449 24.0379C44.0264 24.6315 43.862 25.5036 43.5388 26.2641C43.2911 26.7571 43.4304 27.3519 43.1543 27.8327C43.0066 28.0916 42.6361 28.1432 42.5386 28.4388C42.4104 28.7575 42.2599 29.0878 41.9604 29.2817C41.6358 29.4946 41.5496 29.8989 41.4049 30.2329C41.2725 30.5409 41.469 30.864 41.423 31.1804C41.2168 32.1849 40.5774 33.0248 40.3085 34.0084C40.1859 34.4514 40.0103 34.9502 39.4948 35.0447C38.9083 36.0923 38.5853 37.3741 38.9168 38.5536C39.1202 38.9242 39.1091 39.3407 39.0464 39.7489C38.1146 39.8215 37.1588 39.9467 36.2437 39.6863C36.0291 39.2613 36.0598 38.7612 36.1044 38.3019C36.387 37.0938 36.7619 35.9071 36.9916 34.6867C36.7046 34.4318 36.7716 34.0419 36.7771 33.7004C36.7675 33.0638 37.2006 32.5539 37.5015 32.0315C37.6145 31.4952 37.5615 30.9189 37.8386 30.4267C38.1647 29.811 38.4404 29.1452 38.9435 28.6477C39.0394 28.2089 39.3629 27.8775 39.4936 27.455C39.6329 27.0816 39.3891 26.7027 39.4381 26.3212C39.5578 25.1632 39.7683 24.0169 39.9508 22.8676C39.6054 22.5792 39.7167 22.121 39.6067 21.7322C39.661 21.579 39.7293 21.4329 39.8115 21.2906C39.7251 21.2112 39.6403 21.1304 39.5538 21.0512C39.6373 20.6426 39.6137 19.9112 40.2405 20.044C40.2796 18.6913 39.8101 17.3818 39.9675 16.0276C40.0511 16.125 40.1331 16.224 40.2169 16.3229L40.1723 15.8646C40.4342 15.7253 40.7128 15.618 41.0053 15.5637C40.5289 15.5012 40.065 15.38 39.5981 15.2712C39.4852 14.9743 39.5482 14.6582 39.5897 14.3545C39.7708 13.3292 39.8377 12.29 39.8753 11.2507C40.4033 11.0671 40.9856 11.223 41.501 10.9777C41.3411 9.67796 41.3007 8.32124 41.7629 7.0743C42.1348 6.01264 42.8455 4.98873 43.9542 4.61552C44.478 4.49029 45.1369 4.34945 45.5072 4.85792C45.6089 4.76458 45.7106 4.66846 45.8123 4.57513C44.9668 2.89591 45.9768 0.442707 47.8954 0.0972243ZM54.6614 7.38022C54.4385 7.51674 54.2198 7.67291 54.4541 7.92087C54.3399 7.989 54.2253 8.05461 54.1097 8.11716C53.9286 8.25647 53.5218 8.33573 53.5692 8.61741C53.7727 8.94411 53.9479 9.28753 54.0931 9.64397C54.5374 9.27912 54.8912 8.78848 55.1308 8.26914C55.181 8.2176 55.2828 8.11451 55.3328 8.06422C55.3105 7.82601 55.2576 7.59322 55.1643 7.37326C54.9971 7.37618 54.8285 7.37883 54.6614 7.38022Z" fill="white"/>
<path d="M58.7496 19.851C59.3875 19.046 60.4184 18.6 61.4408 18.6167C64.5515 18.6197 67.6637 18.6154 70.7744 18.6181C72.2917 18.6502 73.771 19.8358 73.9466 21.3767C69.6406 21.3624 65.3357 21.3892 61.0314 21.3624C61.0272 24.2434 61.0216 27.1256 61.0314 30.0081C64.3357 30.0026 67.6398 29.9969 70.9445 30.0108C70.9318 28.9786 70.9484 27.9463 70.9347 26.9142C69.3008 26.9235 67.6666 26.9267 66.0325 26.9142C64.7218 26.8639 63.7466 25.7315 63.4514 24.5251C66.9647 24.5125 70.4767 24.5111 73.9897 24.5264C73.9747 26.2915 73.9984 28.058 73.9772 29.8231C73.9354 31.3095 72.6567 32.6177 71.1911 32.7668C67.8017 32.7668 64.411 32.7654 61.0216 32.7654C60.0088 32.7581 59.1131 32.1187 58.5419 31.3206C58.1519 30.7563 58.064 30.0557 58.0084 29.3911C58.0028 27.0228 58.0112 24.6532 58.0055 22.285C58.0183 21.4266 58.1701 20.5198 58.7496 19.851ZM79.3015 18.7141C79.6515 18.6194 80.0162 18.6126 80.3773 18.6167C83.2526 18.6254 86.1293 18.6071 89.0046 18.6237C90.6345 18.6934 92.0664 20.1007 92.1292 21.7358C92.1322 24.3786 92.1322 27.0226 92.1292 29.6669C92.1 31.2869 90.6651 32.797 89.0202 32.7693C85.8579 32.7553 82.6956 32.779 79.5331 32.7581C77.9561 32.5826 76.7455 31.0768 76.7344 29.5178C76.7121 27.1077 76.7372 24.6949 76.7218 22.285C76.7093 21.5745 76.8375 20.8446 77.2136 20.2316C77.6551 19.4611 78.4463 18.9218 79.3015 18.7141ZM79.7976 21.286C79.8032 24.2588 79.7851 27.2329 79.806 30.2057C82.8944 30.2142 85.9845 30.2043 89.0728 30.2096C89.0823 27.2343 89.0742 24.2586 89.0767 21.2814C85.9843 21.2803 82.8902 21.2749 79.7976 21.286ZM0.00491433 21.9937C0.0705282 20.3819 1.42028 18.8675 3.06271 18.8048C6.13152 18.8019 9.20186 18.8019 12.2709 18.8062C13.9287 18.7896 15.3095 20.2872 15.4346 21.8934C15.2131 21.9116 14.9916 21.9253 14.7701 21.9282C11.1161 21.9242 7.46205 21.9296 3.80926 21.9253C3.80773 24.522 3.79408 27.1185 3.81623 29.7154C7.69469 29.7097 11.5716 29.7069 15.4499 29.7169C15.3399 31.3814 13.9383 32.8584 12.2488 32.9238C9.46821 32.9629 6.68763 32.9252 3.90692 32.942C3.21456 32.9657 2.5013 32.8792 1.87735 32.563C0.801893 32.0128 0.0411343 30.8913 0.00379987 29.6737C0.000735106 27.1132 -0.00344412 24.554 0.00491433 21.9937ZM18.3879 20.7316C18.8992 19.6156 20.0694 18.7868 21.3149 18.802C24.3797 18.805 27.4458 18.802 30.5121 18.8034C32.1126 18.8132 33.5224 20.2145 33.6354 21.7959C29.5926 21.853 25.5471 21.8041 21.5031 21.8196C21.4849 22.6331 21.4934 23.4467 21.492 24.2615C24.4982 24.2711 27.5059 24.2643 30.5121 24.2643C31.4036 24.2991 32.3399 24.5848 32.9471 25.2743C33.6296 25.8846 33.9181 26.8137 33.9404 27.7081C33.9555 28.6011 33.9555 29.4983 33.8107 30.3827C33.4791 31.8149 32.1097 32.882 30.6485 32.9279C27.726 32.9557 24.8017 32.9307 21.8791 32.9419C21.1897 32.9559 20.4764 32.8569 19.8647 32.5212C18.8952 32.0153 18.1986 30.9981 18.1026 29.9062C22.2178 29.926 26.3343 29.9188 30.4495 29.9092C30.4592 29.0424 30.4536 28.176 30.4536 27.3097C27.4084 27.2888 24.3617 27.3067 21.3149 27.301C19.564 27.3151 18.0149 25.706 18.062 23.9606C18.1232 22.8851 17.8754 21.7304 18.3879 20.7316ZM93.0806 19.0919C93.4679 19.0822 93.8593 19.0668 94.2452 19.1254C94.0655 19.1713 93.8827 19.195 93.6991 19.1978C93.6754 19.6173 93.6726 20.0366 93.6782 20.4556C93.6378 20.4556 93.5585 20.4556 93.5194 20.457C93.5222 20.0265 93.5264 19.5961 93.5208 19.167C93.4121 19.1756 93.1962 19.195 93.0889 19.2032L93.0806 19.0919ZM94.4624 19.0763C94.5447 19.0806 94.7117 19.089 94.7956 19.0932C94.914 19.4706 95.0533 19.8411 95.2261 20.1991C95.3877 19.8383 95.4935 19.4537 95.6719 19.1029C95.7499 19.0918 95.9059 19.0681 95.9836 19.057C95.9404 19.5696 96.1173 20.1366 95.8404 20.6033C95.7903 20.1491 95.8112 19.6921 95.7818 19.2365C95.5699 19.6616 95.4699 20.1392 95.1926 20.5322C94.9807 20.1284 94.8903 19.6684 94.6368 19.2871C94.6202 19.6939 94.6284 20.102 94.6229 20.5099L94.4738 20.4931C94.4737 20.0211 94.4667 19.5487 94.4624 19.0763Z" fill="white"/>
</svg>
