<svg width="327" height="68" viewBox="0 0 327 68" fill="none" xmlns="http://www.w3.org/2000/svg">
<path d="M70.9746 20.2849H77.2856V47.7151H70.9746V20.2849Z" fill="white"/>
<path d="M86.4735 47.302C84.4665 46.7189 82.8465 45.9414 81.6133 45.0182L83.7653 40.2319C84.9259 41.0822 86.3284 41.7868 87.9485 42.297C89.5685 42.8315 91.1644 43.0745 92.7845 43.0745C94.5738 43.0745 95.9037 42.8072 96.75 42.2727C97.5963 41.7382 98.0315 41.0336 98.0315 40.1347C98.0315 39.4787 97.7897 38.9442 97.2819 38.5068C96.7742 38.0695 96.1213 37.7294 95.3234 37.4621C94.5254 37.1949 93.4615 36.9033 92.1074 36.6118C90.0279 36.1258 88.3353 35.6156 87.0054 35.1297C85.6755 34.6438 84.5391 33.842 83.596 32.7487C82.653 31.6554 82.1694 30.1976 82.1694 28.3511C82.1694 26.7476 82.6047 25.3141 83.451 24.0264C84.2973 22.7388 85.603 21.7183 87.3198 20.9409C89.0366 20.1877 91.1644 19.799 93.6549 19.799C95.3959 19.799 97.0885 20.0176 98.7569 20.4306C100.425 20.8437 101.876 21.4511 103.134 22.2285L101.199 27.0634C98.6844 25.63 96.1455 24.9011 93.6308 24.9011C91.8656 24.9011 90.5599 25.1927 89.7136 25.7515C88.8673 26.3346 88.4562 27.0877 88.4562 28.0353C88.4562 28.9828 88.9398 29.6631 89.907 30.1247C90.8742 30.5864 92.3734 31.0237 94.3803 31.4853C96.4598 31.9712 98.1524 32.4814 99.4823 32.9674C100.812 33.4533 101.949 34.2551 102.892 35.3241C103.835 36.3931 104.318 37.8509 104.318 39.6731C104.318 41.228 103.883 42.6615 103.013 43.9734C102.142 45.2611 100.836 46.2816 99.0955 47.059C97.3545 47.8122 95.2266 48.2009 92.7361 48.2009C90.5841 48.1766 88.5046 47.8851 86.4735 47.302Z" fill="white"/>
<path d="M113.918 25.46H105.189V20.2849H128.983V25.46H120.254V47.7151H113.943V25.46H113.918Z" fill="white"/>
<path d="M137.518 46.3301C135.245 45.0911 133.456 43.4146 132.175 41.2523C130.893 39.0899 130.24 36.6846 130.24 33.9878C130.24 31.2909 130.893 28.8856 132.175 26.7233C133.456 24.561 135.245 22.8845 137.518 21.6454C139.791 20.4063 142.354 19.799 145.183 19.799C148.013 19.799 150.576 20.4063 152.824 21.6454C155.097 22.8845 156.862 24.561 158.168 26.7233C159.474 28.8856 160.127 31.2909 160.127 33.9878C160.127 36.6846 159.474 39.0899 158.168 41.2523C156.862 43.4146 155.097 45.0911 152.824 46.3301C150.551 47.5692 148.013 48.1766 145.183 48.1766C142.354 48.1766 139.791 47.5692 137.518 46.3301ZM149.536 41.6653C150.842 40.9121 151.857 39.8917 152.607 38.5554C153.356 37.2192 153.719 35.7128 153.719 34.0121C153.719 32.3114 153.356 30.805 152.607 29.4687C151.857 28.1325 150.842 27.0877 149.536 26.3589C148.23 25.6057 146.779 25.2412 145.159 25.2412C143.539 25.2412 142.088 25.6057 140.783 26.3589C139.477 27.112 138.461 28.1325 137.712 29.4687C136.962 30.805 136.6 32.3114 136.6 34.0121C136.6 35.7128 136.962 37.2192 137.712 38.5554C138.461 39.8917 139.477 40.9364 140.783 41.6653C142.088 42.4185 143.539 42.7829 145.159 42.7829C146.779 42.7586 148.254 42.3942 149.536 41.6653Z" fill="white"/>
<path d="M182.251 47.7151L176.979 40.0861H176.665H171.176V47.7151H164.865V20.2849H176.689C179.107 20.2849 181.211 20.6979 182.976 21.4997C184.765 22.3015 186.119 23.4677 187.087 24.9497C188.054 26.4318 188.537 28.2054 188.537 30.2463C188.537 32.2871 188.054 34.0364 187.087 35.5185C186.119 37.0005 184.717 38.1182 182.928 38.8956L189.045 47.7151H182.251ZM180.655 26.699C179.663 25.873 178.213 25.46 176.327 25.46H171.176V35.0083H176.327C178.213 35.0083 179.663 34.5952 180.655 33.7449C181.646 32.9188 182.13 31.7283 182.13 30.222C182.13 28.6913 181.646 27.5008 180.655 26.699Z" fill="white"/>
<path d="M198.79 25.46H190.061V20.2849H213.854V25.46H205.125V47.7151H198.814V25.46H198.79Z" fill="white"/>
<path d="M217.24 20.2849H223.551V47.7151H217.24V20.2849Z" fill="white"/>
<path d="M235.567 46.3301C233.294 45.0911 231.505 43.4146 230.223 41.2523C228.942 39.0899 228.289 36.6846 228.289 33.9878C228.289 31.2909 228.942 28.8856 230.223 26.7233C231.505 24.561 233.294 22.8845 235.567 21.6454C237.84 20.4063 240.403 19.799 243.232 19.799C246.061 19.799 248.624 20.4063 250.873 21.6454C253.146 22.8845 254.911 24.561 256.217 26.7233C257.523 28.8856 258.176 31.2909 258.176 33.9878C258.176 36.6846 257.523 39.0899 256.217 41.2523C254.911 43.4146 253.146 45.0911 250.873 46.3301C248.6 47.5692 246.061 48.1766 243.232 48.1766C240.403 48.1766 237.84 47.5692 235.567 46.3301ZM247.609 41.6653C248.915 40.9121 249.93 39.8917 250.68 38.5554C251.429 37.2192 251.792 35.7128 251.792 34.0121C251.792 32.3114 251.429 30.805 250.68 29.4687C249.93 28.1325 248.915 27.0877 247.609 26.3589C246.303 25.6057 244.852 25.2412 243.232 25.2412C241.612 25.2412 240.161 25.6057 238.856 26.3589C237.55 27.112 236.534 28.1325 235.785 29.4687C235.035 30.805 234.673 32.3114 234.673 34.0121C234.673 35.7128 235.035 37.2192 235.785 38.5554C236.534 39.8917 237.55 40.9364 238.856 41.6653C240.161 42.4185 241.612 42.7829 243.232 42.7829C244.852 42.7586 246.303 42.3942 247.609 41.6653Z" fill="white"/>
<path d="M287.966 20.2849V47.7151H282.791L269.178 31.0723V47.7151H262.939V20.2849H268.162L281.727 36.9277V20.2849H287.966Z" fill="white"/>
<path d="M35.2378 27.4037H26.4121V40.5964H35.2378V27.4037Z" fill="#F8A440"/>
<path d="M58.2809 25.1927C54.8957 17.4423 47.1823 12 38.2115 12H22.9297V25.1927H31.7554V20.868H38.2115C41.6934 20.868 44.9819 22.2286 47.4482 24.7068C47.5933 24.8526 47.7626 25.0226 47.9077 25.1927H58.2809Z" fill="#F8A440"/>
<path d="M69.1622 22.0099C68.9445 21.3296 68.7027 20.6736 68.4367 20.0419C68.4126 19.969 68.3642 19.8718 68.34 19.799H57.9668C58.5955 20.4792 59.1274 21.2324 59.5869 22.0099H69.1622Z" fill="#D6FF00"/>
<path d="M56.1778 27.4037C55.9602 26.7234 55.7184 26.0674 55.4524 25.4357C55.4282 25.3628 55.3798 25.2656 55.3557 25.1927H44.9824C45.6111 25.873 46.1431 26.6262 46.6025 27.4037H56.1778Z" fill="#F8A440"/>
<path d="M63.551 33.9879C63.551 31.6798 63.2125 29.4688 62.5597 27.4037H52.9844C54.1208 29.396 54.7495 31.6312 54.7495 33.9879C54.7495 36.3446 54.145 38.6041 52.9844 40.5721H62.5597C63.2125 38.5069 63.551 36.296 63.551 33.9879Z" fill="#F8A440"/>
<path d="M57.7969 40.5963H48.2216C47.7622 41.3738 47.2302 42.127 46.6016 42.8072H56.9748C57.2891 42.0784 57.5551 41.3495 57.7969 40.5963Z" fill="#D6FF00"/>
<path d="M59.7548 42.8073H49.3815C49.2365 42.9773 49.0914 43.1231 48.9221 43.2932C46.4557 45.7714 43.1673 47.1319 39.6853 47.1319H33.2534V42.8073H24.4277V56H39.7095C48.6803 56 56.3937 50.5577 59.7548 42.8073Z" fill="#F8A440"/>
<path d="M30.4488 40.5963H21.623V42.8072H30.4488V40.5963Z" fill="#D6FF00"/>
<path d="M68.5816 46.646H59.7559V48.8569H68.5816V46.646Z" fill="#D6FF00"/>
<path d="M20.8257 30.2949H12V32.5059H20.8257V30.2949Z" fill="#D6FF00"/>
<path d="M28.8531 25.1927H20.0273V27.4037H28.8531V25.1927Z" fill="#F8A440"/>
</svg>
