<svg width="58" height="44" viewBox="0 0 58 44" fill="none" xmlns="http://www.w3.org/2000/svg">
<path d="M23.2378 15.4037H14.4121V28.5964H23.2378V15.4037Z" fill="#F8A440"/>
<path d="M46.2809 13.1927C42.8957 5.4423 35.1823 0 26.2115 0H10.9297V13.1927H19.7554V8.86803H26.2115C29.6934 8.86803 32.9819 10.2286 35.4482 12.7068C35.5933 12.8526 35.7626 13.0226 35.9077 13.1927H46.2809Z" fill="#F8A440"/>
<path d="M57.1622 10.0099C56.9445 9.3296 56.7027 8.67361 56.4367 8.04191C56.4126 7.96902 56.3642 7.87184 56.34 7.79895H45.9668C46.5955 8.47924 47.1274 9.23241 47.5869 10.0099H57.1622Z" fill="#D6FF00"/>
<path d="M44.1778 15.4037C43.9602 14.7234 43.7184 14.0674 43.4524 13.4357C43.4282 13.3628 43.3798 13.2656 43.3557 13.1927H32.9824C33.6111 13.873 34.1431 14.6262 34.6025 15.4037H44.1778Z" fill="#F8A440"/>
<path d="M51.551 21.9879C51.551 19.6798 51.2125 17.4688 50.5597 15.4037H40.9844C42.1208 17.396 42.7495 19.6312 42.7495 21.9879C42.7495 24.3446 42.145 26.6041 40.9844 28.5721H50.5597C51.2125 26.5069 51.551 24.296 51.551 21.9879Z" fill="#F8A440"/>
<path d="M45.7969 28.5963H36.2216C35.7622 29.3738 35.2302 30.127 34.6016 30.8072H44.9748C45.2891 30.0784 45.5551 29.3495 45.7969 28.5963Z" fill="#D6FF00"/>
<path d="M47.7548 30.8073H37.3815C37.2365 30.9773 37.0914 31.1231 36.9221 31.2932C34.4557 33.7714 31.1673 35.1319 27.6853 35.1319H21.2534V30.8073H12.4277V44H27.7095C36.6803 44 44.3937 38.5577 47.7548 30.8073Z" fill="#F8A440"/>
<path d="M18.4488 28.5963H9.62305V30.8072H18.4488V28.5963Z" fill="#D6FF00"/>
<path d="M56.5816 34.646H47.7559V36.8569H56.5816V34.646Z" fill="#D6FF00"/>
<path d="M8.82571 18.2949H0V20.5059H8.82571V18.2949Z" fill="#D6FF00"/>
<path d="M16.8531 13.1927H8.02734V15.4037H16.8531V13.1927Z" fill="#F8A440"/>
</svg>
