<svg width="109" height="32" viewBox="0 0 109 32" fill="none" xmlns="http://www.w3.org/2000/svg">
<path d="M95.6846 17.4506L95.4282 18.1332L95.1717 17.4506H94.8939V18.4106H95.0648V17.6639L95.3427 18.4106H95.4709L95.7487 17.6639V18.4106H95.9411V17.4506H95.6846ZM93.9107 17.4506V17.5999H94.2099V18.4106H94.4023V17.5999H94.7015V17.4506H93.9107ZM31.0754 17.4506H28.0619L28.7031 18.9866L23.4454 30.7199H26.9933L27.4635 29.5892L32.5929 28.6079L33.4905 30.6986H37.0384L31.0754 17.4506ZM28.7458 26.4319L30.1564 22.9759L31.4388 25.9412L28.7458 26.4319ZM50.9305 1.13056V14.3786H47.5323V7.63722L44.5615 11.1572H44.305L41.3556 7.63722V14.3786H37.936V1.13056H39.9237L44.4546 6.82656L49.0711 1.13056H50.9305ZM107.931 1.13056L106.542 4.22389H102.225V16.8319L98.7409 17.4506V4.22389H94.274L94.8939 5.78122V14.3786H91.4101V8.91722L86.9433 9.77056V14.3786H83.4809V1.13056H86.9433V6.74122L91.4101 5.88789V1.13056H107.931ZM61.6168 17.4506V20.5652H57.6629V30.7199H54.1791V20.5652H50.8664L49.4772 17.4506H61.6168ZM56.0386 4.22389V6.31456H61.2748L59.907 9.34389H56.0386V14.3786H52.5762V1.13056H61.6168V4.24522H56.0386V4.22389ZM31.1395 1.13056H28.126L28.7672 2.68789L23.5095 14.3999H27.0574L27.5276 13.2692L32.657 12.2879L33.576 14.3999H37.1238L31.1395 1.13056ZM28.8099 10.1119L30.2205 6.65589L31.4815 9.62122L28.8099 10.1119ZM17.5252 4.22389V6.31456H22.7615L21.3723 9.34389H17.5252V11.2639H23.1035L21.6929 14.3786H14.0629V5.61056L14.6827 4.22389H10.2586V17.4506L6.77483 16.8106V4.22389H2.45758L1.06836 1.13056H23.1035V4.24522H17.5252V4.22389ZM81.6642 8.04256V14.3786L78.7148 13.8666C77.6035 14.4852 76.4921 14.7412 74.9746 14.7412C71.0848 14.7412 68.3064 11.9252 68.3064 7.91456C68.3064 3.90389 71.0635 1.08789 74.9746 1.08789C78.3087 1.08789 80.5101 2.90122 81.3223 5.67456H77.7317C77.1333 4.82122 76.1501 4.33056 75.1029 4.37322C73.158 4.37322 71.8542 5.78122 71.8542 7.91456C71.8542 10.0479 73.158 11.4559 75.1029 11.4559C76.5348 11.4559 78.266 10.6026 78.266 8.04256H81.6642ZM49.6909 25.9839C49.0925 28.9706 46.8697 30.9332 43.215 30.9119C39.3038 30.8906 36.5468 28.0959 36.5468 24.0852C36.5468 20.0746 39.3038 17.2586 43.215 17.2586C46.5919 17.2586 48.8146 19.1146 49.6054 21.9306H46.0362C45.4805 21.0559 44.5188 20.5439 43.3433 20.5439C41.3984 20.5439 40.0733 21.9519 40.0733 24.0852C40.0733 26.2186 41.377 27.6266 43.3433 27.6266C44.647 27.6266 45.6515 27.0079 46.1858 25.9839H49.6909ZM26.2238 17.4506L24.8346 20.5652H21.5219V30.7199H18.0168V20.5652H14.0629V17.4506H26.2238ZM88.8882 22.5492C92.7352 23.5092 94.5091 24.2132 94.5091 26.6879C94.5091 29.1626 92.8421 30.9332 88.6103 30.9332C84.3144 30.9332 82.6687 28.7359 82.6687 26.0052H86.0242C86.0242 27.3066 86.8791 28.0532 88.6103 28.0532C89.9354 28.0532 90.8758 27.5839 90.8758 26.8799C90.8758 26.2399 89.8072 25.9412 88.3111 25.5359C84.6992 24.5759 83.0535 23.7012 83.0535 21.2692C83.0535 19.3279 84.3572 17.2372 88.6317 17.2372C92.9062 17.2372 94.1244 19.3279 94.1244 21.5679H90.7903C90.7903 20.7359 90.2774 20.0746 88.6531 20.0746C87.0287 20.0746 86.6654 20.6932 86.6654 21.2052C86.6227 21.8879 87.3921 22.1652 88.8882 22.5492ZM81.4719 25.9839C80.8735 28.9706 78.6507 30.9332 74.996 30.9119C71.0848 30.8906 68.3278 28.0959 68.3278 24.0852C68.3278 20.0746 71.1062 17.2586 74.996 17.2586C78.3729 17.2586 80.5956 19.1146 81.3864 21.9306H77.7958C77.2401 21.0559 76.2997 20.5439 75.1029 20.5439C73.158 20.5439 71.8329 21.9519 71.8329 24.0852C71.8329 26.2186 73.1366 27.6266 75.1029 27.6266C76.4066 27.6266 77.4111 27.0079 77.9454 25.9839H81.4719ZM63.2625 1.13056H66.7248V14.3786H63.2625V1.13056ZM63.2625 17.4506H66.7248V30.7199H63.2625V17.4506Z" fill="white"/>
</svg>
