<svg width="67" height="59" viewBox="0 0 67 59" fill="none" xmlns="http://www.w3.org/2000/svg">
<path fill-rule="evenodd" clip-rule="evenodd" d="M38.1757 2.9473C37.1102 1.12083 35.1587 0 33.0403 0C30.9224 0 28.971 1.12078 27.9049 2.9473L0.809215 49.391C-0.263214 51.23 -0.269483 53.5049 0.789123 55.3502C1.85527 57.1961 3.81984 58.3371 5.95155 58.3371H60.13C62.2617 58.3371 64.2262 57.1962 65.2918 55.3502C66.351 53.5049 66.3441 51.23 65.2723 49.391L38.1757 2.9473ZM34.0663 5.34648L61.1619 51.7902C61.3754 52.1594 61.3754 52.614 61.1619 52.9832C60.9491 53.3524 60.556 53.5765 60.1297 53.5765H5.95125C5.52492 53.5765 5.13185 53.3524 4.91838 52.9832C4.70553 52.614 4.70553 52.1594 4.91838 51.7902L32.014 5.34648C32.2269 4.98419 32.613 4.76004 33.0394 4.76004C33.4657 4.76004 33.8525 4.98419 34.0653 5.34648H34.0663Z" fill="#D6FF00"/>
<path fill-rule="evenodd" clip-rule="evenodd" d="M30.6621 20.2733V36.9258C30.6621 38.2381 31.7276 39.3043 33.0406 39.3043C34.3541 39.3043 35.4196 38.2381 35.4196 36.9258V20.2733C35.4196 18.9604 34.3541 17.8949 33.0406 17.8949C31.7276 17.8949 30.6621 18.9604 30.6621 20.2733Z" fill="#D6FF00"/>
<path fill-rule="evenodd" clip-rule="evenodd" d="M36.0131 45.8468C36.0131 47.4888 34.682 48.8205 33.0394 48.8205C31.3975 48.8205 30.0664 47.4887 30.0664 45.8468C30.0664 44.2042 31.3975 42.8732 33.0394 42.8732C34.682 42.8732 36.0131 44.2043 36.0131 45.8468Z" fill="#D6FF00"/>
</svg>
