<svg width="81" height="65" viewBox="0 0 81 65" fill="none" xmlns="http://www.w3.org/2000/svg">
<path d="M40.5016 39.5096C40.2232 39.5096 39.944 39.4497 39.6855 39.3298L1.11511 21.4867C0.437469 21.1721 0.00320531 20.4972 0.00320531 19.7545C0.00320531 19.0118 0.437471 18.3369 1.11591 18.0215L39.6863 0.179174C40.2041 -0.0597247 40.7998 -0.0597247 41.3176 0.179174L79.888 18.0215C80.5648 18.3361 80.9991 19.011 80.9991 19.7545C80.9991 20.498 80.5648 21.1721 79.888 21.4867L41.3176 39.3306C41.0591 39.4497 40.7807 39.5096 40.5016 39.5096V39.5096ZM6.49005 19.7544L40.5016 35.4877L74.5131 19.7536L40.5016 4.02112L6.49005 19.7544ZM41.316 52.0752L79.8864 34.2329C80.8504 33.7866 81.2696 32.6497 80.8186 31.6909C80.3684 30.7353 79.2255 30.319 78.2559 30.7676L40.5 48.2331L2.744 30.7684C1.78001 30.3237 0.632329 30.7361 0.181326 31.6917C-0.268842 32.6496 0.14792 33.7874 1.11349 34.2337L39.6839 52.076C39.9424 52.1959 40.2208 52.2558 40.4999 52.2558C40.7783 52.255 41.0559 52.1951 41.3144 52.0752L41.316 52.0752ZM41.316 64.821L79.8864 46.9787C80.8504 46.5301 81.2696 45.3947 80.8186 44.4359C80.3684 43.4803 79.2255 43.0632 78.2559 43.5135L40.5 60.9781L2.744 43.5126C1.78001 43.068 0.632329 43.4795 0.181326 44.4351C-0.268842 45.3939 0.14792 46.5292 1.11349 46.9779L39.6839 64.8202C39.9416 64.9409 40.22 65 40.4983 65C40.7775 65 41.0559 64.9409 41.3144 64.821L41.316 64.821Z" fill="#D6FF00"/>
</svg>
