<svg width="93" height="93" viewBox="0 0 93 93" fill="none" xmlns="http://www.w3.org/2000/svg">
<path d="M89.9514 1.03209L67.8552 4.94896C66.8317 5.12317 69.7106 2.81359 21.4211 50.9084L18.1315 47.6209C15.6248 45.1242 11.5449 45.1157 9.02979 47.6209C6.5231 50.1292 6.5231 54.2075 9.02979 56.717L18.1348 65.8164L2.91077 81.0281C0.362363 83.5792 0.362363 87.5721 2.91505 90.1242C4.16626 91.3746 5.81646 91.9999 7.46428 91.9999C9.11116 91.9999 10.7613 91.3746 12.0168 90.1242L27.2367 74.9136L36.3428 84.0142C38.8528 86.515 42.9294 86.515 45.4394 84.0142C45.4436 84.0142 45.4436 84.0142 45.4436 84.0099C47.9461 81.5047 47.9461 77.4232 45.4436 74.9137L42.0664 71.5397C90.1622 23.3121 87.879 26.163 88.0515 25.1397L91.9707 3.05273C92.1932 1.84076 91.1106 0.80336 89.9514 1.03209ZM9.55351 87.6569C6.78708 90.4025 2.60552 86.2557 5.37963 83.494L20.6018 68.2813L24.7713 72.4482L9.55351 87.6569ZM42.9753 81.5468C41.831 82.6915 39.9542 82.6989 38.8099 81.5468L11.4981 54.2518C8.73576 51.4912 12.9429 47.3691 15.6635 50.089C46.8677 81.2658 40.6759 75.0775 42.9764 77.3763C44.1249 78.5263 44.1249 80.398 42.9753 81.5468ZM84.7169 23.9921L39.5997 69.0761L23.8848 53.3728L69.002 8.28333L88.1029 4.89862L84.7169 23.9921Z" fill="#D6FF00" stroke="#D6FF00" stroke-width="2"/>
</svg>
