<svg width="85" height="85" viewBox="0 0 85 85" fill="none" xmlns="http://www.w3.org/2000/svg">
<path d="M42.1716 0.861694C19.0461 0.861694 0.205078 19.7046 0.205078 42.8282C0.205078 65.9536 19.048 84.7947 42.1716 84.7947C65.297 84.7947 84.1381 65.9518 84.1381 42.8282C84.1381 19.7028 65.2952 0.861694 42.1716 0.861694ZM42.1716 81.5412C20.8456 81.5412 3.45859 64.1547 3.45859 42.8282C3.45859 21.5022 20.8451 4.20021 42.1716 4.20021C63.4981 4.20021 80.7995 21.5011 80.7995 42.8282C80.7995 64.1541 63.4986 81.5412 42.1716 81.5412Z" fill="#D6FF00"/>
<path d="M43.8838 41.5441C41.6572 40.7734 40.1156 40.0026 39.2587 39.1457C38.4025 38.2894 37.9737 37.176 37.9737 35.8055C37.9737 34.2641 38.4018 33.1506 39.1725 32.2938C40.0288 31.4375 41.2283 31.0087 42.8552 31.0087C44.3967 31.0087 45.6817 31.6085 46.5379 32.8073C47.394 34.0062 47.8229 35.5483 47.8229 37.4324H51.9337C51.9337 34.6059 51.2484 32.3793 49.964 30.6661C48.679 28.9529 46.8803 28.0112 44.4826 27.6686V22.958H41.1425V27.5831C38.8303 27.8402 37.0317 28.7819 35.6611 30.238C34.376 31.694 33.6914 33.5781 33.6914 35.891C33.6914 38.2895 34.3767 40.1736 35.8327 41.6294C37.2887 43.0853 39.43 44.1988 42.2565 45.0549C44.3122 45.7402 45.7683 46.5964 46.71 47.4534C47.5662 48.3096 48.0805 49.423 48.0805 50.708C48.0805 52.2494 47.5669 53.449 46.539 54.3053C45.5111 55.1615 44.1406 55.5903 42.342 55.5903C40.8005 55.5903 39.4299 55.1622 38.3166 54.2198C37.3742 53.2781 36.8599 51.7367 36.8599 49.5955H32.8345V49.6809C32.7491 52.593 33.5198 54.8196 35.0612 56.2757C36.6026 57.8171 38.5729 58.6741 40.9707 58.9306V62.9559H44.3108V58.9306C46.7946 58.6734 48.8505 57.8172 50.2203 56.3612C51.6763 54.9052 52.3616 53.0211 52.3616 50.6228C52.3616 48.2244 51.6763 46.3402 50.3058 44.9698C48.9367 43.6854 46.7955 42.4867 43.8834 41.5443L43.8838 41.5441Z" fill="#D6FF00"/>
</svg>
