<svg width="71" height="68" viewBox="0 0 71 68" fill="none" xmlns="http://www.w3.org/2000/svg">
<path d="M52.4812 8.94914H61.589C62.0761 8.94914 62.5308 9.21009 62.759 9.64737L62.5374 9.76305L62.759 9.64738C62.9816 10.0737 62.9723 10.588 62.69 10.9993C62.6898 10.9995 62.6896 10.9998 62.6894 11.0001L59.0117 16.4523L62.6894 21.9044C62.6896 21.9048 62.6898 21.9051 62.6901 21.9054C62.9723 22.3165 62.9815 22.8307 62.7591 23.257C62.7591 23.257 62.7591 23.2571 62.759 23.2572L62.5374 23.1415C62.3543 23.4929 61.9881 23.7054 61.589 23.7054H45.9238C45.331 23.7054 44.8456 23.2266 44.8456 22.6418L52.4812 8.94914ZM52.4812 8.94914V4.10553C52.4812 3.3795 51.8806 2.79198 51.153 2.79198H35.7709V2.06354C35.7709 1.33752 35.1703 0.75 34.4427 0.75C33.7151 0.75 33.1145 1.33752 33.1145 2.06354V27.5284L16.6972 27.5278C15.9696 27.5278 15.369 28.1153 15.369 28.8414V36.8016H12.5142C11.7866 36.8016 11.1861 37.3891 11.1861 38.1151V46.0754H8.3418C7.61418 46.0754 7.01363 46.6629 7.01363 47.3889V55.3491H4.16937C3.44174 55.3491 2.84119 55.9367 2.84119 56.6627V64.6229H2.07817C1.35055 64.6229 0.75 65.2104 0.75 65.9365C0.75 66.6625 1.35055 67.25 2.07817 67.25H68.9218C69.6495 67.25 70.25 66.6625 70.25 65.9365C70.25 65.2104 69.6495 64.6229 68.9218 64.6229H68.8944L68.8923 64.6234H67.1103V56.6632C67.1103 55.9371 66.5097 55.3496 65.7821 55.3496H62.9378V47.3894C62.9378 46.6633 62.3373 46.0758 61.6097 46.0758H58.7549V38.1156C58.7549 37.3896 58.1543 36.8021 57.4267 36.8021H54.5719V28.8418C54.5719 28.1158 53.9714 27.5283 53.2437 27.5283H35.7701V17.7761H44.5956L52.4812 8.94914ZM52.4913 11.6185V16.4842C52.4913 16.856 52.3299 17.1838 52.0938 17.4169C52.0937 17.417 52.0936 17.4171 52.0935 17.4172L51.9179 17.2392C51.7242 17.4308 51.4543 17.5478 51.1526 17.5478L52.4913 11.6185ZM52.4913 11.6185L59.105 11.6191L56.3139 15.7486L56.3119 15.7515C56.0203 16.1966 56.0203 16.761 56.3119 17.2061L56.3139 17.209L59.1123 21.3493L47.2624 21.3499V17.7978L52.4913 11.6185ZM35.7793 5.41865H49.8337V15.1604H35.7793V5.41865ZM18.0227 30.1553H51.9256V36.802H18.0227V30.1553ZM13.8508 39.429H56.1092V46.0756H13.8508V39.429ZM9.66721 48.7026H60.2811V55.3493H9.66721V48.7026ZM5.49474 64.6231V57.9764H64.4641V64.6231H5.49474Z" fill="#FFA73C" stroke="#FFA73C" stroke-width="0.5"/>
</svg>
