<svg width="67" height="55" viewBox="0 0 67 55" fill="none" xmlns="http://www.w3.org/2000/svg">
<path d="M39.9173 0.000147702C32.7237 0.000147702 25.8827 2.82085 20.8048 7.89932C20.2406 8.4636 20.2406 9.45078 20.8048 10.015L24.9658 14.176C25.248 14.4581 25.6005 14.5989 26.024 14.5989C26.4469 14.5989 26.8 14.4581 27.0821 14.176C27.6464 13.6117 27.6464 12.6246 27.0821 12.0603L24.0497 9.02784C28.0693 5.43112 33.1478 3.3857 38.5077 3.03321V7.33507C38.5077 8.18147 39.1424 8.81612 39.9888 8.81612C40.8352 8.81612 41.4699 8.18147 41.4699 7.33507V3.03321C46.9707 3.38573 52.049 5.57245 55.9279 9.02784L52.8955 12.0603C52.3312 12.6246 52.3312 13.6118 52.8955 14.176C53.1776 14.4581 53.5301 14.5989 53.9536 14.5989C54.3061 14.5989 54.7296 14.4581 55.0118 14.176L58.0442 11.1436C61.5002 15.0225 63.6864 20.1004 64.0389 25.6016H59.737C58.8906 25.6016 58.256 26.2363 58.256 27.0827C58.256 27.9291 58.8906 28.5637 59.737 28.5637H64.0389C63.6863 34.0646 61.4996 39.1429 58.0442 43.0218L55.0118 39.9893C54.4475 39.4251 53.4603 39.4251 52.8961 39.9893C52.3318 40.5536 52.3318 41.5408 52.8961 42.1051L55.9285 45.1375C52.0496 48.5935 46.9717 50.7797 41.4704 51.1322V46.8303C41.4704 45.9839 40.8358 45.3492 39.9894 45.3492C39.143 45.3492 38.5083 45.9839 38.5083 46.8303V51.1322C33.1484 50.7796 28.0705 48.7342 24.0503 45.1375L27.0827 42.1051C27.647 41.5408 27.647 40.5536 27.0827 39.9893C26.5184 39.4251 25.5313 39.4251 24.967 39.9893L20.8048 44.0788C20.6641 44.2196 20.5227 44.361 20.4523 44.5727C20.2406 45.137 20.3115 45.7717 20.8048 46.1946C25.953 51.2725 32.7237 54.0938 39.9173 54.0938C54.8689 54.0938 66.9999 41.9632 66.9999 27.0112C66.9999 12.0596 54.8693 0 39.9173 0V0.000147702Z" fill="#D6FF00"/>
<path d="M39.9176 14.1058C39.0712 14.1058 38.4365 14.7404 38.4365 15.5868V27.0821C38.4365 27.9285 39.0712 28.5632 39.9176 28.5632H49.7207C50.5671 28.5632 51.2018 27.9285 51.2018 27.0821C51.2018 26.2357 50.5671 25.6011 49.7207 25.6011H41.3986V15.5868C41.3986 14.7404 40.7639 14.1057 39.9175 14.1057L39.9176 14.1058Z" fill="#D6FF00"/>
<path d="M17.8429 25.6008H1.48106C0.634653 25.6008 0 26.2355 0 27.0819C0 27.9283 0.634653 28.5629 1.48106 28.5629H17.8429C18.6893 28.5629 19.324 27.9283 19.324 27.0819C19.324 26.2361 18.6184 25.6008 17.8429 25.6008Z" fill="#D6FF00"/>
<path d="M17.8427 16.2222H7.05235C6.20594 16.2222 5.57129 16.8568 5.57129 17.7032C5.57129 18.5496 6.20594 19.1843 7.05235 19.1843H17.8427C18.6891 19.1843 19.3237 18.5496 19.3237 17.7032C19.3237 16.8568 18.6181 16.2222 17.8427 16.2222Z" fill="#D6FF00"/>
<path d="M17.8427 34.9817H7.05235C6.20594 34.9817 5.57129 35.6163 5.57129 36.4627C5.57129 37.3091 6.20594 37.9438 7.05235 37.9438H17.8427C18.6891 37.9438 19.3237 37.3091 19.3237 36.4627C19.3237 35.6163 18.6181 34.9817 17.8427 34.9817Z" fill="#D6FF00"/>
</svg>
