<svg width="73" height="55" viewBox="0 0 73 55" fill="none" xmlns="http://www.w3.org/2000/svg">
<path d="M61.6416 4.48606C57.0006 2.40966 52.0238 0.879855 46.8202 0.00367541C46.7254 -0.0132346 46.6308 0.0290254 46.582 0.113545C45.9419 1.22356 45.2329 2.67166 44.7365 3.80986C39.1397 2.99286 33.5716 2.99286 28.0896 3.80986C27.5931 2.64636 26.8583 1.22356 26.2154 0.113545C26.1666 0.0318454 26.0719 -0.0104146 25.9772 0.00367541C20.7765 0.877055 15.7997 2.40686 11.1558 4.48606C11.1156 4.50296 11.0811 4.53116 11.0582 4.56776C1.6183 18.3192 -0.967692 31.7326 0.300911 44.9797C0.306652 45.0445 0.343963 45.1065 0.395626 45.1459C6.62383 49.6057 12.6569 52.3132 18.578 54.1078C18.6727 54.136 18.7731 54.1022 18.8334 54.0261C20.2341 52.1611 21.4826 50.1946 22.5531 48.1266C22.6163 48.0055 22.556 47.8618 22.4268 47.8139C20.4465 47.0814 18.5607 46.1883 16.7468 45.1741C16.6033 45.0924 16.5918 44.8923 16.7238 44.7965C17.1055 44.5176 17.4874 44.2274 17.8519 43.9344C17.9178 43.8809 18.0097 43.8696 18.0872 43.9034C30.004 49.2085 42.9053 49.2085 54.6814 43.9034C54.759 43.8668 54.8509 43.8781 54.9197 43.9316C55.2843 44.2246 55.666 44.5176 56.0506 44.7965C56.1826 44.8923 56.174 45.0924 56.0305 45.1741C54.2165 46.208 52.3308 47.0814 50.3476 47.8111C50.2184 47.859 50.161 48.0055 50.2242 48.1266C51.3177 50.1917 52.5662 52.1582 53.941 54.0233C53.9984 54.1022 54.1017 54.136 54.1964 54.1078C60.1462 52.3132 66.1792 49.6057 72.4075 45.1459C72.462 45.1065 72.4965 45.0473 72.5022 44.9825C74.0205 29.6674 69.9592 16.364 61.7363 4.57056C61.7162 4.53116 61.6818 4.50296 61.6416 4.48606ZM24.3327 36.9136C20.7449 36.9136 17.7887 33.7019 17.7887 29.7576C17.7887 25.8133 20.6876 22.6016 24.3327 22.6016C28.0064 22.6016 30.934 25.8415 30.8765 29.7576C30.8765 33.7019 27.9777 36.9136 24.3327 36.9136ZM48.5279 36.9136C44.9402 36.9136 41.984 33.7019 41.984 29.7576C41.984 25.8133 44.8828 22.6016 48.5279 22.6016C52.2017 22.6016 55.1292 25.8415 55.0719 29.7576C55.0719 33.7019 52.2017 36.9136 48.5279 36.9136Z" fill="#FFA73C"/>
</svg>
