<svg width="80" height="67" viewBox="0 0 80 67" fill="none" xmlns="http://www.w3.org/2000/svg">
<path d="M46.8242 1C39.7444 1 33.9919 6.7271 33.9919 13.7713C33.9919 20.8156 39.7444 26.5392 46.8242 26.5392C53.904 26.5392 59.6591 20.8154 59.6591 13.7713C59.6591 6.72727 53.9047 1 46.8242 1ZM46.8242 2.32449C53.1854 2.32449 58.3304 7.44123 58.3304 13.7713C58.3304 20.1013 53.1854 25.2174 46.8242 25.2174C40.463 25.2174 35.3206 20.1013 35.3206 13.7713C35.3206 7.44192 40.4628 2.32449 46.8242 2.32449ZM46.814 5.06516H46.8134C46.447 5.07123 46.1544 5.37101 46.1592 5.73549V6.01642C43.9487 6.31149 42.1973 8.04825 42.1973 10.2041C42.1973 12.5727 44.3096 14.4416 46.8242 14.4416C48.6873 14.4416 50.125 15.7748 50.125 17.3547C50.125 18.7398 49.0198 19.935 47.4919 20.2085V20.0361L47.4912 20.0354C47.4939 19.8569 47.4228 19.6844 47.2948 19.5577C47.1675 19.4318 46.9934 19.3624 46.8133 19.3657C46.4469 19.3711 46.1543 19.6709 46.1591 20.0354V20.2085C44.6299 19.9357 43.5259 18.7399 43.5259 17.354C43.5327 17.1742 43.4656 16.9997 43.3404 16.8696C43.2151 16.7403 43.0424 16.6669 42.8616 16.6669C42.6807 16.6669 42.5074 16.7403 42.3821 16.8696C42.2568 16.9997 42.1897 17.1742 42.1972 17.354C42.1972 19.5099 43.9486 21.244 46.1591 21.5391V21.8227V21.8221C46.1618 22.1865 46.4591 22.4803 46.8248 22.4803C47.1912 22.4803 47.4885 22.1865 47.4912 21.8221V21.5384C49.7003 21.242 51.4531 19.508 51.4531 17.3534C51.4531 14.9847 49.3381 13.1159 46.8236 13.1159C44.9605 13.1159 43.5255 11.7826 43.5255 10.2027C43.5255 8.81624 44.6301 7.62175 46.1587 7.34891V7.52138L46.1594 7.52205C46.1621 7.88585 46.4594 8.18025 46.8251 8.18025C47.1915 8.18025 47.4888 7.88585 47.4915 7.52205V7.35093C49.0193 7.62512 50.1246 8.81892 50.1246 10.2041V10.2034C50.1179 10.3833 50.1849 10.5577 50.3102 10.6878C50.4355 10.8171 50.6082 10.8906 50.789 10.8906C50.9698 10.8906 51.1432 10.8171 51.2685 10.6878C51.3938 10.5577 51.4608 10.3833 51.4534 10.2034C51.4534 8.04892 49.7008 6.3127 47.4915 6.01571V5.73478V5.73545C47.4942 5.55624 47.4231 5.38378 47.2951 5.25713C47.1678 5.13115 46.9937 5.06177 46.8136 5.06513L46.814 5.06516ZM52.6017 30.316V30.3174L52.601 30.318C52.5882 30.3187 52.5753 30.3194 52.5624 30.3207C48.2822 30.6866 43.3805 30.3719 37.9376 30.8806H37.895C34.6198 31.1891 31.1449 31.8035 27.4906 33.0545C25.6017 33.6878 23.6209 34.5899 21.6474 35.6186C21.1178 34.0879 19.5805 33.0578 17.8948 33.2291L4.2187 34.6196C2.25544 34.819 0.817663 36.5746 1.01877 38.5277L3.51238 62.7989C3.71284 64.7519 5.47773 66.1808 7.44099 65.9814L21.1171 64.5909C23.0804 64.3915 24.5209 62.6351 24.3198 60.6821L24.08 58.3471L28.3582 56.7747C37.1894 56.8683 45.9866 59.4797 54.4992 58.015C54.4992 58.015 54.571 58.0136 54.5778 58.0123C54.5845 58.0116 54.5879 58.0129 54.5906 58.0123C54.5967 58.0116 54.5994 58.0096 54.6035 58.0096C54.6062 58.0089 54.6109 58.0069 54.6136 58.0069C54.6204 58.0062 54.6279 58.0055 54.636 58.0042C54.6604 58.0015 54.6922 57.9954 54.7335 57.9867C54.8168 57.9718 54.9333 57.953 55.0769 57.9247C55.3654 57.8688 55.7616 57.7859 56.1963 57.6707C57.0659 57.4403 58.0852 57.1189 58.8295 56.5321L76.1437 42.8818C77.3688 41.9157 78.3297 40.5528 78.7638 39.0773C79.1979 37.6019 79.076 35.9669 78.0412 34.6673C76.0502 32.1673 72.3952 31.7449 69.882 33.7262L69.8948 33.7114L54.54 45.1709C48.9609 45.0907 46.388 45.4067 44.4607 45.1123H44.462C44.4011 45.1035 44.3394 45.1035 44.2785 45.1123C43.4448 45.2154 42.7222 44.6508 42.626 43.8195L42.4791 42.5408C42.3829 41.7094 42.9633 40.9744 43.7977 40.8714L53.008 39.7355H53.0074C53.0317 39.7321 53.0555 39.7268 53.0792 39.7207C56.0833 39.0072 57.4311 36.7093 57.2014 34.5884C56.9712 32.4676 55.2475 30.5037 52.6674 30.3178V30.3185C52.6457 30.3165 52.6234 30.3151 52.6017 30.3151L52.6017 30.316ZM52.5794 31.6419C54.5326 31.788 55.7157 33.217 55.8802 34.7342C56.0447 36.2514 55.2707 37.8325 52.7819 38.4288L43.6344 39.5612C42.0924 39.7519 40.9823 41.1599 41.1604 42.696L41.3074 43.9747C41.4848 45.508 42.8962 46.6083 44.4362 46.4222C46.6751 46.7395 49.0522 46.3925 54.7546 46.4936H54.7539C54.9016 46.4956 55.0458 46.4484 55.1637 46.3602L70.694 34.7706C70.698 34.7679 70.7028 34.7645 70.7068 34.7618C72.6607 33.2211 75.4501 33.5438 76.9983 35.4874C77.7331 36.4104 77.834 37.5341 77.4893 38.7063C77.1439 39.8786 76.3252 41.0481 75.3168 41.8437L58.0066 55.4935C57.5814 55.829 56.6488 56.1821 55.8537 56.3922C55.4562 56.4973 55.0891 56.5748 54.8236 56.6267C54.6909 56.653 54.5853 56.6725 54.5121 56.6853C54.4769 56.6914 54.4485 56.6941 54.4308 56.7001H54.4275H54.4214C54.4153 56.7008 54.4126 56.7028 54.4112 56.7028H54.4105C54.4004 56.7035 54.3909 56.7042 54.3807 56.7055C46.2309 58.1432 37.4289 55.5212 28.2726 55.443C28.1921 55.443 28.1121 55.4572 28.037 55.4855L23.9397 56.9878L21.8883 37.0196C23.9424 35.9309 26.0038 34.9493 27.913 34.31H27.9191C31.4562 33.098 34.8188 32.5025 38.0194 32.2012C43.318 31.702 48.1603 32.0133 52.5787 31.6447L52.5794 31.6419ZM18.2639 34.532C19.4165 34.5294 20.3823 35.3782 20.5021 36.5471L20.5156 36.6805L22.9957 60.8173C23.1237 62.0643 22.2359 63.1483 20.9824 63.2756L7.30626 64.6675C6.05269 64.7948 4.96574 63.9102 4.83779 62.6639L2.34487 38.3944C2.21688 37.1474 3.10135 36.0633 4.35495 35.9361L18.031 34.5442C18.1096 34.5354 18.1868 34.5327 18.264 34.5327L18.2639 34.532ZM12.9042 52.9101C12.7641 52.9101 12.6232 52.9162 12.481 52.9303C10.2082 53.1614 8.54144 55.1979 8.77376 57.4589C9.00604 59.7198 11.0533 61.3791 13.3262 61.1482C15.5991 60.9172 17.2636 58.8806 17.0313 56.6195C16.8132 54.5001 15.003 52.9088 12.9049 52.9088L12.9042 52.9101ZM12.9063 54.2312C14.3413 54.2299 15.5597 55.3017 15.7094 56.7549C15.8685 58.3051 14.7477 59.6734 13.1901 59.8317C11.6324 59.9901 10.2535 58.8758 10.0945 57.3256C9.93538 55.7754 11.0582 54.4044 12.6159 54.2462C12.7134 54.2375 12.8102 54.2314 12.9057 54.2314L12.9063 54.2312Z" fill="#FFA73C" stroke="#FFA73C" stroke-width="2"/>
</svg>
