<svg width="66" height="43" viewBox="0 0 66 43" fill="none" xmlns="http://www.w3.org/2000/svg">
<path d="M4.67665 0C2.13001 0 0 2.06092 0 4.60696V38.393C0 40.9391 2.12952 43 4.67665 43H61.3234C63.87 43 66 40.9391 66 38.393V4.60696C66 2.06027 63.8705 0 61.3234 0H4.67665ZM5.46791 3.07104H60.5314L34.3422 26.4901C33.689 27.074 32.309 27.074 31.6564 26.4901L5.46791 3.07104ZM3.07003 5.03889L22.2326 22.1719L3.07003 38.0569V5.03889ZM62.9302 5.03889V38.0564L43.7676 22.1714L62.9302 5.03889ZM24.5581 24.2586L29.6184 28.7699C31.5378 30.4863 34.4623 30.4863 36.3815 28.7699L41.4419 24.2586L60.3646 39.9277H5.63661L24.5594 24.2586H24.5581Z" fill="white"/>
</svg>
