<svg width="115" height="99" viewBox="0 0 115 99" fill="none" xmlns="http://www.w3.org/2000/svg">
<path d="M34.3518 53.432C43.707 53.432 51.3196 45.8125 51.3196 36.4464C51.3196 27.0792 43.7081 19.4607 34.3518 19.4607C24.9944 19.4607 17.3839 27.0802 17.3839 36.4464C17.3829 45.8135 24.9954 53.432 34.3518 53.432ZM34.3518 26.6571C39.744 26.6571 44.1313 31.049 44.1313 36.4469C44.1313 41.8448 39.744 46.2367 34.3518 46.2367C28.9595 46.2367 24.5722 41.8448 24.5722 36.4469C24.5722 31.049 28.9595 26.6571 34.3518 26.6571ZM80.6476 33.9713C90.0029 33.9713 97.6154 26.3518 97.6154 16.9856C97.6154 7.61849 90.0039 0 80.6476 0C71.2902 0 63.6797 7.61951 63.6797 16.9856C63.6797 26.3528 71.292 33.9713 80.6476 33.9713ZM80.6476 7.19632C86.0398 7.19632 90.4271 11.5883 90.4271 16.9862C90.4271 22.384 86.0398 26.776 80.6476 26.776C75.2554 26.776 70.868 22.384 70.868 16.9862C70.868 11.5883 75.2554 7.19632 80.6476 7.19632ZM88.4801 39.0659H72.815C66.1826 39.0659 59.8243 41.5526 54.9119 46.0673C51.0893 49.5789 48.409 54.0676 47.1372 58.994C45.5327 58.6889 43.8784 58.5284 42.1851 58.5284L26.5199 58.5274C11.8966 58.5274 0 70.436 0 85.0752V95.4026C0 97.3897 1.60853 99 3.59362 99H65.1114C67.0965 99 68.705 97.3898 68.705 95.4026V85.0752C68.705 83.1778 68.5039 81.3255 68.1244 79.5395H111.406C113.391 79.5395 115 77.9293 115 75.9421V65.6147C115 50.9743 103.103 39.0644 88.4801 39.0644L88.4801 39.0659ZM61.5165 91.8042H7.18647V85.0742C7.18647 74.4028 15.8597 65.7207 26.5197 65.7207H42.1848C52.8451 65.7207 61.5181 74.403 61.5181 85.0742L61.5165 91.8042ZM107.812 72.343H65.4508C62.8473 67.5921 58.8324 63.7227 53.9769 61.2986C55.9679 52.6872 63.7945 46.2592 72.8152 46.2592H88.4804C99.1406 46.2592 107.814 54.9415 107.814 65.6127L107.812 72.343Z" fill="#D6FF00"/>
</svg>
