<svg width="39" height="39" viewBox="0 0 39 39" fill="none" xmlns="http://www.w3.org/2000/svg">
<path d="M1.69864 0.93625C1.26361 0.977318 0.931929 1.34344 0.933675 1.78023V8.53101C0.930543 8.75689 1.0179 8.97475 1.1766 9.13555C1.3353 9.29634 1.55178 9.38682 1.77765 9.38682C2.00353 9.38682 2.21999 9.29634 2.3787 9.13555C2.53705 8.97475 2.62476 8.75689 2.62163 8.53101V3.81072L12.5763 13.7654C12.7263 13.9519 12.949 14.0657 13.1881 14.0786C13.4272 14.0911 13.6608 14.0017 13.8299 13.8326C13.9994 13.6631 14.0888 13.4299 14.076 13.1904C14.0631 12.9513 13.9493 12.729 13.7627 12.5786L3.80806 2.62394H8.52871C8.75459 2.62742 8.97211 2.53971 9.13289 2.38136C9.29403 2.22266 9.38451 2.00618 9.38451 1.78031C9.38451 1.55443 9.29403 1.33796 9.13289 1.17926C8.9721 1.02056 8.75458 0.933203 8.52871 0.93633H1.77766C1.75121 0.935286 1.72476 0.935286 1.69866 0.93633L1.69864 0.93625ZM30.3901 0.93625C30.166 0.946691 29.9558 1.04554 29.8048 1.21119C29.6537 1.37685 29.5751 1.59576 29.5855 1.81955C29.5959 2.04367 29.6951 2.25423 29.8608 2.40493C30.0264 2.55563 30.2454 2.63463 30.4691 2.62384H35.1763L25.2341 12.566C25.0698 12.7223 24.9755 12.9381 24.972 13.1647C24.9685 13.3912 25.0562 13.6098 25.2156 13.7709C25.375 13.9324 25.5925 14.0225 25.8194 14.0215C26.046 14.0205 26.2628 13.9286 26.4208 13.766L36.3755 3.81138V8.53167C36.3724 8.75755 36.4597 8.97541 36.6184 9.1362C36.7771 9.297 36.9936 9.38748 37.2195 9.38748C37.4454 9.38748 37.6618 9.297 37.8202 9.1362C37.9789 8.97541 38.0666 8.75755 38.0631 8.53167V1.78089C38.0631 1.31487 37.6855 0.936909 37.2195 0.936909H30.4684C30.442 0.935865 30.4155 0.935865 30.3894 0.936909L30.3901 0.93625ZM19.4991 14.4378C16.7128 14.4378 14.4359 16.7147 14.4359 19.501C14.4359 22.2872 16.7128 24.5641 19.4991 24.5641C22.2854 24.5641 24.5622 22.2872 24.5622 19.501C24.5622 16.7147 22.2854 14.4378 19.4991 14.4378ZM19.4991 16.1254C21.3732 16.1254 22.8747 17.6265 22.8747 19.501C22.8747 21.3751 21.3732 22.8765 19.4991 22.8765C17.625 22.8765 16.1235 21.3751 16.1235 19.501C16.1235 17.6268 17.625 16.1254 19.4991 16.1254ZM13.0647 24.9727H13.0643C12.8785 24.9995 12.7069 25.0879 12.5767 25.2233L2.62207 35.1779V30.4708C2.62729 30.2275 2.5274 29.994 2.34817 29.8301C2.16893 29.6658 1.92739 29.5872 1.68587 29.6136C1.25118 29.6613 0.92472 30.0333 0.93412 30.4708V37.2216C0.93412 37.6876 1.31208 38.0652 1.7781 38.0656H8.52915C8.75502 38.0687 8.97254 37.981 9.13333 37.8223C9.29412 37.664 9.3846 37.4475 9.3846 37.2216C9.3846 36.9957 9.29412 36.7793 9.13333 36.6206C8.97254 36.4622 8.75502 36.3745 8.52915 36.3776H3.80886L13.7635 26.423L13.7632 26.4233C14.0319 26.171 14.1056 25.7735 13.9459 25.4418C13.7858 25.1098 13.4291 24.9198 13.0643 24.9727L13.0647 24.9727ZM25.7359 24.9727H25.7355C25.407 25.0047 25.1272 25.2253 25.0196 25.5372C24.9117 25.849 24.9956 26.1953 25.2344 26.4233L35.189 36.3779H30.4687V36.3776C30.2429 36.3745 30.0253 36.4622 29.8642 36.6205C29.7034 36.7792 29.6129 36.9957 29.6129 37.2216C29.6129 37.4474 29.7034 37.6639 29.8642 37.8223C30.0253 37.981 30.2429 38.0687 30.4687 38.0655H37.2198C37.6858 38.0652 38.0634 37.6876 38.0634 37.2216V30.4708C38.0686 30.2275 37.9691 29.994 37.7895 29.8301C37.6103 29.6658 37.3691 29.5871 37.1272 29.6136C36.6925 29.6613 36.3664 30.0333 36.3758 30.4708V35.1779L26.4212 25.2232C26.2423 25.0402 25.9903 24.9479 25.7355 24.9726L25.7359 24.9727Z" fill="#D6FF00"/>
</svg>
