<svg width="91" height="61" viewBox="0 0 91 61" fill="none" xmlns="http://www.w3.org/2000/svg">
<path d="M25.1916 9.04614H18.4625V15.0817H12.4277V21.8109H18.4625V27.8465H25.1916V21.8109H31.2272V15.0817H25.1916V9.04614ZM30.1864 16.1236V20.7709H24.1508V26.8065H19.5035V20.7709H13.4688V16.1236H19.5035V10.088H24.1508V16.1236H30.1864Z" fill="#D6FF00" stroke="#D6FF00"/>
<path d="M66.8492 18.4456C66.8492 16.4943 65.2626 14.9084 63.3121 14.9084C61.36 14.9084 59.7734 16.4951 59.7734 18.4456C59.7734 20.3969 61.3609 21.9828 63.3121 21.9828C65.2617 21.9844 66.8492 20.3961 66.8492 18.4456ZM63.3106 20.9426C61.9336 20.9426 60.8128 19.8226 60.8128 18.4464C60.8128 17.0703 61.9328 15.9503 63.3106 15.9503C64.6867 15.9503 65.8067 17.0703 65.8067 18.4464C65.8084 19.8226 64.6884 20.9426 63.3106 20.9426Z" fill="#D6FF00" stroke="#D6FF00"/>
<path d="M68.3929 1C63.7147 1 59.3358 2.82075 56.0377 6.13345H34.9626C31.6646 2.82079 27.2856 1 22.6074 1C14.0347 1 6.79753 7.13187 5.39357 15.6074L1 48.1389C1 54.9284 6.52334 60.4526 13.3136 60.4526C17.4209 60.4526 21.2419 58.4157 23.5505 54.9837L30.3579 43.8677L29.9517 43.5879C27.8813 42.1588 26.6455 39.8144 26.6455 37.3132C26.6455 33.113 30.0634 29.6951 34.2636 29.6951C38.3922 29.6951 41.8076 33.0569 41.8769 37.1886L41.8851 37.7009H49.1183L49.1265 37.1886C49.1942 33.0569 52.6097 29.6951 56.7398 29.6951C60.94 29.6951 64.3579 33.113 64.3579 37.3132C64.3579 39.8127 63.122 42.1579 61.0517 43.5879L60.6455 43.8677L67.465 55.0025C69.7596 58.4148 73.5814 60.4534 77.6887 60.4534C84.4773 60.4534 90.0006 54.9301 89.9967 48.0704L85.6014 15.5807C84.2033 7.13291 76.9667 1.00104 68.3926 1.00104L68.3929 1ZM77.69 59.4097C73.9294 59.4097 70.4298 57.5441 68.3407 54.4377L62.0416 44.1503C64.1526 42.5098 65.3991 39.9883 65.3991 37.3111C65.3991 32.5358 61.5153 28.652 56.74 28.652C52.2176 28.652 48.4497 32.1988 48.1103 36.6568H42.8938C42.5544 32.1979 38.7857 28.652 34.2641 28.652C29.4888 28.652 25.605 32.5358 25.605 37.3111C25.605 39.9883 26.8514 42.5099 28.9625 44.1503L22.674 54.4189C20.5734 57.5432 17.0755 59.4089 13.3151 59.4089C7.09908 59.4089 2.04311 54.3529 2.03747 48.2062L6.42853 15.7478C7.74351 7.80493 14.5476 2.04081 22.6095 2.04081C27.0774 2.04081 31.2555 3.80769 34.3733 7.01596L34.5267 7.17341H56.4789L56.6322 7.01596C59.75 3.80771 63.9275 2.04081 68.396 2.04081C76.4564 2.04081 83.2622 7.80555 84.577 15.7469L88.9632 48.1385C88.9608 54.3529 83.9039 59.4105 77.6898 59.4105L77.69 59.4097Z" fill="#D6FF00" stroke="#D6FF00"/>
<path d="M75.0352 14.9081C73.0839 14.9081 71.498 16.4947 71.498 18.4452C71.498 20.3965 73.0847 21.9824 75.0352 21.9824C76.9873 21.9824 78.5738 20.3958 78.5738 18.4452C78.5738 16.4948 76.9872 14.9081 75.0352 14.9081ZM75.0352 20.9428C73.6591 20.9428 72.5391 19.8228 72.5391 18.4467C72.5391 17.0706 73.6591 15.9506 75.0352 15.9506C76.4122 15.9506 77.533 17.0706 77.533 18.4467C77.5338 19.8228 76.413 20.9428 75.0352 20.9428Z" fill="#D6FF00" stroke="#D6FF00"/>
<path d="M69.1753 20.772C67.2233 20.772 65.6367 22.3586 65.6367 24.3091C65.6367 26.2612 67.2242 27.8478 69.1753 27.8478C71.1265 27.8478 72.7125 26.2603 72.7125 24.3091C72.7133 22.3579 71.1259 20.772 69.1753 20.772ZM69.1753 26.8067C67.7984 26.8067 66.6775 25.6867 66.6775 24.3089C66.6775 22.9328 67.7975 21.8128 69.1753 21.8128C70.5515 21.8128 71.6715 22.9328 71.6715 24.3089C71.6723 25.6859 70.5523 26.8067 69.1753 26.8067Z" fill="#D6FF00" stroke="#D6FF00"/>
<path d="M69.1753 16.1234C71.1266 16.1234 72.7125 14.536 72.7125 12.5848C72.7125 10.6336 71.1259 9.04761 69.1753 9.04761C67.2233 9.04761 65.6367 10.6342 65.6367 12.5848C65.6367 14.536 67.2242 16.1234 69.1753 16.1234ZM69.1753 10.087C70.5515 10.087 71.6715 11.207 71.6715 12.5831C71.6715 13.9601 70.5515 15.0809 69.1753 15.0809C67.7984 15.0809 66.6775 13.9609 66.6775 12.5831C66.6775 11.2078 67.7975 10.087 69.1753 10.087Z" fill="#D6FF00" stroke="#D6FF00"/>
<path d="M63.0145 37.3114C63.0145 33.8469 60.206 31.0383 56.7398 31.0383C53.2753 31.0383 50.4668 33.8469 50.4668 37.3114C50.4668 40.7759 53.2753 43.5861 56.7398 43.5861C60.206 43.5869 63.0145 40.7767 63.0145 37.3114ZM52.0664 37.3114C52.0664 34.7304 54.1589 32.6371 56.7407 32.6371C59.3224 32.6371 61.4157 34.7302 61.4157 37.3114C61.4157 39.8925 59.3226 41.9864 56.7407 41.9864C54.1589 41.9873 52.0664 39.8933 52.0664 37.3114Z" fill="#D6FF00"/>
<path d="M34.263 31.038C30.7977 31.038 27.9883 33.8465 27.9883 37.311C27.9883 40.7755 30.7968 43.5857 34.263 43.5857C37.7275 43.5857 40.5377 40.7763 40.5377 37.311C40.5377 33.8465 37.7275 31.038 34.263 31.038ZM34.263 41.9869C31.6812 41.9869 29.5888 39.8921 29.5888 37.3118C29.5888 34.7309 31.6812 32.6376 34.263 32.6376C36.8448 32.6376 38.9372 34.7307 38.9372 37.3118C38.9372 39.8919 36.8456 41.9869 34.263 41.9869Z" fill="#D6FF00"/>
</svg>
