<svg width="49" height="49" viewBox="0 0 49 49" fill="none" xmlns="http://www.w3.org/2000/svg">
<path d="M47.4651 20.3675L43.1218 19.8147C42.6742 18.0112 41.9594 16.2806 40.9923 14.657L43.6784 11.1907C43.9306 10.8665 43.9013 10.4043 43.6107 10.1133L38.8875 5.39098C38.5961 5.09867 38.133 5.07151 37.8101 5.32329L34.3446 8.00887C32.7209 7.04096 30.9903 6.32658 29.1869 5.88034L28.6333 1.53575C28.582 1.12746 28.2341 0.821777 27.8232 0.821777H21.1785C20.7667 0.821777 20.4197 1.12702 20.3684 1.53575L19.8152 5.87913C18.0117 6.32579 16.2811 7.0398 14.6575 8.00766L11.1912 5.32208C10.8678 5.07073 10.4056 5.09745 10.1137 5.38977L5.39147 10.112C5.10088 10.4026 5.07114 10.8652 5.32378 11.1895L8.00936 14.6558C7.04145 16.2795 6.32706 18.0101 5.87995 19.8135L1.53624 20.3675C1.12795 20.4188 0.822266 20.7668 0.822266 21.1776V27.8215C0.822266 28.2324 1.12751 28.5803 1.53624 28.6316L5.87873 29.1852C6.32626 30.9896 7.04106 32.7193 8.00815 34.3429L5.32257 37.8084C5.07034 38.1326 5.09967 38.5948 5.39025 38.8858L10.1125 43.609C10.404 43.9004 10.867 43.9293 11.19 43.6766L14.6563 40.9906C16.28 41.9594 18.0098 42.6738 19.814 43.12L20.3667 47.4634C20.418 47.8717 20.7651 48.1774 21.1768 48.1774H27.8216C28.2325 48.1774 28.5804 47.8721 28.6317 47.4634L29.1853 43.12C30.9897 42.6734 32.7194 41.9586 34.343 40.9906L37.8085 43.6766C38.1318 43.9289 38.594 43.9004 38.8859 43.609L43.609 38.8858C43.8996 38.5952 43.9294 38.1326 43.6767 37.8084L40.9907 34.3429C41.9586 32.7192 42.673 30.9895 43.1201 29.1852L47.4635 28.6316C47.8718 28.5803 48.1775 28.2324 48.1775 27.8215V21.1776C48.1792 20.7676 47.8735 20.4197 47.4652 20.3675L47.4651 20.3675ZM46.5455 27.1032L42.3509 27.6373C42.0069 27.6813 41.7279 27.937 41.6551 28.2759C41.2239 30.2793 40.4349 32.1911 39.3101 33.9587C39.1247 34.2493 39.1428 34.6253 39.3541 34.8973L41.9465 38.2408L38.2408 41.9465L34.8973 39.354C34.6262 39.1415 34.2489 39.126 33.9587 39.3101C32.1915 40.4353 30.2794 41.2243 28.2759 41.655C27.937 41.7279 27.6805 42.0068 27.6374 42.3509L27.1032 46.5455H21.8976L21.3643 42.3509C21.3203 42.0068 21.0646 41.7279 20.7257 41.655C18.7223 41.2247 16.8105 40.4357 15.0429 39.3101C14.7536 39.1255 14.3781 39.1419 14.1043 39.354L10.7599 41.9465L7.05515 38.2408L9.64669 34.8973C9.85838 34.6253 9.87519 34.2497 9.69067 33.9587C8.56619 32.1914 7.77725 30.2793 7.3457 28.2759C7.27283 27.937 6.99388 27.6805 6.64983 27.6373L2.45612 27.1032V21.898L6.64983 21.3638C6.99388 21.3198 7.27283 21.0642 7.3457 20.7253C7.77683 18.7226 8.56586 16.81 9.69067 15.0424C9.87606 14.7518 9.85795 14.3759 9.64669 14.1038L7.05515 10.7594L10.7599 7.05469L14.1043 9.64623C14.3772 9.85879 14.751 9.8756 15.0429 9.69021C16.8111 8.56496 18.7231 7.77679 20.7257 7.34612C21.0646 7.27326 21.3211 6.99431 21.3643 6.65026L21.8976 2.45567H27.1032L27.6374 6.65026C27.6813 6.99431 27.937 7.27325 28.2759 7.34612C30.2786 7.7764 32.1911 8.5654 33.9587 9.69021C34.2502 9.8756 34.6244 9.85921 34.8973 9.64623L38.2408 7.05469L41.9465 10.7594L39.3541 14.1038C39.1424 14.3759 39.1256 14.7514 39.3101 15.0424C40.4346 16.8097 41.2235 18.7227 41.6551 20.7253C41.7279 21.0642 42.0069 21.3207 42.3509 21.3638L46.5455 21.898V27.1032Z" fill="#D6FF00"/>
<path d="M24.5121 12.0728C17.6539 12.0728 12.0742 17.6526 12.0742 24.5106C12.0742 31.3697 17.6541 36.9496 24.5121 36.9496C31.3712 36.9496 36.951 31.3697 36.951 24.5106C36.9506 17.6524 31.3707 12.0728 24.5121 12.0728ZM24.5121 35.3172C18.5542 35.3172 13.7076 30.469 13.7076 24.5119C13.7076 18.5548 18.5549 13.7075 24.5121 13.7075C30.4692 13.7075 35.3173 18.5548 35.3173 24.5119C35.3173 30.4691 30.47 35.3172 24.5121 35.3172Z" fill="#D6FF00"/>
<path d="M29.6971 22.1899H26.8796V15.5287C26.8796 15.1669 26.6412 14.8475 26.2941 14.7453C25.9453 14.6431 25.5728 14.7811 25.3771 15.085L18.6172 25.5496C18.4547 25.801 18.4426 26.1205 18.5862 26.3835C18.7293 26.6456 19.0044 26.809 19.3032 26.809H22.1206V33.4702C22.1206 33.8319 22.3591 34.1514 22.7061 34.2536C22.7829 34.2756 22.8605 34.2872 22.9372 34.2872C23.2093 34.2872 23.4697 34.151 23.6232 33.9138L30.383 23.4492C30.5456 23.1979 30.5576 22.8784 30.4141 22.6154C30.2714 22.3533 29.9959 22.1899 29.6971 22.1899V22.1899ZM23.7538 30.7019V25.9925C23.7538 25.5407 23.3886 25.1759 22.9372 25.1759H20.803L25.2459 18.2975V23.0069C25.2459 23.4587 25.6111 23.8235 26.0625 23.8235H28.1967L23.7538 30.7019Z" fill="#D6FF00"/>
</svg>
