<svg width="19" height="20" viewBox="0 0 19 20" fill="none" xmlns="http://www.w3.org/2000/svg">
<path d="M9.49978 20C12.0194 20 14.4358 18.9464 16.2176 17.0711C17.9991 15.1956 19 12.6523 19 9.99977C19 7.34765 17.9991 4.80393 16.2176 2.92887C14.4359 1.05357 12.0196 0 9.49978 0C6.98027 0 4.56373 1.05357 2.78243 2.92887C1.00112 4.80417 0 7.34775 0 9.99977C0.00278608 12.6511 1.00455 15.1928 2.78555 17.0674C4.56654 18.9419 6.9812 19.9971 9.49978 20ZM9.49978 2.22258C11.4594 2.22258 13.3388 3.04191 14.7247 4.50057C16.1104 5.95923 16.8888 7.93734 16.8888 10C16.8888 12.0627 16.1104 14.0411 14.7247 15.4999C13.339 16.9586 11.4596 17.7779 9.49978 17.7779C7.53998 17.7779 5.66091 16.9586 4.27532 15.4999C2.88959 14.0412 2.11123 12.0629 2.11123 10C2.11331 7.93795 2.89253 5.96111 4.27777 4.50292C5.66297 3.04482 7.54074 2.22478 9.49978 2.22258ZM10.5554 15.5559H8.44441V8.22221H10.5554V15.5559ZM8.44441 5.55602C8.44441 5.26128 8.55551 4.97881 8.75349 4.77043C8.95148 4.56202 9.21999 4.4449 9.4998 4.4449C9.7798 4.4449 10.0483 4.56202 10.2463 4.77043C10.4443 4.97883 10.5554 5.26129 10.5554 5.55602C10.5554 5.85075 10.4443 6.13341 10.2463 6.34161C10.0483 6.55002 9.77979 6.66714 9.4998 6.66714C9.21998 6.66714 8.95146 6.55002 8.75349 6.34161C8.55551 6.13339 8.44441 5.85075 8.44441 5.55602Z" fill="#FFA73C"/>
</svg>
