<svg width="80" height="86" viewBox="0 0 80 86" fill="none" xmlns="http://www.w3.org/2000/svg">
<path d="M1.37932 85.5446H78.6204C79.1097 85.5446 79.5618 85.2862 79.8094 84.8646C80.0577 84.4437 80.0635 83.9224 79.8261 83.495L73.1034 71.3949V23.4767C73.1034 23.1104 72.9585 22.7602 72.6993 22.501C72.4408 22.2425 72.0898 22.0976 71.7243 22.0976H63.3778C62.9242 14.0575 58.3712 6.81563 51.3236 2.92059C44.2759 -0.973528 35.7212 -0.973528 28.674 2.92059C21.6263 6.8147 17.0734 14.0566 16.6197 22.0976H8.27604C7.51442 22.0976 6.89696 22.715 6.89696 23.4766V71.3949L0.17421 83.4949C-0.0638802 83.9224 -0.0573376 84.4437 0.190229 84.8646C0.438516 85.2861 0.890687 85.5446 1.37926 85.5446L1.37932 85.5446ZM39.9998 2.78612C45.4871 2.78612 50.75 4.96608 54.6301 8.84566C58.5103 12.7258 60.6897 17.9888 60.6897 23.4759C60.6897 28.963 58.5104 34.2253 54.6301 38.1055C50.75 41.9856 45.4869 44.1658 39.9998 44.1658C34.5127 44.1658 29.2504 41.9858 25.3703 38.1055C21.4902 34.2251 19.3108 28.963 19.3108 23.4759C19.3166 17.9901 21.498 12.7316 25.3768 8.85293C29.2557 4.9741 34.5148 2.7919 39.9998 2.78612ZM9.65555 24.8542H16.6223C17.0767 32.8935 21.6289 40.1361 28.6773 44.0312C35.7249 47.9253 44.2789 47.9253 51.3269 44.0312C58.3746 40.1371 62.9274 32.8944 63.3811 24.8542H70.3449V70.3716H9.65443L9.65555 24.8542ZM9.08906 73.1303H70.9128L76.2784 82.7853L3.72536 82.7861L9.08906 73.1303Z" fill="#D6FF00"/>
<path d="M38.6211 8.30359H41.38V12.4415H38.6211V8.30359Z" fill="#D6FF00"/>
<path d="M47.0293 13.5526L48.6916 9.76343L51.219 10.8724L49.5567 14.6615L47.0293 13.5526Z" fill="#D6FF00"/>
<path d="M28.7812 10.8703L31.3087 9.76062L32.9725 13.5498L30.445 14.6595L28.7812 10.8703Z" fill="#D6FF00"/>
<path d="M56.2391 26.0752C56.6563 25.5662 56.6563 24.8345 56.2391 24.3262C55.9456 23.9665 48.9286 15.5458 40.0003 15.5458C31.0721 15.5458 24.0557 23.9666 23.7616 24.3262C23.3451 24.8345 23.3451 25.5662 23.7616 26.0752C24.055 26.4349 31.0721 34.8556 40.0003 34.8556C48.9286 34.8556 55.9457 26.4348 56.2391 26.0752ZM53.3105 25.2022H53.3112C50.8735 27.803 47.9071 29.8512 44.6115 31.2099C46.4843 29.782 47.5844 27.5627 47.5867 25.2072C47.5889 22.8524 46.493 20.6301 44.6225 19.1995C47.9116 20.5618 50.8727 22.6078 53.3112 25.2022H53.3105ZM26.6905 25.2022C29.1283 22.6013 32.0947 20.5524 35.3902 19.1937C33.5167 20.6216 32.4173 22.8408 32.4151 25.1964C32.4129 27.5519 33.5088 29.7735 35.3785 31.2048C32.0902 29.8411 29.1283 27.7943 26.6905 25.1992V25.2022ZM35.1733 25.2022C35.1733 23.9214 35.6822 22.6938 36.5873 21.788C37.4931 20.883 38.7207 20.374 40.0007 20.374C41.2815 20.374 42.5091 20.883 43.4148 21.788C44.3199 22.6938 44.8281 23.9214 44.8281 25.2022C44.8281 26.4822 44.3199 27.7098 43.4148 28.6155C42.509 29.5206 41.2815 30.0296 40.0007 30.0296C38.7206 30.0296 37.4923 29.5206 36.5866 28.6148C35.6815 27.709 35.1733 26.4807 35.1733 25.2007L35.1733 25.2022Z" fill="#D6FF00"/>
<path d="M23.4473 77.2684H56.5503V80.0274H23.4473V77.2684Z" fill="#D6FF00"/>
<path d="M63.4492 63.4766H66.2082V66.2355H63.4492V63.4766Z" fill="#D6FF00"/>
<path d="M57.9316 63.4766H60.6906V66.2355H57.9316V63.4766Z" fill="#D6FF00"/>
<path d="M52.4141 63.4766H55.173V66.2355H52.4141V63.4766Z" fill="#D6FF00"/>
</svg>
