<svg width="29" height="25" viewBox="0 0 29 25" fill="none" xmlns="http://www.w3.org/2000/svg">
<path d="M1.84375 7.40523L3.51 8.74137C4.09048 9.20684 4.76525 9.53977 5.48725 9.71696C6.20925 9.89414 6.96112 9.91132 7.69042 9.76728C8.41973 9.62324 9.10892 9.32146 9.70994 8.88298C10.311 8.4445 10.8094 7.87986 11.1704 7.22845L14.6217 1L18.073 7.22845C18.4342 7.87976 18.9326 8.44428 19.5337 8.88263C20.1348 9.32099 20.824 9.62264 21.5533 9.76655C22.2826 9.91046 23.0344 9.89318 23.7564 9.7159C24.4783 9.53862 25.153 9.20561 25.7334 8.74008L27.3997 7.40523L25.1584 18.64C25.0606 19.1303 24.8523 19.5917 24.5496 19.9891C24.2469 20.3865 23.8577 20.7094 23.4117 20.9331V20.9331C20.6825 22.3012 17.6731 23.0135 14.6217 23.0135C11.5704 23.0135 8.56092 22.3012 5.83175 20.9331V20.9331C5.38571 20.7094 4.9965 20.3865 4.69379 19.9891C4.39108 19.5917 4.18286 19.1303 4.085 18.64L1.84375 7.40523Z" stroke="#A1B82C" stroke-width="2" stroke-linecap="round" stroke-linejoin="round"/>
</svg>
