<svg width="138" height="138" viewBox="0 0 138 138" fill="none" xmlns="http://www.w3.org/2000/svg">
<path d="M28.5106 74.4319L30.75 61.0694C30.9873 60.1332 31.8088 59.4615 32.7736 59.4149L44.4006 57.534H44.3999C45.6343 57.3404 46.7555 56.7053 47.5568 55.7476C46.6407 55.41 45.7561 54.9935 44.9117 54.5032C44.6221 54.6802 44.301 54.7999 43.9662 54.8537L32.37 56.7297C31.3248 56.8337 30.3406 57.2724 29.565 57.9806C28.7894 58.6896 28.2632 59.6301 28.0654 60.6615L25.5665 75.5646C25.5006 75.9589 25.611 76.3617 25.869 76.6671C26.1271 76.9718 26.5063 77.1474 26.9056 77.1474H40.3327C40.4911 76.1768 40.8546 75.2514 41.3986 74.432L28.5106 74.4319Z" fill="#D6FF00"/>
<path d="M51.5886 53.9375C51.7405 53.0386 51.9656 52.1533 52.2617 51.2909C49.2796 50.9992 46.5277 49.559 44.5887 47.2759C42.649 44.9921 41.6733 42.0436 41.8684 39.0544C42.0626 36.0645 43.4125 33.2674 45.6318 31.2552C47.8512 29.2423 50.7664 28.1713 53.7608 28.269C56.7557 28.3664 59.5944 29.6245 61.6784 31.7779C63.7621 33.9304 64.927 36.8094 64.9263 39.805C64.9263 39.9197 64.9127 40.0308 64.9091 40.1448V40.1455C65.8094 39.962 66.7234 39.853 67.6418 39.8179L67.6425 39.805C67.6453 36.1269 66.2274 32.5893 63.6834 29.9327C61.1394 27.2754 57.6678 25.7048 53.9924 25.5477C50.3172 25.3907 46.7237 26.6602 43.9632 29.0911C41.2019 31.5219 39.4872 34.9254 39.1769 38.5907C38.8665 42.2559 39.9847 45.8988 42.298 48.759C44.6112 51.6192 47.9402 53.4743 51.589 53.9375L51.5886 53.9375Z" fill="#D6FF00"/>
<path d="M58.846 91.4066H43.4461L45.6862 78.0449C45.9235 77.1087 46.7443 76.437 47.7091 76.3904L59.3354 74.5094H59.3361C60.5698 74.3151 61.6916 73.6807 62.493 72.7223C61.5769 72.3847 60.6916 71.9682 59.8479 71.4779C59.5583 71.655 59.2372 71.774 58.9024 71.8277L47.3062 73.7045C46.261 73.8084 45.2767 74.2471 44.5012 74.9561C43.7256 75.6643 43.1994 76.6048 43.0016 77.6362L40.5027 92.5393H40.502C40.4361 92.9336 40.5472 93.3365 40.8052 93.6418C41.0633 93.9465 41.4425 94.1221 41.8418 94.1221H56.9965C57.3979 93.0877 58.0308 92.1587 58.8459 91.4067L58.846 91.4066Z" fill="#D6FF00"/>
<path d="M54.0641 56.7782C54.0691 60.5266 55.5487 64.1223 58.183 66.7889C60.8173 69.4548 64.3952 70.9774 68.1427 71.0276C68.3764 70.0871 68.6903 69.1689 69.0817 68.2821C68.8294 68.2993 68.5785 68.3208 68.3219 68.3208C65.1198 68.3345 62.0554 67.0227 59.8545 64.6972C57.6531 62.3718 56.5119 59.2393 56.7018 56.0436C56.891 52.8472 58.395 49.8716 60.8552 47.8222C63.3154 45.7734 66.5139 44.8337 69.6916 45.2251C72.87 45.6172 75.7438 47.3069 77.6327 49.8918C79.5215 52.4775 80.2571 55.7291 79.6641 58.8759C80.5903 58.5942 81.5394 58.3921 82.4999 58.273C82.9107 54.3835 81.705 50.4961 79.1652 47.5212C76.6254 44.5463 72.9753 42.7457 69.0691 42.5398C65.1631 42.3347 61.3444 43.7433 58.5072 46.4351C55.6699 49.1276 54.0635 52.8674 54.0635 56.7784L54.0641 56.7782Z" fill="#D6FF00"/>
<path d="M112.435 110.872L109.942 96.0095C109.752 94.9744 109.233 94.0281 108.462 93.3128C107.69 92.5974 106.708 92.1515 105.661 92.0411L94.035 90.1601C93.6995 90.1064 93.3784 89.9874 93.0895 89.8096C92.245 90.3006 91.3598 90.7171 90.4436 91.0547C91.2458 92.0124 92.3668 92.6475 93.6013 92.8411L105.258 94.727C106.226 94.7844 107.04 95.4725 107.257 96.418L109.491 109.738H59.741L61.9811 96.3766C62.2184 95.4404 63.0392 94.7687 64.004 94.7221L75.6303 92.8411C76.8647 92.6476 77.9866 92.0125 78.788 91.0548C77.8718 90.7171 76.9865 90.3006 76.1428 89.8096C75.8532 89.9874 75.5321 90.1064 75.1973 90.1601L63.6011 92.0369V92.0362C62.5553 92.1401 61.5717 92.5796 60.7962 93.2878C60.0198 93.996 59.4944 94.9365 59.2965 95.968L56.7977 110.871L56.7969 110.872C56.731 111.265 56.8421 111.669 57.1002 111.974C57.3582 112.278 57.7374 112.455 58.1367 112.455H111.096H111.095C111.495 112.455 111.875 112.278 112.133 111.974C112.391 111.669 112.501 111.265 112.435 110.872L112.435 110.872Z" fill="#D6FF00"/>
<path d="M70.3584 75.1109C70.3584 78.8921 71.8602 82.5187 74.534 85.1926C77.2085 87.8671 80.835 89.3689 84.6163 89.3689C88.3975 89.3689 92.0248 87.8672 94.6985 85.1926C97.3723 82.5188 98.8741 78.8923 98.8741 75.1109C98.8741 71.3295 97.3723 67.7024 94.6985 65.0286C92.0248 62.3549 88.3975 60.8523 84.6163 60.8523C80.8363 60.8566 77.212 62.3605 74.539 65.0336C71.8659 67.7066 70.3626 71.3302 70.3584 75.1109ZM84.6163 63.5684C87.6779 63.5684 90.6134 64.7842 92.7783 66.9491C94.9424 69.1139 96.1589 72.0494 96.1589 75.1111C96.1589 78.172 94.9424 81.1082 92.7783 83.2723C90.6134 85.4372 87.6779 86.6537 84.6163 86.6537C81.5553 86.6537 78.6191 85.4372 76.4543 83.2723C74.2901 81.1082 73.0736 78.172 73.0736 75.1111C73.0772 72.0508 74.2944 69.1169 76.4585 66.9527C78.6219 64.7893 81.5559 63.5721 84.6161 63.5686L84.6163 63.5684Z" fill="#D6FF00"/>
</svg>
