<svg width="39" height="39" viewBox="0 0 39 39" fill="none" xmlns="http://www.w3.org/2000/svg">
<path d="M38.1087 1.25746C35.8611 -0.990053 23.3166 4.13233 15.0574 11.5022C11.5553 9.72501 6.74625 10.8749 3.08752 14.3771H3.08709C2.60335 14.7923 2.47272 15.4877 2.77366 16.0499C3.07287 16.6462 3.74846 16.9514 4.39392 16.7815C6.15425 16.312 8.02374 16.4784 9.67325 17.2519C8.03102 19.2494 6.74066 21.5121 5.85768 23.9424C5.7943 24.123 5.8344 24.323 5.96202 24.4653L6.74627 25.3017C6.04178 25.591 5.40237 26.0174 4.86431 26.5559C3.40055 28.0197 1.62344 32.6191 0.369173 36.1739C0.200171 36.6511 0.272166 37.181 0.562756 37.5958C0.853344 38.0105 1.32631 38.2597 1.83248 38.2645H2.30285C5.90938 37.1668 10.5614 35.4939 12.1299 34.0828C12.6727 33.5374 13.1154 32.9006 13.4367 32.2013L13.8549 32.6195C13.9514 32.7178 14.0829 32.7743 14.2205 32.776H14.3774C16.8405 31.9771 19.154 30.7764 21.2248 29.2217C22.0815 30.9601 22.2492 32.958 21.6952 34.8149C21.5818 35.2379 21.671 35.6901 21.9375 36.0381C22.2035 36.386 22.6161 36.5908 23.0541 36.5921C23.4275 36.5895 23.7849 36.439 24.0475 36.1739C27.7065 32.6196 28.9608 27.6537 27.1836 24.0473C33.8219 16.9907 38.7352 7.53004 38.7352 3.24428C38.7985 2.52514 38.5726 1.81032 38.1083 1.25802L38.1087 1.25746ZM4.13275 15.7891C3.96115 15.8287 3.78525 15.7412 3.71454 15.58C3.63305 15.4347 3.67875 15.251 3.81887 15.1618H3.87104C7.00716 12.13 11.1888 10.9801 14.2728 12.3391L13.9593 12.6525C12.6875 13.8752 11.4832 15.1665 10.3528 16.5208C8.44279 15.511 6.22464 15.2497 4.13276 15.7891L4.13275 15.7891ZM11.3458 33.2478C10.2481 34.2407 6.85067 35.6522 1.937 37.1682L1.93743 37.1678C1.74989 37.2178 1.55027 37.16 1.41877 37.0173C1.28727 36.875 1.24545 36.6711 1.31012 36.4883C2.98292 31.6272 4.55099 28.2819 5.5439 27.2364C6.10611 26.7018 6.78647 26.3078 7.53016 26.0866L12.6004 31.2612V31.2616C12.3323 32.007 11.9041 32.6848 11.3458 33.2479L11.3458 33.2478ZM23.2108 35.3383C23.1056 35.4608 22.925 35.4836 22.7926 35.3905C22.6516 35.303 22.5874 35.1314 22.6361 34.9723C23.282 32.8132 23.0565 30.4867 22.0088 28.4909C23.4156 27.4191 24.7591 26.2675 26.0335 25.0409L26.347 24.7274C27.6538 27.8636 26.4517 32.2543 23.263 35.3383L23.2108 35.3383ZM25.3014 24.257C21.4332 27.9682 17.6697 30.5292 14.3245 31.5748L6.90243 23.9957C8.05229 20.8074 10.718 17.1483 14.6384 13.3327C23.3156 4.91685 35.9646 0.579221 37.3762 1.98978C37.6349 2.35367 37.7466 2.80162 37.6901 3.24438C37.6901 7.47815 32.2538 17.5663 25.3019 24.2571L25.3014 24.257Z" fill="#D6FF00"/>
<path d="M21.4864 11.9724C20.7823 12.6791 20.3878 13.6362 20.3887 14.6334C20.39 15.6306 20.7871 16.5869 21.4928 17.2918C22.1982 17.9967 23.1549 18.3925 24.1522 18.3925C25.1498 18.3925 26.1065 17.9967 26.8119 17.2918C27.5177 16.5869 27.9148 15.6306 27.9156 14.6334C27.9169 13.6362 27.522 12.679 26.8184 11.9724C26.1122 11.2641 25.1529 10.8657 24.1522 10.8657C23.152 10.8657 22.1927 11.2641 21.4865 11.9724H21.4864ZM26.0862 16.5723C25.493 17.1733 24.6536 17.4643 23.8154 17.3596C22.9777 17.2548 22.2358 16.7667 21.8084 16.0381C21.3807 15.3094 21.3161 14.4239 21.6334 13.6413C21.9507 12.8584 22.6138 12.2678 23.4278 12.0427C24.2422 11.8176 25.1144 11.9836 25.7888 12.492C26.4631 13.0007 26.8628 13.7936 26.8705 14.6381C26.8632 15.3435 26.5821 16.0182 26.0863 16.5201L26.0862 16.5723Z" fill="#D6FF00"/>
</svg>
