<svg width="77" height="86" viewBox="0 0 77 86" fill="none" xmlns="http://www.w3.org/2000/svg">
<path d="M35.05 40.2756C32.4042 40.2756 30.2763 40.2564 29.9504 40.2371C29.4523 40.1987 29.0879 39.7767 29.0879 39.2786V32.6831C29.0879 32.1465 29.5099 31.7245 30.0465 31.7245H47.0527C47.5893 31.7245 48.0113 32.1465 48.0113 32.6831V39.2786C48.0113 39.8151 47.5893 40.2371 47.0527 40.2371C45.9973 40.2564 39.7092 40.2756 35.0501 40.2756H35.05ZM31.0043 38.3584C33.5157 38.3776 40.6863 38.3584 46.0933 38.3392V33.6608H31.0043V38.3584Z" fill="#D6FF00"/>
<path d="M38.5586 25.4551C35.3954 25.4551 32.4812 23.2121 30.3717 19.128C28.1094 14.7755 26.9017 8.58281 26.8633 1.24001C26.8633 0.990931 26.9594 0.741852 27.1508 0.549706C27.3422 0.35827 27.5728 0.262207 27.8219 0.262207H49.3137C49.5628 0.262207 49.8119 0.358277 49.9848 0.549706C50.157 0.741141 50.2723 0.971711 50.2723 1.24001C50.2339 8.58354 49.007 14.7569 46.7639 19.128C44.6169 23.1928 41.7218 25.4551 38.5579 25.4551H38.5586ZM28.7806 2.1797C29.0681 16.1949 33.861 23.5185 38.5586 23.5185C43.2561 23.5185 48.0491 16.1943 48.3366 2.1797H28.7813H28.7806Z" fill="#D6FF00"/>
<path d="M31.3685 19.9151H31.234C24.4663 18.9949 19.3467 13.1281 19.3467 6.30268V5.0566C19.3467 4.52003 19.7687 4.09802 20.3053 4.09802H27.9363C28.4728 4.09802 28.8949 4.52003 28.8949 5.0566C28.8949 5.59318 28.4728 6.01518 27.9363 6.01518H21.2639V6.30268C21.2639 12.1888 25.6548 17.2122 31.4831 18.0171C32.0005 18.094 32.3841 18.5729 32.3072 19.091C32.2503 19.5699 31.8482 19.915 31.3686 19.915L31.3685 19.9151Z" fill="#D6FF00"/>
<path d="M34.6268 33.6423C34.4731 33.6423 34.3009 33.6039 34.1664 33.5271C33.706 33.278 33.5337 32.6838 33.802 32.2233C35.3548 29.4429 35.1058 26.146 34.6261 23.8643C34.5108 23.347 34.856 22.8289 35.3741 22.7328C35.8914 22.6175 36.4095 22.9627 36.5056 23.4808C37.0614 26.0881 37.3111 29.8841 35.4893 33.1819C35.2979 33.4701 34.972 33.6423 34.6268 33.6423V33.6423Z" fill="#D6FF00"/>
<path d="M42.4701 33.6424C42.1249 33.6424 41.799 33.4701 41.6268 33.1442C39.7864 29.8464 40.0548 26.0504 40.6106 23.4431C40.7258 22.9257 41.224 22.5998 41.7421 22.6951C42.2594 22.8104 42.5854 23.3086 42.49 23.8266C42.0104 26.1081 41.7613 29.425 43.3141 32.1856C43.5632 32.6461 43.4102 33.2403 42.9497 33.4894C42.7768 33.6046 42.6238 33.6424 42.4701 33.6424V33.6424Z" fill="#D6FF00"/>
<path d="M41.3569 14.6809C41.2031 14.6809 41.0501 14.6425 40.9156 14.5656L38.5573 13.3388L36.199 14.5664C35.873 14.7386 35.4895 14.7009 35.1827 14.4895C34.8952 14.2789 34.7415 13.9145 34.7992 13.5501L35.2404 10.9235L33.3424 9.06394C33.0741 8.81486 32.9973 8.43128 33.0934 8.08614C33.1894 7.741 33.4961 7.49192 33.8605 7.43427L36.4872 7.05069L37.6756 4.67305C37.8293 4.34711 38.1738 4.13647 38.5381 4.13647C38.9025 4.13647 39.2284 4.34711 39.4007 4.67305L40.5891 7.05069L43.2158 7.43427C43.5801 7.49192 43.8676 7.741 43.9829 8.08614C44.0982 8.43128 44.0021 8.81486 43.7338 9.06394L41.8359 10.9235L42.2771 13.5501C42.3347 13.9145 42.181 14.2789 41.8935 14.4895C41.7398 14.6233 41.5484 14.6809 41.3569 14.6809H41.3569ZM38.5573 11.2878C38.711 11.2878 38.864 11.3262 38.9985 11.4031L40.0916 11.9781L39.881 10.7704C39.8233 10.4637 39.9386 10.1378 40.1493 9.92715L41.031 9.06463L39.8233 8.89241C39.5166 8.85398 39.2483 8.64334 39.1138 8.37506L38.5772 7.28197L38.0407 8.37506C37.9062 8.66256 37.6379 8.8547 37.3119 8.89241L36.1043 9.06463L36.986 9.92715C37.2159 10.1378 37.3119 10.4637 37.2543 10.7704L37.0437 11.9781L38.1367 11.4031C38.2506 11.3255 38.4043 11.2878 38.5573 11.2878H38.5573Z" fill="#D6FF00"/>
<path d="M45.7289 19.915C45.2492 19.915 44.8472 19.5699 44.7895 19.091C44.7127 18.5736 45.077 18.0747 45.6136 18.0171C51.4419 17.2115 55.8329 12.1888 55.8329 6.30268V6.01519H49.1605C48.6239 6.01519 48.2019 5.59318 48.2019 5.0566C48.2019 4.52003 48.6239 4.09802 49.1605 4.09802H56.7915C57.3281 4.09802 57.7501 4.52003 57.7501 5.0566V6.30268C57.7501 13.1472 52.6505 18.9949 45.8628 19.9151H45.729L45.7289 19.915Z" fill="#D6FF00"/>
<path d="M31.7321 79.3114C31.1955 79.3114 30.7735 78.8894 30.7735 78.3528V71.24H5.13884V78.3528C5.13884 78.8894 4.71684 79.3114 4.18026 79.3114C3.64368 79.3114 3.22168 78.8894 3.22168 78.3528V70.2813C3.22168 69.7447 3.64368 69.3228 4.18026 69.3228H31.7315C32.268 69.3228 32.6901 69.7447 32.6901 70.2813V78.3528C32.6901 78.8702 32.2488 79.3114 31.7315 79.3114H31.7321Z" fill="#D6FF00"/>
<path d="M72.9161 79.3114C72.3796 79.3114 71.9576 78.8894 71.9576 78.3528V71.24H46.3429V78.3528C46.3429 78.8894 45.9209 79.3114 45.3844 79.3114C44.8478 79.3114 44.4258 78.8894 44.4258 78.3528V70.2813C44.4258 69.7447 44.8478 69.3228 45.3844 69.3228H72.9356C73.4721 69.3228 73.8942 69.7447 73.8942 70.2813V78.3528C73.8749 78.8702 73.4536 79.3114 72.9163 79.3114H72.9161Z" fill="#D6FF00"/>
<path d="M52.3239 56.956C51.7873 56.956 51.3653 56.534 51.3653 55.9974V48.8845H25.7306V55.9974C25.7306 56.534 25.3086 56.956 24.7721 56.956C24.2355 56.956 23.8135 56.534 23.8135 55.9974V47.9259C23.8135 47.3893 24.2355 46.9673 24.7721 46.9673H52.3233C52.8598 46.9673 53.2819 47.3893 53.2819 47.9259V55.9974C53.2819 56.5155 52.8606 56.956 52.3233 56.956H52.3239Z" fill="#D6FF00"/>
<path d="M7.0378 85.0064H1.32479C0.788213 85.0064 0.366211 84.5844 0.366211 84.0478V78.3532C0.366211 77.8167 0.788213 77.3947 1.32479 77.3947H7.03853C7.57511 77.3947 7.99711 77.8167 7.99711 78.3532V84.067C7.9964 84.5843 7.57511 85.0063 7.03782 85.0063L7.0378 85.0064ZM2.28324 83.0893H6.07916V79.312H2.28324V83.0893Z" fill="#D6FF00"/>
<path d="M34.5708 85.0064H28.857C28.3204 85.0064 27.8984 84.5844 27.8984 84.0478L27.8991 78.3532C27.8991 77.8167 28.3212 77.3947 28.8577 77.3947H34.5715C35.108 77.3947 35.5301 77.8167 35.5301 78.3532V84.067C35.5293 84.5843 35.108 85.0063 34.5708 85.0063V85.0064ZM29.8355 83.0893H33.6314V79.312H29.8355V83.0893Z" fill="#D6FF00"/>
<path d="M48.2397 85.0064H42.526C41.9894 85.0064 41.5674 84.5844 41.5674 84.0478V78.3532C41.5674 77.8167 41.9894 77.3947 42.526 77.3947H48.2397C48.7763 77.3947 49.1983 77.8167 49.1983 78.3532V84.067C49.1983 84.5843 48.7571 85.0063 48.2397 85.0063V85.0064ZM43.4844 83.0893H47.2803L47.281 79.312H43.4844L43.4844 83.0893Z" fill="#D6FF00"/>
<path d="M75.7729 85.0064H70.0592C69.5226 85.0064 69.1006 84.5844 69.1006 84.0478V78.3532C69.1006 77.8167 69.5226 77.3947 70.0592 77.3947H75.7729C76.3095 77.3947 76.7315 77.8167 76.7315 78.3532V84.067C76.7315 84.5843 76.3095 85.0063 75.7729 85.0063V85.0064ZM71.0176 83.0893H74.8135L74.8143 79.312H71.0183L71.0176 83.0893Z" fill="#D6FF00"/>
<path d="M55.1811 62.651H49.4674C48.9308 62.651 48.5088 62.229 48.5088 61.6925V55.9787C48.5088 55.4421 48.9308 55.0201 49.4674 55.0201H55.1811C55.7177 55.0201 56.1397 55.4421 56.1397 55.9787V61.6925C56.1404 62.229 55.6992 62.651 55.1811 62.651ZM50.4266 60.734H54.2225V56.938H50.4266V60.734Z" fill="#D6FF00"/>
<path d="M27.6293 62.651H21.9156C21.379 62.651 20.957 62.229 20.957 61.6925V55.9787C20.957 55.4421 21.379 55.0201 21.9156 55.0201H27.6293C28.1659 55.0201 28.5879 55.4421 28.5879 55.9787V61.6925C28.5879 62.229 28.1659 62.651 27.6293 62.651ZM22.8741 60.734H26.67V56.938H22.8741V60.734Z" fill="#D6FF00"/>
<path d="M17.9469 71.2409C17.4103 71.2409 16.9883 70.8189 16.9883 70.2823V66.3326C16.9883 65.796 17.4103 65.374 17.9469 65.374C18.4834 65.374 18.9054 65.796 18.9054 66.3326V70.2823C18.9054 70.8189 18.4834 71.2409 17.9469 71.2409Z" fill="#D6FF00"/>
<path d="M59.149 71.2409C58.6124 71.2409 58.1904 70.8189 58.1904 70.2823V66.3326C58.1904 65.796 58.6124 65.374 59.149 65.374C59.6856 65.374 60.1076 65.796 60.1076 66.3326V70.2823C60.1076 70.8189 59.6863 71.2409 59.149 71.2409Z" fill="#D6FF00"/>
<path d="M38.5592 48.8854C38.0226 48.8854 37.6006 48.4634 37.6006 47.9268V43.9771C37.6006 43.4406 38.0226 43.0186 38.5592 43.0186C39.0957 43.0186 39.5177 43.4406 39.5177 43.9771V47.9268C39.5177 48.4634 39.0772 48.8854 38.5592 48.8854Z" fill="#D6FF00"/>
</svg>
