<svg width="109" height="76" viewBox="0 0 109 76" fill="none" xmlns="http://www.w3.org/2000/svg">
<path d="M55.2777 75.5237C47.6401 75.5145 40.3171 72.4766 34.9164 67.0759C29.5157 61.6764 26.4789 54.3533 26.4697 46.7157V1.55709C26.4697 0.69706 27.1668 0 28.0268 0H82.5279C82.9406 0 83.3371 0.164151 83.6284 0.455465C83.9209 0.747925 84.085 1.14441 84.085 1.55711V46.7157C84.0758 54.3534 81.0378 61.6764 75.6371 67.0759C70.2365 72.4766 62.9146 75.5146 55.277 75.5238L55.2777 75.5237ZM29.5841 3.11603V46.7181C29.5841 55.8978 34.482 64.3803 42.4315 68.9692C50.381 73.5585 60.1745 73.5585 68.124 68.9692C76.0735 64.38 80.9714 55.8975 80.9714 46.7181V3.11603H29.5841Z" fill="#D6FF00"/>
<path d="M107.444 45.9368H82.5297C81.6697 45.9368 80.9727 45.2386 80.9727 44.3786C80.9727 43.5186 81.6697 42.8215 82.5297 42.8215H103.977L93.8235 31.3981C93.2999 30.8086 93.2999 29.9208 93.8235 29.3301L103.977 17.9067H82.5297C81.6697 17.9067 80.9727 17.2096 80.9727 16.3496C80.9727 15.4895 81.6697 14.7925 82.5297 14.7925H107.444C108.057 14.7925 108.613 15.1532 108.864 15.7115C109.115 16.271 109.014 16.9253 108.607 17.3842L97.0707 30.3645L108.607 43.3448C109.014 43.8025 109.115 44.4568 108.864 45.0163C108.613 45.5758 108.057 45.9353 107.444 45.9364V45.9368Z" fill="#D6FF00"/>
<path d="M28.0288 45.9368H1.5571C0.927102 45.9356 0.35951 45.5565 0.119068 44.975C-0.12253 44.3936 0.0104074 43.7231 0.455451 43.278L13.3689 30.3646L0.455451 17.4512V17.4501C0.0104045 17.005 -0.122527 16.3357 0.119068 15.7542C0.35951 15.1716 0.927102 14.7925 1.5571 14.7925H28.0288C28.8888 14.7925 29.5859 15.4895 29.5859 16.3496C29.5859 17.2096 28.8888 17.9066 28.0288 17.9066H5.31628L16.6725 29.2629C17.2806 29.8709 17.2806 30.857 16.6725 31.465L5.31628 42.8212H28.0288C28.8888 42.8212 29.5859 43.5183 29.5859 44.3783C29.5859 45.2384 28.8888 45.9366 28.0288 45.9366V45.9368Z" fill="#D6FF00"/>
<path d="M64.7769 52.2609C64.4845 52.2609 64.1978 52.1777 63.9504 52.0228L54.4991 46.1134L45.0489 52.0307C44.5102 52.366 43.8224 52.3429 43.3092 51.9695C42.7947 51.5961 42.5601 50.9488 42.7127 50.3326L45.4107 39.5185L36.8717 32.355C36.3851 31.9469 36.1955 31.2846 36.392 30.6812C36.5873 30.0766 37.1306 29.6523 37.7641 29.6084L48.8833 28.8293L53.0529 18.4925L53.0541 18.4937C53.2911 17.903 53.8633 17.5157 54.4991 17.5157C55.136 17.5157 55.707 17.903 55.944 18.4937L60.1136 28.8305L71.2328 29.6096L71.234 29.6084C71.8675 29.6524 72.4108 30.0766 72.6073 30.6812C72.8038 31.2846 72.6131 31.9469 72.1264 32.355L63.5874 39.5185L66.2854 50.3326C66.4022 50.7985 66.2981 51.2909 66.0034 51.6689C65.7086 52.0469 65.2566 52.2677 64.7769 52.2689L64.7769 52.2609ZM54.4994 42.7196C54.7918 42.7196 55.0773 42.8016 55.3247 42.9565L62.3323 47.3366L60.3302 39.3187C60.1845 38.7407 60.3822 38.1315 60.8388 37.7477L67.1702 32.4406L58.928 31.8672V31.8684C58.3338 31.8267 57.8137 31.4499 57.5906 30.8962L54.4996 23.2367L51.4086 30.8985V30.8974C51.1867 31.4511 50.6665 31.8291 50.0712 31.8696L41.829 32.4429L48.1604 37.7501C48.617 38.1327 48.8146 38.7419 48.6702 39.3188L46.6692 47.3354L53.6768 42.9554C53.923 42.8005 54.2085 42.7196 54.4998 42.7196L54.4994 42.7196Z" fill="#D6FF00"/>
</svg>
