<svg width="63" height="73" viewBox="0 0 63 73" fill="none" xmlns="http://www.w3.org/2000/svg">
<path d="M58.8454 27.9802C58.8879 27.8921 58.9311 27.8027 58.9493 27.7025C58.9785 27.5463 62.2549 9.97509 62.2507 9.85218C62.2416 9.58172 61.9729 3.2185 56.539 0.868382C56.3992 0.807608 56.2485 0.776611 56.0959 0.776611H6.88437C6.73121 0.776611 6.58171 0.807608 6.44254 0.868382C1.0092 3.21803 0.73879 9.58177 0.72961 9.85155C0.690714 10.9972 4.00545 27.5851 4.02615 27.7018C4.04499 27.8021 4.08753 27.8915 4.13007 27.9796C0.721824 37.6654 0.728516 37.4094 0.728516 37.7668V71.1087C0.728516 71.725 1.22748 72.2252 1.84496 72.2252H61.154C61.7715 72.2252 62.2705 71.725 62.2705 71.1087L62.2711 37.7668C62.2711 37.6131 62.4874 38.1898 58.8469 27.9796L58.8454 27.9802ZM2.96078 38.8839H23.3347V43.8499C23.3347 48.3577 26.9963 52.0254 31.4987 52.0254C36.001 52.0254 39.6627 48.3583 39.6627 43.8499V38.8839H60.0366V61.632C55.6638 62.1444 52.1892 65.6195 51.677 69.9929H11.3213C10.809 65.6201 7.33444 62.1444 2.96172 61.632V38.8839H2.96078ZM37.4291 38.8839V43.8499C37.4291 47.1264 34.7689 49.7925 31.4974 49.7925C28.2266 49.7925 25.5657 47.1262 25.5657 43.8499V38.8839H37.4291ZM18.2984 24.6157H24.3394L28.4242 34.7415L18.2984 24.6157ZM45.4651 22.3827H40.2816L43.4937 18.9641L45.4651 22.3827ZM34.4836 34.8326L38.4711 24.6157H44.7005L34.4836 34.8326ZM36.0752 24.6157L31.4867 36.3678L26.7455 24.6157H36.0752ZM27.7903 22.3827L31.4879 18.693L35.0695 22.3827H27.7903ZM37.693 21.8789L34.1407 18.2202H41.1305L37.693 21.8789ZM25.1326 21.8825L21.8101 18.2208H28.8022L25.1326 21.8825ZM19.4914 18.9879L22.5715 22.3827H17.5332L19.4914 18.9879ZM35.8216 36.6515L43.8573 28.6158H56.7016L59.5507 36.6515H35.8208H35.8216ZM7.12393 3.00928H55.8532C58.5395 4.28314 59.4973 7.02712 59.8365 8.64925H36.4458C35.9347 6.37988 33.9102 4.67576 31.489 4.67576C29.0678 4.67576 27.0427 6.37926 26.531 8.64925H3.14188C3.4798 7.02587 4.43883 4.28197 7.12393 3.00928ZM34.1179 8.64925H28.8596C29.2948 7.62761 30.3097 6.90856 31.4887 6.90856C32.6677 6.90856 33.6822 7.62753 34.1178 8.64925H34.1179ZM3.18607 10.8822H59.7879L56.9224 26.3836H46.0898L48.1841 24.2893C48.5427 23.9307 48.6028 23.3546 48.3628 22.9407L44.6755 16.5471C44.4744 16.1988 44.0581 15.9891 43.7086 15.9891H19.288C18.9488 15.9891 18.5265 16.1909 18.321 16.5471L14.6338 22.9407C14.367 23.4026 14.4965 23.9732 14.8125 24.2893L16.9068 26.3836H6.05229L3.18607 10.8822ZM6.27163 28.6174H19.139L27.1746 36.653H3.42303L6.27163 28.6174ZM2.95938 63.8885C6.09785 64.3729 8.57927 66.8538 9.06252 69.9927H2.95938V63.8885ZM53.9322 69.9927C54.4166 66.8536 56.8975 64.3728 60.0353 63.8885L60.0359 69.9927H53.9322Z" fill="#D6FF00"/>
<path d="M31.5002 46.9865C32.1177 46.9865 32.6167 46.4863 32.6167 45.87V41.7336C32.6167 41.1174 32.1177 40.6172 31.5002 40.6172C30.8828 40.6172 30.3838 41.1174 30.3838 41.7336V45.87C30.3838 46.4863 30.8828 46.9865 31.5002 46.9865Z" fill="#D6FF00"/>
</svg>
