<svg width="105" height="54" viewBox="0 0 105 54" fill="none" xmlns="http://www.w3.org/2000/svg">
<path d="M98.1476 0H57.3599C55.5063 0.00459706 53.7401 0.793468 52.499 2.17077C51.2578 0.793468 49.4926 0.0046133 47.6381 0H6.85041C5.09983 0.00183873 3.42103 0.697836 2.18344 1.9354C0.944985 3.17386 0.248965 4.85284 0.248047 6.6033V47.391C0.248966 49.1416 0.944961 50.8203 2.18344 52.0579C3.42098 53.2964 5.09994 53.9924 6.85041 53.9933H47.6381C49.4926 53.9887 51.2579 53.2008 52.499 51.8235C53.7402 53.2008 55.5063 53.9887 57.3599 53.9933H98.1476C99.8982 53.9924 101.577 53.2964 102.815 52.0579C104.052 50.8204 104.749 49.1414 104.75 47.391V6.6033C104.749 4.85272 104.052 3.17393 102.815 1.9354C101.577 0.697859 99.898 0.00185944 98.1476 0ZM47.639 50.5086L6.85135 50.5095C5.13019 50.5067 3.73455 49.111 3.73172 47.3898V6.60218C3.73448 4.8801 5.13016 3.48538 6.85135 3.48255H47.639C49.3611 3.48531 50.7558 4.88007 50.7586 6.60218V11.3915C48.6964 10.9658 46.5523 11.4908 44.9193 12.8212C43.2873 14.1507 42.3394 16.1449 42.3394 18.2503C42.3394 20.3558 43.2873 22.35 44.9193 23.6794C46.5522 25.0098 48.6963 25.5348 50.7586 25.1091V31.5534C50.7586 32.2126 51.131 32.8158 51.7213 33.1109C52.3115 33.406 53.0177 33.3426 53.5454 32.9463C54.1476 32.4747 54.8915 32.2191 55.6564 32.22C56.9142 32.22 58.0763 32.8912 58.7043 33.9807C59.3331 35.0693 59.3331 36.4107 58.7043 37.5002C58.0763 38.5888 56.9141 39.26 55.6564 39.26C54.8924 39.2637 54.1486 39.0117 53.5454 38.5428C53.0177 38.1466 52.3115 38.0831 51.7213 38.3783C51.131 38.6734 50.7586 39.2765 50.7586 39.9358V47.3959C50.7522 49.1143 49.3584 50.5054 47.639 50.5082V50.5086ZM101.266 47.3899C101.263 49.111 99.8687 50.5067 98.1476 50.5095H57.3599C55.6387 50.5067 54.244 49.1111 54.2412 47.3899V42.6005C56.3035 43.0262 58.4476 42.5012 60.0796 41.1708C61.7125 39.8413 62.6595 37.8471 62.6595 35.7417C62.6595 33.6363 61.7125 31.642 60.0796 30.3117C58.4476 28.9822 56.3035 28.4572 54.2412 28.8829V22.4386C54.2431 21.7757 53.8698 21.1689 53.2758 20.8729C52.6828 20.5777 51.973 20.6439 51.4453 21.0448C50.8449 21.5155 50.1047 21.7711 49.3416 21.7711C48.0838 21.7711 46.9218 21.1009 46.2928 20.0114C45.6649 18.9228 45.6649 17.5804 46.2928 16.4918C46.9217 15.4023 48.0839 14.732 49.3416 14.732C50.1029 14.7293 50.8439 14.9821 51.4453 15.4492C51.973 15.8501 52.6828 15.9172 53.2758 15.6211C53.8698 15.3251 54.2431 14.7183 54.2412 14.0563V6.60346C54.244 4.88138 55.6387 3.48666 57.3599 3.48383H98.1476C99.8687 3.48659 101.263 4.88135 101.266 6.60346V47.3899Z" fill="#D6FF00"/>
<path d="M12.7207 41.7269L31.8788 12.1194L34.8036 14.0116L15.6454 43.6191L12.7207 41.7269Z" fill="#D6FF00"/>
<path d="M34.2109 26.9972C32.5945 26.9972 31.0435 27.6399 29.9007 28.7827C28.757 29.9265 28.1152 31.4765 28.1152 33.0928C28.1152 34.7101 28.757 36.2602 29.9007 37.4039C31.0436 38.5468 32.5946 39.1894 34.2109 39.1894C35.8272 39.1894 37.3783 38.5467 38.521 37.4039C39.6648 36.2602 40.3065 34.7101 40.3065 33.0928C40.3065 31.4765 39.6648 29.9264 38.521 28.7827C37.3782 27.6399 35.8272 26.9972 34.2109 26.9972ZM34.2109 35.706C33.1545 35.706 32.2019 35.0697 31.7974 34.0933C31.3928 33.1169 31.6163 31.9933 32.3637 31.2458C33.1103 30.4992 34.2348 30.2748 35.2103 30.6794C36.1867 31.084 36.823 32.0365 36.823 33.0929C36.823 34.5364 35.6535 35.706 34.2108 35.706L34.2109 35.706Z" fill="#D6FF00"/>
<path d="M21.1493 20.9011C21.1493 19.2847 20.5066 17.7337 19.3638 16.5909C18.22 15.4481 16.6699 14.8054 15.0527 14.8054C13.4363 14.8054 11.8862 15.4481 10.7425 16.5909C9.59969 17.7338 8.95703 19.2848 8.95703 20.9011C8.95703 22.5183 9.59972 24.0685 10.7425 25.2112C11.8863 26.355 13.4364 26.9967 15.0527 26.9967C16.6699 26.9967 18.2201 26.355 19.3638 25.2112C20.5066 24.0684 21.1493 22.5183 21.1493 20.9011ZM12.4405 20.9011C12.4405 19.8447 13.0767 18.8921 14.0532 18.4876C15.0296 18.083 16.1531 18.3064 16.9007 19.0539C17.6473 19.8014 17.8707 20.9249 17.4671 21.9014C17.0625 22.877 16.11 23.5141 15.0526 23.5141C13.61 23.5141 12.4404 22.3446 12.4404 20.901L12.4405 20.9011Z" fill="#D6FF00"/>
<path d="M68.4551 41.7269L87.6132 12.1194L90.538 14.0116L71.3798 43.6191L68.4551 41.7269Z" fill="#D6FF00"/>
<path d="M89.9453 26.9972C88.3289 26.9972 86.7788 27.6399 85.6351 28.7827C84.4923 29.9265 83.8496 31.4765 83.8496 33.0928C83.8496 34.7101 84.4923 36.2602 85.6351 37.4039C86.7789 38.5468 88.329 39.1894 89.9453 39.1894C91.5625 39.1894 93.1127 38.5467 94.2563 37.4039C95.3992 36.2602 96.0409 34.7101 96.0409 33.0928C96.0409 31.4765 95.3992 29.9264 94.2563 28.7827C93.1126 27.6399 91.5625 26.9972 89.9453 26.9972ZM89.9453 35.706C88.8888 35.706 87.9363 35.0697 87.5317 34.0933C87.1272 33.1169 87.3506 31.9933 88.0981 31.2458C88.8456 30.4992 89.9691 30.2748 90.9456 30.6794C91.9222 31.084 92.5583 32.0365 92.5583 33.0929C92.5583 34.5364 91.3888 35.706 89.9452 35.706L89.9453 35.706Z" fill="#D6FF00"/>
<path d="M76.8847 20.9011C76.8847 19.2847 76.242 17.7337 75.0991 16.5909C73.9563 15.4481 72.4053 14.8054 70.789 14.8054C69.1717 14.8054 67.6216 15.4481 66.4789 16.5909C65.3351 17.7338 64.6934 19.2848 64.6934 20.9011C64.6934 22.5183 65.3351 24.0685 66.4789 25.2112C67.6217 26.355 69.1718 26.9967 70.789 26.9967C72.4054 26.9967 73.9564 26.355 75.0991 25.2112C76.242 24.0684 76.8847 22.5183 76.8847 20.9011ZM68.1759 20.9011C68.1759 19.8447 68.813 18.8921 69.7886 18.4876C70.765 18.083 71.8885 18.3064 72.6361 19.0539C73.3836 19.8014 73.607 20.9249 73.2024 21.9014C72.7979 22.877 71.8454 23.5141 70.7889 23.5141C69.3454 23.5141 68.1758 22.3446 68.1758 20.901L68.1759 20.9011Z" fill="#D6FF00"/>
</svg>
