<svg width="89" height="77" viewBox="0 0 89 77" fill="none" xmlns="http://www.w3.org/2000/svg">
<path d="M87.2295 52.4406L88.6219 49.9365C88.9991 49.2576 88.9895 48.4534 88.5962 47.784C88.2022 47.1146 87.5042 46.7154 86.7278 46.7154H80.593C79.9815 46.7154 79.3948 46.9754 78.9846 47.4303L75.6331 51.1407H74.2085C73.5303 38.5086 63.0406 28.4401 50.2422 28.4401C49.2396 28.4401 48.2508 28.5031 47.2796 28.6232V3.59568C47.2796 1.92209 45.918 0.560425 44.2443 0.560425H3.13681C1.46323 0.560425 0.101562 1.92199 0.101562 3.59568V69.7157C0.101562 70.911 1.07422 71.8835 2.26944 71.8835H12.0686C12.7871 71.8835 13.3693 71.3013 13.3693 70.5828C13.3693 69.8643 12.7871 69.282 12.0686 69.282H2.70312V12.0551H32.8812C33.5998 12.0551 34.182 11.4728 34.182 10.7543C34.182 10.0358 33.5998 9.45355 32.8812 9.45355H2.70312V3.59418C2.70312 3.35541 2.89722 3.16058 3.13672 3.16058H44.2442C44.4837 3.16058 44.6778 3.35541 44.6778 3.59418V9.45355H38.9495C38.231 9.45355 37.6487 10.0358 37.6487 10.7543C37.6487 11.4728 38.231 12.0551 38.9495 12.0551H44.6778V29.0927C41.3928 29.8756 38.3681 31.3354 35.7584 33.3157H20.1821C19.4636 33.3157 18.8813 33.898 18.8813 34.6165C18.8813 35.335 19.4636 35.9173 20.1821 35.9173H32.8507C31.3192 37.5286 30.0089 39.3523 28.9681 41.3387H20.1821C19.4636 41.3387 18.8813 41.921 18.8813 42.6395C18.8813 43.358 19.4636 43.9402 20.1821 43.9402H27.797C27.1422 45.6622 26.6793 47.4778 26.4369 49.3616H20.1813C19.4628 49.3616 18.8806 49.9439 18.8806 50.6624C18.8806 51.3809 19.4628 51.9632 20.1813 51.9632H26.2458C26.2429 52.1228 26.24 52.2818 26.24 52.4422C26.24 54.1355 26.4172 55.7887 26.7527 57.3845H20.1814C19.4629 57.3845 18.8806 57.9668 18.8806 58.6853C18.8806 59.4038 19.4629 59.9861 20.1814 59.9861H27.4551C28.6277 63.5186 30.5994 66.6884 33.1562 69.2819H18.1378C17.4193 69.2819 16.837 69.8642 16.837 70.5827C16.837 71.3012 17.4193 71.8835 18.1378 71.8835H36.1832C40.1368 74.7509 44.9949 76.4442 50.2414 76.4442C63.0397 76.4442 73.5289 66.3749 74.2076 53.7436H75.6322L78.9837 57.4541C79.3939 57.9082 79.9806 58.1689 80.5921 58.1689H86.727C87.5033 58.1689 88.202 57.769 88.5954 57.0996C88.9894 56.4301 88.9989 55.6259 88.621 54.9471L87.2295 52.4406ZM62.6239 43.617C64.2206 45.8509 65.1662 48.429 65.3961 51.1397H61.7882C61.1393 45.3433 56.2108 40.8214 50.2439 40.8214C43.8366 40.8214 38.6247 46.0341 38.6247 52.4406C38.6247 58.8478 43.8373 64.0598 50.2439 64.0598C56.2108 64.0598 61.1393 59.5378 61.7882 53.7415H65.3961C64.734 61.5212 58.1912 67.6495 50.2431 67.6495C41.8568 67.6495 35.0344 60.8269 35.0344 52.4408C35.0344 44.0545 41.857 37.2321 50.2431 37.2321C53.2219 37.2321 56.1083 38.0978 58.5927 39.7361C59.1918 40.1316 59.9989 39.9661 60.3944 39.3663C60.7899 38.7664 60.6244 37.96 60.0245 37.5645C57.1145 35.6456 53.7322 34.6311 50.243 34.6311C40.4227 34.6311 32.4328 42.621 32.4328 52.4413C32.4328 62.2616 40.4227 70.2516 50.243 70.2516C59.6261 70.2516 67.337 62.9574 68.0057 53.742H71.6027C70.9281 64.9386 61.6067 73.842 50.2427 73.842C38.4425 73.842 28.8414 64.2422 28.8414 52.4407C28.8414 40.6406 38.4412 31.0395 50.2427 31.0395C61.6061 31.0395 70.9277 39.942 71.6027 51.1395H68.0049C67.7698 47.8824 66.6536 44.7814 64.7398 42.1037C64.3223 41.5192 63.5093 41.3845 62.9249 41.8019C62.3404 42.2194 62.2049 43.0324 62.6231 43.6161L62.6239 43.617ZM50.2431 53.7413H52.7502C52.2785 54.6465 51.3329 55.2676 50.2431 55.2676C48.6845 55.2676 47.4167 53.9998 47.4167 52.4413C47.4167 50.8827 48.6845 49.6149 50.2431 49.6149C51.3329 49.6149 52.2784 50.2352 52.7502 51.1412H50.2431C49.5246 51.1412 48.9423 51.7235 48.9423 52.442C48.9423 53.1605 49.5246 53.7428 50.2431 53.7428V53.7413ZM50.2431 47.0125C47.2497 47.0125 44.8152 49.4477 44.8152 52.4404C44.8152 55.4338 47.2504 57.8683 50.2431 57.8683C52.7875 57.8683 54.9284 56.1076 55.5128 53.7411H59.166C58.5332 58.099 54.7737 61.4578 50.2429 61.4578C45.2704 61.4578 41.2253 57.4127 41.2253 52.4402C41.2253 47.4677 45.2704 43.4226 50.2429 43.4226C54.7737 43.4226 58.5332 46.7815 59.166 51.1393H55.5128C54.9283 48.7729 52.7882 47.0121 50.2431 47.0121V47.0125ZM84.6062 53.0725L85.992 55.5649H80.7873L79.1401 53.7412H81.1996C81.9181 53.7412 82.5004 53.1589 82.5004 52.4404C82.5004 51.7219 81.9181 51.1396 81.1996 51.1396H79.1401L80.7873 49.3159H85.992L84.6062 51.8083C84.3872 52.2016 84.3872 52.6799 84.6062 53.0725Z" fill="#D6FF00"/>
</svg>
