<svg width="89" height="55" viewBox="0 0 89 55" fill="none" xmlns="http://www.w3.org/2000/svg">
<path d="M40.2809 16.1778C41.4818 16.1778 42.4557 17.1548 42.4557 18.3526C42.4557 18.9883 42.9714 19.5048 43.6079 19.5048C44.2436 19.5048 44.7602 18.9891 44.7602 18.3526C44.7602 15.8828 42.7508 13.8734 40.281 13.8734H39.9396V12.8809C39.9396 12.2452 39.4239 11.7287 38.7874 11.7287C38.1517 11.7287 37.6351 12.2444 37.6351 12.8809V13.8734H37.2938C34.824 13.8734 32.8146 15.8827 32.8146 18.3526C32.8146 20.8224 34.8239 22.8318 37.2938 22.8318H37.6351V27.1854H37.2938C36.0929 27.1854 35.1189 26.2115 35.1189 25.0105C35.1189 24.3748 34.6032 23.8583 33.9667 23.8583C33.331 23.8583 32.8145 24.374 32.8145 25.0105C32.8145 27.4803 34.8238 29.4897 37.2936 29.4897H37.635V30.4822C37.635 31.1179 38.1507 31.6345 38.7872 31.6345C39.423 31.6345 39.9395 31.1187 39.9395 30.4822V29.4889H40.2809C42.7507 29.4889 44.76 27.4796 44.76 25.0097C44.76 22.5399 42.7507 20.5305 40.2809 20.5305H39.9395V16.1769L40.2809 16.1778ZM42.4588 25.0105C42.4588 26.2114 41.4817 27.1854 40.284 27.1854H39.9426V22.8318H40.284C41.4816 22.835 42.4588 23.8089 42.4588 25.0105ZM37.635 20.5314H37.2937C36.0928 20.5314 35.1188 19.5543 35.1188 18.3565C35.1188 17.1581 36.0959 16.1817 37.2937 16.1817H37.635V20.5314Z" fill="#D6FF00"/>
<path d="M38.7871 6.84488C30.6063 6.84488 23.9492 13.502 23.9492 21.6828C23.9492 29.8635 30.6063 36.5207 38.7871 36.5207C46.9679 36.5207 53.625 29.8635 53.625 21.6828C53.625 13.502 46.9679 6.84488 38.7871 6.84488ZM38.7871 34.2144C31.8753 34.2144 26.2527 28.5927 26.2527 21.6801C26.2527 14.7683 31.8745 9.14571 38.7871 9.14571C45.6989 9.14571 51.3215 14.7674 51.3215 21.6801C51.3215 28.5927 45.6998 34.2144 38.7871 34.2144Z" fill="#D6FF00"/>
<path d="M87.1713 10.7433H82.9474V6.51941C82.9474 5.8837 82.4317 5.36718 81.7952 5.36718H77.5713V1.15224C77.5713 0.516523 77.0556 0 76.4191 0H1.15224C0.516523 0 0 0.515714 0 1.15224L0.000810864 42.2076C0.000810864 42.8433 0.516525 43.3599 1.15305 43.3599H5.37691V47.5935C5.37691 48.2292 5.89263 48.7457 6.52915 48.7457H10.753V52.9696C10.753 53.6053 11.2687 54.1218 11.9053 54.1218H87.17C87.8057 54.1218 88.3222 53.6061 88.3222 52.9696V11.8955C88.3222 11.2598 87.8065 10.7433 87.17 10.7433H87.1713ZM13.3056 41.0563C12.7526 35.2223 8.13788 30.6084 2.30465 30.0554V13.3094C8.13871 12.7564 12.7526 8.14166 13.3056 2.3051H64.2647C64.8177 8.13917 69.4324 12.7531 75.2657 13.3094V30.0554C69.4316 30.6084 64.8177 35.2231 64.2647 41.0563H13.3056ZM75.2665 32.3591V41.0563H66.5693C67.1044 36.4912 70.7014 32.8934 75.2665 32.3591ZM75.2665 11.0052C70.7014 10.4709 67.1044 6.87313 66.5693 2.30552H75.2665V11.0052ZM11.0015 2.30552C10.4671 6.87064 6.86936 10.4709 2.30423 11.0052V2.30552H11.0015ZM2.30423 32.3591C6.86936 32.8935 10.4663 36.4912 11.0015 41.0563H2.30423V32.3591ZM7.68017 43.3601H76.4186C77.0543 43.3601 77.5708 42.8444 77.5708 42.2078V7.67049H80.6432V46.4404H7.68054L7.68017 43.3601ZM86.0192 51.8207H13.0565V48.7483H81.7949C82.4306 48.7483 82.9472 48.2325 82.9472 47.596V13.0483H86.0196L86.0192 51.8207Z" fill="#D6FF00"/>
</svg>
