<svg width="78" height="63" viewBox="0 0 78 63" fill="none" xmlns="http://www.w3.org/2000/svg">
<path d="M1.59295 12.0604H64.0363C64.915 12.0604 65.627 12.778 65.627 13.6636V48.3379C65.627 49.2235 64.915 49.9411 64.0363 49.9411H36.6012V53.1112L55.3897 59.8739C57.3591 60.5822 56.2907 63.6016 54.32 62.8931L34.7353 55.844H30.8917L11.3053 62.8931C9.33476 63.6015 8.26631 60.5823 10.2357 59.8739L29.0258 53.1112V49.9411H1.5907C0.712008 49.9411 0 49.2235 0 48.3379V13.6636C0 12.778 0.712008 12.0604 1.5907 12.0604H1.59295ZM60.6277 3.20702C58.535 3.20702 58.535 0 60.6277 0C70.2217 0 78 7.84019 78 17.509C78 19.6182 74.818 19.6182 74.818 17.509C74.818 9.60937 68.4652 3.20634 60.6271 3.20634L60.6277 3.20702ZM60.6277 8.45193C58.535 8.45193 58.535 5.24491 60.6277 5.24491C67.3482 5.24491 72.7969 10.7358 72.7969 17.5098C72.7969 19.619 69.6149 19.619 69.6149 17.5098C69.6149 12.5071 65.5909 8.4521 60.6279 8.4521L60.6277 8.45193ZM17.1643 37.9908C15.9654 39.7025 13.3786 37.8619 14.5781 36.1495L21.0189 26.976C21.521 26.259 22.5066 26.0864 23.2187 26.5884L33.1407 33.5998L48.9132 23.5796C50.6758 22.4612 52.3649 25.1663 50.603 26.2848L33.9395 36.8705C33.4159 37.2012 32.7255 37.2058 32.1867 36.8268L22.6923 30.117L17.1643 37.9908ZM33.4198 49.9422H32.2097V52.6387H33.4198V49.9422ZM62.4458 15.2679H3.18419V46.7353H62.4458V15.2679Z" fill="#D6FF00"/>
</svg>
