<svg width="50" height="42" viewBox="0 0 50 42" fill="none" xmlns="http://www.w3.org/2000/svg">
<path d="M38.2475 22.534C36.5023 22.534 34.8601 22.6956 33.3898 22.9836V5.08897C33.3898 2.27966 28.3145 0.0786133 21.835 0.0786133C15.354 0.0786133 10.2779 2.27922 10.2779 5.08897V26.3809C4.70065 26.7525 0.558594 28.794 0.558594 31.3352V35.8285C0.558594 38.6401 5.63528 40.8423 12.1157 40.8423C17.6601 40.8423 22.1734 39.2295 23.3615 37.0026C24.5433 36.9379 25.6633 36.7982 26.6981 36.596C26.7852 39.3725 31.8252 41.5377 38.2485 41.5377C44.7264 41.5377 49.8001 39.3346 49.8001 36.5231V27.548C49.7993 24.7353 44.7252 22.5334 38.2485 22.5334L38.2475 22.534ZM23.6707 31.3353C23.6707 30.0694 22.6402 28.9286 20.9191 28.0551C20.9635 28.0568 21.0092 28.0573 21.0536 28.0581C21.3119 28.0655 21.5723 28.0702 21.8348 28.0702C23.5805 28.0702 25.2232 27.9085 26.6934 27.6205V31.0213C25.7285 31.2209 24.7037 31.3654 23.6707 31.4447L23.6707 31.3353ZM27.7389 29.6641C29.5462 31.3891 33.5222 32.561 38.2471 32.561C42.9711 32.561 46.9458 31.3891 48.7536 29.6646V32.038C48.7536 34.3718 43.2164 35.9989 38.2471 35.9989C33.2769 35.9989 27.7389 34.3718 27.7389 32.038V29.6641ZM38.248 23.579C44.5324 23.579 48.7544 25.6312 48.7544 27.5472C48.7544 29.8853 43.2173 31.5154 38.248 31.5154C33.2778 31.5154 27.7398 29.8852 27.7398 27.5472C27.7389 25.6308 31.9611 23.579 38.248 23.579ZM21.8345 1.12371C26.8056 1.12371 32.3441 2.75214 32.3441 5.0885C32.3441 7.00534 28.121 9.05672 21.8345 9.05672C15.5463 9.05672 11.3224 7.0049 11.3224 5.0885C11.3224 2.75214 16.8626 1.12371 21.8345 1.12371ZM11.3224 7.205C12.4093 8.2419 14.2839 9.07659 16.6298 9.57977C18.1863 9.91304 19.9491 10.1023 21.8345 10.1023C23.7195 10.1023 25.4816 9.91305 27.038 9.57977C29.3834 9.07706 31.2572 8.24239 32.3441 7.20544V9.57977C32.3441 11.4966 28.121 13.5493 21.8345 13.5493C15.5463 13.5493 11.3224 11.4966 11.3224 9.57977V7.205ZM11.3224 11.6966L11.3229 11.697C11.5471 11.9109 11.8045 12.1157 12.0925 12.3114C12.0968 12.3144 12.1007 12.317 12.105 12.3205C12.3904 12.5132 12.7055 12.6969 13.0479 12.8693C13.0582 12.8745 13.0681 12.8797 13.0789 12.8848C13.4182 13.0547 13.7834 13.2142 14.1727 13.3621C14.1908 13.369 14.2098 13.3759 14.2288 13.3828C14.6146 13.5277 15.0234 13.6613 15.4528 13.7833C15.4804 13.7911 15.5084 13.7984 15.5364 13.8062C15.7309 13.8601 15.9288 13.9118 16.1319 13.9605C16.1556 13.9661 16.178 13.9722 16.2017 13.9778C16.4211 14.0299 16.6453 14.0791 16.8743 14.1252C16.9092 14.1325 16.9454 14.139 16.9803 14.1459C17.1774 14.1847 17.3783 14.2205 17.5814 14.2546C17.6258 14.2623 17.6697 14.2697 17.7141 14.277C17.947 14.3145 18.1828 14.349 18.4229 14.38C18.4583 14.3848 18.4949 14.3891 18.5312 14.393C18.7385 14.4193 18.9489 14.4421 19.1611 14.4637C19.2201 14.4693 19.2788 14.4753 19.3383 14.4809C19.5836 14.5033 19.831 14.5236 20.0824 14.5395C20.1091 14.5413 20.1363 14.5421 20.163 14.5439C20.3898 14.5577 20.6192 14.568 20.8503 14.5762C20.9175 14.5784 20.9852 14.5809 21.0525 14.5831C21.3107 14.5904 21.5711 14.5952 21.8337 14.5952C22.0967 14.5952 22.3563 14.59 22.6149 14.5831C22.6822 14.5814 22.7499 14.5788 22.8167 14.5766C23.0482 14.5689 23.2785 14.5577 23.5052 14.5443C23.532 14.5426 23.5587 14.5417 23.5846 14.54C23.8364 14.5245 24.0843 14.5038 24.33 14.4813C24.3887 14.4762 24.4473 14.4706 24.5051 14.4641C24.7172 14.4425 24.9276 14.4197 25.1345 14.3943C25.1712 14.3895 25.2078 14.3852 25.2436 14.3813C25.4833 14.3498 25.7204 14.3154 25.9528 14.2778C25.9964 14.2709 26.0391 14.2632 26.0817 14.2559C26.2878 14.2218 26.4896 14.1847 26.6888 14.1459C26.7228 14.139 26.7569 14.1334 26.7901 14.1261C27.0195 14.08 27.2445 14.0304 27.4648 13.9782C27.4873 13.973 27.5093 13.9674 27.5317 13.9618C27.736 13.9127 27.9352 13.8605 28.1314 13.8062C28.1581 13.7988 28.1849 13.7915 28.2107 13.7842C28.641 13.6626 29.0497 13.5285 29.4369 13.3832C29.4545 13.3763 29.4731 13.3694 29.4912 13.363C29.8809 13.2146 30.2465 13.0556 30.5858 12.8853C30.5962 12.8801 30.6061 12.8749 30.6169 12.8702C30.9597 12.6973 31.2748 12.5136 31.5602 12.3209C31.5645 12.3183 31.5684 12.3153 31.5723 12.3127C31.8603 12.1174 32.1173 11.9117 32.3423 11.6983C32.3423 11.6983 32.3423 11.6979 32.3428 11.6979V14.0727C32.3428 16.4112 26.8038 18.0409 21.8332 18.0409C15.545 18.0409 11.3211 15.9891 11.3211 14.0727L11.3224 11.6966ZM11.3224 16.1882C11.5471 16.4029 11.8057 16.609 12.0955 16.8052C12.0981 16.8069 12.1006 16.8086 12.1032 16.8103C12.3895 17.0039 12.706 17.1876 13.05 17.3613C13.0595 17.3661 13.069 17.3708 13.078 17.3756C13.4178 17.5459 13.7847 17.7058 14.1753 17.8546C14.1925 17.8615 14.2098 17.8675 14.2275 17.8744C14.6142 18.0197 15.0242 18.1533 15.4549 18.2754C15.4816 18.2831 15.5092 18.2904 15.5364 18.2978C15.7313 18.3521 15.93 18.4038 16.134 18.4526C16.1568 18.4582 16.1792 18.4642 16.203 18.4694C16.4228 18.5215 16.6479 18.5707 16.8768 18.6168C16.9109 18.6237 16.9458 18.6297 16.9803 18.6371C17.1782 18.6759 17.3795 18.7125 17.5839 18.7462C17.6279 18.7535 17.671 18.7612 17.7158 18.7681C17.9487 18.8056 18.1845 18.8401 18.4246 18.8712C18.4609 18.8759 18.4975 18.8802 18.5333 18.8841C18.7402 18.9096 18.9498 18.9333 19.1619 18.954C19.221 18.9596 19.28 18.9656 19.3391 18.9712C19.5844 18.9936 19.8314 19.0139 20.0824 19.0298C20.1104 19.0316 20.1397 19.0324 20.1686 19.0346C20.3941 19.0484 20.6217 19.0587 20.852 19.0665C20.9192 19.0686 20.9869 19.0712 21.0542 19.0734C21.3124 19.0807 21.5728 19.0855 21.8354 19.0855C22.0984 19.0855 22.3579 19.0803 22.6166 19.0734C22.6839 19.0717 22.7516 19.0691 22.8188 19.0669C23.0486 19.0592 23.2767 19.0488 23.5026 19.035C23.5306 19.0333 23.5595 19.0324 23.588 19.0303C23.8389 19.0148 24.0868 18.9941 24.3317 18.9716C24.3903 18.9665 24.449 18.9609 24.5072 18.9544C24.7189 18.9337 24.9288 18.9104 25.1358 18.8845C25.1724 18.8798 25.2095 18.8764 25.2462 18.8716C25.4854 18.8406 25.7208 18.8061 25.9532 18.7686C25.9985 18.7612 26.0438 18.7535 26.0886 18.7462C26.2921 18.7121 26.4917 18.6763 26.6875 18.6375C26.7228 18.6306 26.759 18.6246 26.7948 18.6172C27.0229 18.5711 27.2458 18.522 27.4644 18.4702C27.4907 18.4638 27.5157 18.4577 27.5411 18.4513C27.7407 18.403 27.9356 18.3525 28.127 18.2991C28.1572 18.2909 28.187 18.2827 28.2176 18.2745C28.644 18.1538 29.051 18.0205 29.4342 17.8765C29.4558 17.8688 29.476 17.861 29.4976 17.8528C29.8839 17.7058 30.2474 17.5476 30.5836 17.3786C30.5966 17.3717 30.6091 17.3656 30.6224 17.3592C30.9622 17.1871 31.2756 17.0052 31.5597 16.8133C31.5649 16.8099 31.5705 16.8056 31.5761 16.8017C31.8633 16.6068 32.1198 16.4025 32.3431 16.1895C32.3436 16.189 32.344 16.189 32.3449 16.1886V18.5629V18.5634C32.3444 19.5839 31.0627 20.6648 28.9061 21.4412C27.1655 22.0414 24.968 22.4238 22.8015 22.5126C22.4842 22.5243 22.1639 22.5329 21.8349 22.5329C21.3688 22.5329 20.8976 22.5186 20.4268 22.4906C19.8577 22.457 19.2882 22.4035 18.728 22.3311C14.8068 21.8271 11.3227 20.4177 11.3227 18.5621L11.3231 16.1882L11.3224 16.1882ZM11.3224 20.6807C11.3229 20.6811 11.3233 20.6816 11.3242 20.6824C11.5475 20.895 11.8036 21.0993 12.0903 21.2946C12.0959 21.2981 12.1019 21.3024 12.1075 21.3063C12.3912 21.4977 12.7051 21.6805 13.0453 21.8525C13.0578 21.859 13.0703 21.8646 13.0828 21.8715C13.4199 22.0396 13.7825 22.1983 14.1697 22.3458C14.1913 22.354 14.2124 22.3613 14.2339 22.3699C14.4249 22.4415 14.6194 22.5109 14.8207 22.5769C14.8212 22.5769 14.8216 22.5773 14.8224 22.5773C15.0264 22.6437 15.2359 22.7071 15.4502 22.7674C15.4799 22.7765 15.5101 22.7838 15.5407 22.7924C15.7326 22.8459 15.9275 22.8959 16.1271 22.9446C16.1525 22.9511 16.1784 22.9571 16.2038 22.9636C16.4224 23.0158 16.6453 23.0641 16.873 23.1098C16.9096 23.1171 16.9467 23.124 16.9833 23.1313C17.1786 23.1697 17.3774 23.2055 17.5792 23.2391C17.6244 23.2469 17.6701 23.2546 17.7163 23.2619C17.9478 23.299 18.1836 23.3339 18.4225 23.365C18.4596 23.3697 18.4971 23.374 18.5337 23.3779C18.7407 23.4042 18.9498 23.4271 19.161 23.4478C19.2201 23.4542 19.2787 23.4594 19.3382 23.465C19.5836 23.4874 19.8306 23.5077 20.0815 23.5236C20.1095 23.5254 20.1384 23.5267 20.1673 23.5284C20.3932 23.5422 20.6209 23.5525 20.8511 23.5607C20.9184 23.5629 20.9861 23.5655 21.0533 23.5672C21.3116 23.5745 21.572 23.5793 21.8345 23.5793C22.0975 23.5793 22.3571 23.5741 22.6158 23.5672C22.683 23.5655 22.7507 23.5629 22.8175 23.5607C23.0473 23.5525 23.2763 23.5426 23.5022 23.5284C23.5302 23.5267 23.5587 23.5254 23.5867 23.5236C23.838 23.5081 24.0859 23.4874 24.3308 23.465C24.3895 23.4598 24.4472 23.4542 24.5059 23.4482C24.7184 23.4266 24.9288 23.4034 25.1366 23.3775C25.172 23.3728 25.2095 23.3684 25.2448 23.3646C25.4846 23.3331 25.7204 23.2986 25.9532 23.2615C25.9976 23.2542 26.0416 23.2469 26.0864 23.2391C26.2899 23.2055 26.49 23.1684 26.6874 23.1304C26.7224 23.1231 26.7582 23.1167 26.7931 23.1102C27.0216 23.0636 27.2458 23.0145 27.4652 22.9627C27.4889 22.9571 27.5122 22.9511 27.5359 22.9455C27.7377 22.8968 27.9352 22.8455 28.1292 22.792C28.1581 22.7838 28.1865 22.7765 28.2158 22.7679C28.6435 22.6467 29.0505 22.5135 29.4347 22.3691C29.4549 22.3613 29.4756 22.354 29.4959 22.3462C29.8831 22.1988 30.247 22.0401 30.5845 21.8711C30.5962 21.8646 30.6087 21.8594 30.6208 21.8534C30.9609 21.681 31.2752 21.4986 31.5589 21.3067C31.5645 21.3024 31.5697 21.299 31.5753 21.2959C31.8624 21.1011 32.1185 20.8967 32.3423 20.6837C32.3423 20.6833 32.3432 20.6829 32.344 20.682V23.0572C32.344 23.112 32.3285 23.168 32.3203 23.2236C29.5839 23.9204 27.6019 25.0927 26.9371 26.499C25.4596 26.8271 23.7368 27.0259 21.8342 27.0259C16.8622 27.0259 11.3221 25.3957 11.3221 23.0577L11.3224 20.6807ZM11.3224 25.1723C11.5479 25.387 11.8066 25.5935 12.0959 25.7901C12.0981 25.791 12.0994 25.7927 12.1015 25.7944C12.383 25.9846 12.693 26.1661 13.0302 26.3364C12.7275 26.3265 12.4227 26.32 12.114 26.32C11.8467 26.32 11.5833 26.3252 11.3216 26.3321L11.322 25.1723L11.3224 25.1723ZM12.1149 27.3655C18.3091 27.3655 22.6249 29.4574 22.6249 31.335C22.6249 33.2523 18.4014 35.3055 12.1149 35.3055C5.82707 35.3055 1.60323 33.2523 1.60323 31.335C1.60366 28.9948 7.14293 27.3655 12.1149 27.3655ZM12.1149 39.7956C7.14293 39.7956 1.60323 38.1654 1.60323 35.8274V33.4519C3.41146 35.1778 7.38785 36.3505 12.1149 36.3505C16.8406 36.3505 20.8175 35.1782 22.6249 33.4519V35.8274C22.6249 38.1656 17.0859 39.7956 12.1149 39.7956ZM23.6709 35.8274V32.4999C24.7375 32.4288 25.7507 32.296 26.6936 32.111V35.5054C25.7266 35.705 24.7004 35.849 23.6652 35.9284C23.6665 35.8943 23.6708 35.8615 23.6708 35.8275L23.6709 35.8274ZM48.7541 36.5216C48.7541 38.8605 43.2169 40.4911 38.2476 40.4911C31.9616 40.4911 27.7394 38.438 27.7394 36.5216V34.1515C29.5468 35.8739 33.5227 37.0441 38.2476 37.0441C42.9717 37.0441 46.9463 35.8739 48.7541 34.152V36.5216Z" fill="#D6FF00"/>
</svg>
