<svg width="55" height="74" viewBox="0 0 55 74" fill="none" xmlns="http://www.w3.org/2000/svg">
<path d="M4.29708 0C1.93169 0 0 1.89018 0 4.20473V69.7953C0 72.1098 1.93169 74 4.29708 74H50.7029C53.0683 74 55 72.1098 55 69.7953V4.20473C55 1.89018 53.0683 0 50.7029 0H4.29708ZM4.29708 1.68202H50.7029C52.1461 1.68202 53.281 2.79249 53.281 4.20467V69.7952C53.281 71.2074 52.1461 72.3179 50.7029 72.3179H4.29708C2.85387 72.3179 1.71901 71.2074 1.71901 69.7952V4.20467C1.71901 2.79249 2.85387 1.68202 4.29708 1.68202ZM27.5009 6.72733C16.1204 6.72733 6.87568 15.7726 6.87568 26.9093C6.87568 37.8579 15.8206 46.7681 26.9366 47.0647C27.1258 47.082 27.3073 47.091 27.5008 47.091C27.6943 47.091 27.8751 47.0827 28.065 47.0647C39.1819 46.7671 48.1259 37.8576 48.1259 26.9093C48.1259 15.7734 38.882 6.72733 27.5007 6.72733H27.5009ZM26.6418 8.54044V15.9774H20.6259C20.9215 15.1263 21.2362 14.3148 21.5927 13.5858C23.0104 10.6851 24.8052 8.96003 26.6418 8.54044H26.6418ZM28.3607 8.54044C30.1973 8.96008 31.9922 10.6851 33.4098 13.5858C33.7663 14.3148 34.0811 15.1263 34.3767 15.9774H28.3608L28.3607 8.54044ZM22.6673 9.03984C21.67 10.0567 20.7768 11.3336 20.0353 12.8506C19.5675 13.807 19.1351 14.8558 18.7729 15.9773H12.2473C14.7687 12.6153 18.427 10.1322 22.6673 9.03984ZM32.3352 9.03984C36.5754 10.1323 40.2338 12.6155 42.7552 15.9773H36.2296C35.8674 14.8557 35.435 13.8069 34.9671 12.8506C34.2257 11.3343 33.3325 10.0575 32.3352 9.03984ZM11.1456 17.6594H18.2893C17.6343 20.1987 17.2771 23.0529 17.2154 26.0686H8.62142C8.76177 23.0085 9.66909 20.1549 11.1456 17.6594ZM20.1154 17.6594H26.641V26.0686H18.9337C19.0003 23.0174 19.4313 20.1508 20.1153 17.6594H20.1154ZM28.36 17.6594H34.8857C35.5697 20.1501 36 23.0175 36.0673 26.0686H28.36L28.36 17.6594ZM36.7123 17.6594H43.856C45.3332 20.1543 46.2399 23.0078 46.3801 26.0686H37.7862C37.7238 23.0529 37.3672 20.1992 36.7123 17.6594ZM8.6216 27.75H17.2156C17.2772 30.7686 17.6338 33.6235 18.2895 36.1593H11.1187C9.64858 33.665 8.75752 30.8066 8.62142 27.75H8.6216ZM18.9339 27.75H26.6412V36.1593H20.1156C19.4308 33.6719 18.9998 30.8039 18.9339 27.75H18.9339ZM28.36 27.75H36.0673C36.0014 30.8039 35.5704 33.6721 34.8857 36.1593H28.3601L28.36 27.75ZM37.7862 27.75H46.3801C46.2433 30.8068 45.3523 33.665 43.8828 36.1593H36.7121C37.3678 33.6235 37.725 30.7686 37.786 27.75H37.7862ZM12.2469 37.8406H18.7725C19.1348 38.9594 19.5671 39.9853 20.035 40.9418C20.7828 42.4719 21.6859 43.7787 22.6938 44.8045C18.4357 43.7135 14.7732 41.2179 12.2469 37.8406ZM20.6262 37.8406H26.6421V45.3038C24.8055 44.8794 23.0114 43.1065 21.593 40.2058C21.2365 39.4768 20.9218 38.6895 20.6262 37.8406H20.6262ZM28.3604 37.8406H34.3763C34.0807 38.6896 33.766 39.4768 33.4094 40.2058C31.9917 43.1065 30.1977 44.8793 28.3604 45.3038L28.3604 37.8406ZM36.2292 37.8406H42.7549C40.2285 41.2179 36.5666 43.7134 32.308 44.8045C33.3159 43.7787 34.219 42.4712 34.9668 40.9418C35.4346 39.9853 35.867 38.9602 36.2292 37.8406ZM10.3143 54.6586C9.83938 54.6586 9.45518 55.0353 9.45518 55.4993C9.45518 55.964 9.84008 56.34 10.3143 56.34H44.6891C45.164 56.34 45.5482 55.9633 45.5482 55.4993C45.5482 55.0346 45.1633 54.6586 44.6891 54.6586H10.3143ZM10.3143 63.0679C9.83938 63.0679 9.45518 63.4446 9.45518 63.9086C9.45518 64.3733 9.84008 64.7492 10.3143 64.7492H44.6891C45.164 64.7492 45.5482 64.3726 45.5482 63.9086C45.5482 63.4439 45.1633 63.0679 44.6891 63.0679H10.3143Z" fill="#D6FF00"/>
</svg>
