<svg width="102" height="91" viewBox="0 0 102 91" fill="none" xmlns="http://www.w3.org/2000/svg">
<path d="M102 51.2649C102 66.2667 95.4894 80.4679 84.135 90.2311C83.5352 90.7478 82.7976 91 82.0644 91C81.1651 91 80.2719 90.62 79.6412 89.8785C78.4963 88.5342 78.6535 86.5116 79.9919 85.3616C89.1148 77.5174 94.6616 66.3968 95.5078 54.4674H91.142C89.3814 54.4674 87.9546 53.0333 87.9546 51.2636C87.9546 49.4939 89.3813 48.0598 91.142 48.0598H95.5094C94.8062 38.0981 90.8548 29.0251 84.7134 21.9074L81.6383 24.9984C81.0155 25.6244 80.2001 25.937 79.3847 25.937C78.5694 25.937 77.754 25.6244 77.1312 24.9984C75.8865 23.7473 75.8865 21.7183 77.1312 20.4671L80.2064 17.3761C73.1267 11.2032 64.0993 7.23135 54.1878 6.52463V10.9145C54.1878 12.6842 52.7611 14.1183 51.0004 14.1183C49.2398 14.1183 47.8131 12.6842 47.8131 10.9145V6.52463C37.9023 7.23144 28.8757 11.2032 21.7945 17.3761L24.8697 20.4671C26.1144 21.7183 26.1144 23.7473 24.8697 24.9984C24.2469 25.6244 23.4315 25.937 22.6161 25.937C21.8008 25.937 20.9854 25.6244 20.3626 24.9984L17.2874 21.9074C11.1461 29.0235 7.19456 38.0974 6.49146 48.0598H10.8589C12.6195 48.0598 14.0462 49.4939 14.0462 51.2636C14.0462 53.0333 12.6195 54.4674 10.8589 54.4674H6.49214C7.33932 66.3952 12.8861 77.5147 22.0081 85.3593C23.3455 86.5101 23.5028 88.5319 22.3588 89.8763C21.2139 91.2206 19.2024 91.3787 17.865 90.2288C6.51064 80.4668 0 66.2631 0 51.2627C0 37.5697 5.3048 24.6965 14.9374 15.0152C24.5692 5.3321 37.3767 0 50.9993 0C64.6219 0 77.4295 5.3321 87.0612 15.0152C96.6939 24.6974 101.999 37.5709 101.999 51.2627L102 51.2649ZM71.7208 30.4364C72.9655 31.6875 72.9655 33.7165 71.7208 34.9677L61.9054 44.8326C63.0123 46.7213 63.6501 48.919 63.6501 51.2649C63.6501 58.2771 57.9751 63.9811 50.999 63.9811C44.023 63.9811 38.348 58.2769 38.348 51.2649C38.348 44.253 44.0239 38.5479 50.999 38.5479C53.3329 38.5479 55.5193 39.189 57.3984 40.3007L67.2138 30.4348C68.4576 29.1846 70.4762 29.1846 71.7209 30.4366L71.7208 30.4364ZM57.2754 51.2649C57.2754 47.7868 54.4592 44.9561 50.9988 44.9561C47.5385 44.9561 44.7223 47.7868 44.7223 51.2649C44.7223 54.7431 47.5385 57.5738 50.9988 57.5738C54.4601 57.572 57.2754 54.7421 57.2754 51.2649ZM64.0289 78.338H37.9697C36.209 78.338 34.7823 79.772 34.7823 81.5418C34.7823 83.3114 36.209 84.7455 37.9697 84.7455H64.0267C65.7873 84.7455 67.214 83.3115 67.214 81.5418C67.214 79.773 65.7873 78.338 64.0285 78.338H64.0289Z" fill="#D6FF00"/>
</svg>
