<svg width="40" height="38" viewBox="0 0 40 38" fill="none" xmlns="http://www.w3.org/2000/svg">
<path d="M15.9453 29.5426L21.3496 31.4592V11.879C21.3503 11.7526 21.382 11.6282 21.4421 11.5164C21.5021 11.4045 21.5888 11.3084 21.6948 11.2361C21.8008 11.1639 21.923 11.1176 22.0511 11.1012C22.1792 11.0848 22.3094 11.0988 22.4308 11.1419V11.1419C22.7471 11.2537 23.0204 11.458 23.2137 11.7272C23.407 11.9963 23.5109 12.3171 23.5112 12.6461V20.7258C24.1304 20.9356 24.7922 20.9961 25.4404 20.9022C26.0887 20.8083 26.7041 20.5628 27.2346 20.1864C27.7651 19.8101 28.1949 19.314 28.4875 18.7405C28.7802 18.1669 28.927 17.5327 28.9155 16.8918C28.9136 15.2039 28.3802 13.5576 27.3878 12.1768C26.3955 10.796 24.9925 9.74771 23.3696 9.17462L15.9453 6.54153V29.5426Z" stroke="white" stroke-linecap="round" stroke-linejoin="round"/>
<path d="M13.7795 21.0457L5.46018 23.959C5.19508 24.0524 4.95144 24.1961 4.74323 24.3818C4.53502 24.5675 4.36634 24.7916 4.24686 25.0412C4.12739 25.2909 4.05948 25.5611 4.04702 25.8365C4.03456 26.1119 4.07779 26.3869 4.17425 26.6459C4.48904 27.2693 5.00457 27.7741 5.64146 28.0828C8.35195 29.3142 11.4469 29.4613 14.2667 28.4929C14.3468 28.4691 15.8658 27.9807 15.9451 27.9545V24.8884L11.2635 26.5018C10.5355 26.7574 9.74082 26.766 9.00722 26.5264C8.78952 26.4496 8.44477 26.0292 9.1019 25.7347L13.7795 24.1134V21.0457ZM21.3494 23.047C21.555 22.9781 23.1525 22.4374 23.3596 22.3772C26.9011 21.3432 30.6929 21.4851 34.1432 22.781C34.4244 22.8879 34.6814 23.0481 34.8992 23.2523C35.117 23.4566 35.2914 23.701 35.4125 23.9713C35.5336 24.2417 35.5988 24.5328 35.6046 24.828C35.6104 25.1231 35.5565 25.4164 35.4461 25.6912C35.3196 25.9949 35.1282 26.2686 34.8848 26.4942C34.6414 26.7197 34.3516 26.8918 34.0347 26.999L21.3494 31.46V28.3923L30.8389 25.0657C30.9605 25.0229 31.0655 24.9444 31.1398 24.8409C31.2141 24.7375 31.2539 24.6142 31.2539 24.4878C31.2539 24.3614 31.2141 24.2381 31.1398 24.1347C31.0655 24.0313 30.9605 23.9528 30.8389 23.9099C29.7907 23.5402 28.6431 23.5421 27.5962 23.9154L21.3494 26.1139V23.047Z" stroke="white" stroke-linecap="round" stroke-linejoin="round"/>
</svg>
