<svg width="43" height="49" viewBox="0 0 43 49" fill="none" xmlns="http://www.w3.org/2000/svg">
<path d="M38.2274 44.3628C37.3388 44.3628 36.5024 44.6241 35.7707 45.1471C35.0391 43.4743 33.3662 42.2722 31.4321 42.2722C30.8569 42.2722 30.23 42.3766 29.7071 42.5857C29.1845 40.5472 27.3026 39.1356 25.1594 39.1356C25.0025 39.1356 24.7934 39.1356 24.6369 39.1878L24.6373 37.045H25.6828C25.9962 37.045 26.2054 36.8359 26.2054 36.5225V33.9089H28.6098L33.6801 39.5017C33.7844 39.606 33.9414 39.6586 34.0461 39.6586C34.0983 39.6586 34.1505 39.6586 34.2552 39.6064C34.4643 39.5543 34.5687 39.3452 34.5687 39.1361V26.068C34.5687 25.9636 34.5165 25.8067 34.4117 25.7019L29.3415 20.1091V19.534C29.3415 12.4779 26.6757 5.78714 21.8667 0.61288C21.6576 0.40378 21.2916 0.40378 21.0825 0.61288C16.3261 5.78791 13.6604 12.4779 13.6604 19.5351V20.1103L8.59007 25.703C8.4853 25.8074 8.43313 25.9643 8.43313 26.0687V39.1356C8.43313 39.3447 8.59007 39.5538 8.74657 39.606C8.79874 39.606 8.8509 39.6582 8.95567 39.6582C9.11261 39.6582 9.21694 39.606 9.32171 39.5012L14.392 33.9089H16.7965V36.5225C16.7965 36.8359 17.0056 37.0451 17.319 37.0451H18.3645V39.1883C18.2076 39.1883 17.9985 39.1361 17.842 39.1361C15.6988 39.1361 13.8695 40.5999 13.2943 42.5861C12.7718 42.3766 12.1444 42.2722 11.5693 42.2722C9.63524 42.2722 7.96277 43.4743 7.23067 45.1471C6.49902 44.6246 5.66261 44.3629 4.774 44.3629C2.68344 44.3629 0.905783 45.8787 0.644531 47.9694C0.644531 48.1263 0.644532 48.2828 0.748868 48.3876C0.853204 48.4919 1.01014 48.5445 1.16708 48.5445H41.8338C41.9907 48.5445 42.1472 48.4924 42.252 48.3876C42.3563 48.2833 42.4089 48.1263 42.3563 47.9694C42.0959 45.8788 40.3187 44.3629 38.2277 44.3629L38.2274 44.3628ZM33.5232 26.2772V37.7769L29.3415 33.1771V21.6774L33.5232 26.2772ZM9.47858 26.2772L13.6603 21.6774V33.1771L9.47858 37.7769V26.2772ZM14.7057 20.3184V19.5342C14.7057 12.9481 17.1102 6.62395 21.5009 1.76204C25.8916 6.67538 28.2961 12.9483 28.2961 19.5342L28.2956 20.3184V32.8634H14.7055L14.7057 20.3184ZM17.8418 33.9086H25.1596V35.9992H17.8418V33.9086ZM19.4099 37.0447H23.5916V39.397C22.7551 39.7104 22.0757 40.1812 21.501 40.8607C20.9259 40.1813 20.2464 39.6587 19.4104 39.397L19.4099 37.0447ZM1.79446 47.4991C2.21267 46.297 3.41472 45.4085 4.77363 45.4085C5.66221 45.4085 6.49864 45.7745 7.07334 46.454C7.23028 46.611 7.38678 46.6631 7.59589 46.611C7.80499 46.5588 7.90933 46.4019 7.96193 46.1928C8.32797 44.52 9.84389 43.3179 11.5163 43.3179C12.1436 43.3179 12.8231 43.4748 13.3456 43.8404C13.5025 43.9448 13.7116 43.9448 13.8681 43.8404C14.025 43.7361 14.1294 43.6313 14.1294 43.4222C14.3385 41.5929 15.9066 40.1814 17.7884 40.1814C19.0953 40.1814 20.3499 40.913 20.9768 42.0633C21.1859 42.3768 21.7084 42.3768 21.9175 42.0633C22.5448 40.9135 23.7995 40.1814 25.1058 40.1814C26.9878 40.1814 28.5559 41.5925 28.7649 43.4222C28.7649 43.5792 28.8692 43.7357 29.0262 43.8404C29.1831 43.9448 29.3922 43.8926 29.5487 43.8404C30.1239 43.527 30.7508 43.3179 31.378 43.3179C33.1031 43.3179 34.6189 44.52 34.9324 46.1928C34.9845 46.4019 35.1415 46.5588 35.2984 46.611C35.5075 46.6631 35.6644 46.611 35.8209 46.454C36.4483 45.7746 37.2321 45.4085 38.1207 45.4085C39.4796 45.4085 40.6294 46.2971 41.0998 47.4991H1.79446Z" fill="#FFA73C"/>
<path d="M21.5006 25.0236C24.3754 25.0236 26.7277 22.6713 26.7277 19.7965C26.7277 16.9216 24.3754 14.5693 21.5006 14.5693C18.6257 14.5693 16.2734 16.9216 16.2734 19.7965C16.2739 22.6713 18.6257 25.0236 21.5006 25.0236ZM21.5006 15.6148C23.8003 15.6148 25.6822 17.4967 25.6822 19.7965C25.6822 22.0962 23.8003 23.9781 21.5006 23.9781C19.2008 23.9781 17.3189 22.0962 17.3189 19.7965C17.3189 17.4967 19.2008 15.6148 21.5006 15.6148Z" fill="#FFA73C"/>
</svg>
