<svg width="76" height="77" viewBox="0 0 76 77" fill="none" xmlns="http://www.w3.org/2000/svg">
<path d="M51.8611 5.70677H40.4698V1.76697C40.4698 1.34523 40.1246 1.00063 39.7035 1.00063L17.0132 1C16.5915 1 16.2469 1.34522 16.2469 1.76633V5.70678H4.85563C2.73245 5.70678 1 7.43922 1 9.56241V72.1444C1 74.2676 2.73245 76 4.85563 76H51.8694C54.0002 76 55.725 74.2676 55.725 72.1444L55.7257 9.56241C55.7257 7.43162 53.9932 5.70678 51.8624 5.70678L51.8611 5.70677ZM17.7804 2.5334H38.9297V10.406H17.7804V2.5334ZM54.192 72.1452C54.192 73.4255 53.1493 74.4676 51.8695 74.4676L4.85576 74.4682C3.57537 74.4682 2.53332 73.4256 2.53332 72.1458V9.56222C2.53332 8.28183 3.57596 7.23978 4.85576 7.23978H16.2546V11.1802C16.2546 11.602 16.5999 11.9466 17.021 11.9466H39.7032C40.1249 11.9466 40.4695 11.6013 40.4695 11.1802L40.4701 7.23978H51.869C53.1494 7.23978 54.1914 8.28241 54.1914 9.56222L54.192 72.1452Z" fill="#D6FF00" stroke="#D6FF00"/>
<path d="M16.5059 18.1105L10.2817 24.749L7.34596 21.6217C7.05447 21.3151 6.57205 21.2999 6.26538 21.5832C5.95872 21.8747 5.94354 22.3571 6.22681 22.6637L9.72213 26.3892C9.86755 26.5422 10.0674 26.6346 10.2817 26.6346C10.496 26.6346 10.6958 26.5505 10.8413 26.3892L17.625 19.1527C17.9165 18.8461 17.9007 18.3554 17.5865 18.0721C17.2804 17.7889 16.7974 17.8041 16.5059 18.1107L16.5059 18.1105Z" fill="#D6FF00" stroke="#D6FF00"/>
<path d="M16.5059 32.5748L10.2817 39.2132L7.34596 36.086C7.05447 35.7793 6.57205 35.7641 6.26538 36.0474C5.95872 36.3389 5.94354 36.8213 6.22681 37.128L9.72213 40.8535C9.86755 41.0065 10.0674 41.0988 10.2817 41.0988C10.496 41.0988 10.6958 41.0147 10.8413 40.8535L17.625 33.6246C17.9165 33.3179 17.9007 32.8273 17.5865 32.544C17.2804 32.2531 16.7974 32.2683 16.5059 32.575L16.5059 32.5748Z" fill="#D6FF00" stroke="#D6FF00"/>
<path d="M16.5059 47.0407L10.2817 53.6791L7.34596 50.5519C7.05447 50.2453 6.57205 50.2301 6.26538 50.5133C5.95872 50.8048 5.94354 51.2873 6.22681 51.5939L9.72213 55.3194C9.86755 55.4724 10.0674 55.5647 10.2817 55.5647C10.496 55.5647 10.6958 55.4806 10.8413 55.3194L17.625 48.0829C17.9165 47.7762 17.9007 47.2856 17.5865 47.0023C17.2804 46.7191 16.7974 46.7342 16.5059 47.0409L16.5059 47.0407Z" fill="#D6FF00" stroke="#D6FF00"/>
<path d="M46.6631 20.9382H21.9949C21.5731 20.9382 21.2285 21.2835 21.2285 21.7046C21.2285 22.1263 21.5737 22.4709 21.9949 22.4709H46.655C47.0768 22.4709 47.4214 22.1257 47.4214 21.7046C47.4214 21.2835 47.0844 20.9382 46.6626 20.9382H46.6631Z" fill="#D6FF00" stroke="#D6FF00"/>
<path d="M46.6631 33.9086H21.9949C21.5731 33.9086 21.2285 34.2538 21.2285 34.6749C21.2285 35.0966 21.5737 35.4412 21.9949 35.4412H46.655C47.0768 35.4412 47.4214 35.096 47.4214 34.6749C47.4214 34.2538 47.0844 33.9086 46.6626 33.9086H46.6631Z" fill="#D6FF00" stroke="#D6FF00"/>
<path d="M46.6631 46.887H21.9949C21.5731 46.887 21.2285 47.2322 21.2285 47.6533C21.2285 48.075 21.5737 48.4196 21.9949 48.4196H46.655C47.0768 48.4196 47.4214 48.0744 47.4214 47.6533C47.4214 47.2316 47.0844 46.887 46.6626 46.887H46.6631Z" fill="#D6FF00" stroke="#D6FF00"/>
<path d="M74.0218 19.5819H69.4992V12.7899C69.4992 12.3682 69.1539 12.0236 68.7328 12.0236H61.1745C60.7528 12.0236 60.4082 12.3688 60.4082 12.7899V69.0704C60.4082 69.2159 60.4468 69.3619 60.5309 69.4846L64.1184 75.1492C64.2563 75.3636 64.494 75.502 64.7469 75.502H64.7621C65.015 75.502 65.2452 75.3794 65.3906 75.1726L69.3537 69.508C69.4454 69.3777 69.4915 69.2241 69.4915 69.0711V21.1153H73.248V40.3707C73.248 40.7925 73.5932 41.1371 74.0143 41.1371C74.436 41.1371 74.7806 40.7919 74.7806 40.3707V20.348C74.7888 19.9263 74.4512 19.581 74.0219 19.581L74.0218 19.5819ZM67.9741 13.5644V19.5895H61.949V13.5644H67.9741ZM67.9741 68.8414L64.8082 73.3641L61.9566 68.8564V21.1143H67.9817V68.8403L67.9741 68.8414Z" fill="#D6FF00" stroke="#D6FF00"/>
</svg>
