<svg width="21" height="16" viewBox="0 0 21 16" fill="none" xmlns="http://www.w3.org/2000/svg">
<path d="M16.579 4.27341e-06H4.42102C1.98942 4.27341e-06 0 1.98943 0 4.42102V13.7051C0 14.6335 0.751594 15.3631 1.65797 15.3631L19.342 15.3632C20.2705 15.3632 21 14.6116 21 13.7053V4.4212C21 1.98942 19.0106 0 16.5788 0L16.579 4.27341e-06ZM4.42102 1.43677H16.557C18.1929 1.43677 19.5413 2.78513 19.5413 4.42102V4.84093L1.43714 4.84111V4.4212C1.43714 2.78531 2.78569 1.43677 4.42139 1.43677L4.42102 1.43677ZM7.49367 6.30005V10.1463C7.49367 10.5442 7.82534 10.8758 8.22319 10.8758H12.777C13.1748 10.8758 13.5065 10.5442 13.5065 10.1463V6.30005H16.2918V13.9266H4.95159V6.30005H7.49367ZM8.93062 6.30005H12.0474V9.41682L8.93062 9.417V6.30005ZM1.43663 13.7054V6.30005H3.49242V13.9266H1.65778C1.54711 13.9487 1.43661 13.8382 1.43661 13.7056L1.43663 13.7054ZM19.3419 13.9484H17.7283V6.29991H19.563V13.7052C19.563 13.838 19.4525 13.9484 19.342 13.9484L19.3419 13.9484Z" fill="#FFA73C"/>
</svg>
