<svg width="39" height="49" viewBox="0 0 39 49" fill="none" xmlns="http://www.w3.org/2000/svg">
<path d="M30.2065 0.81641C29.9258 0.815548 29.6646 0.959122 29.5141 1.19625L21.7186 13.4586V13.4582C21.5582 13.7104 21.5483 14.0299 21.6923 14.2912C21.8367 14.5529 22.1122 14.715 22.411 14.7137H25.7338V47.3717C25.7355 47.8227 26.1024 48.187 26.5534 48.1853H33.8483C34.2993 48.187 34.6662 47.8227 34.6679 47.3717V14.7137H37.9907C38.2886 14.7132 38.5624 14.5507 38.7055 14.2894C38.8487 14.0281 38.8383 13.7095 38.6784 13.4582L30.8876 1.19582V1.19625C30.7393 0.962135 30.4832 0.819423 30.2064 0.81641H30.2065ZM30.2 3.14847L36.5073 13.0786H33.848C33.397 13.0803 33.0331 13.4472 33.0348 13.8986V46.5512H27.3674V13.8986H27.367C27.3687 13.4472 27.0044 13.0803 26.5534 13.0786H23.8946L30.2 3.14847ZM13.7667 22.8389C13.317 22.8398 12.9527 23.2045 12.9514 23.6542V47.371C12.9536 47.8202 13.3175 48.1837 13.7667 48.1846H21.0676C21.5164 48.1828 21.8795 47.8198 21.8812 47.371V23.6542C21.8803 23.2049 21.5169 22.8406 21.0676 22.8389H13.7667ZM14.5867 24.4737H20.2481V46.5504H14.5867V24.4737ZM1.01535 32.6969H1.01492C0.79719 32.6961 0.58852 32.7823 0.434606 32.9362C0.280261 33.0901 0.194458 33.2992 0.195319 33.5169V47.3709C0.197043 47.8219 0.56394 48.1862 1.01492 48.1845H8.31627C8.76466 48.1827 9.12769 47.8197 9.12984 47.3709V33.5169C9.13157 33.066 8.76724 32.6986 8.31627 32.6969H1.01535ZM1.82892 34.3305H7.49676V46.551L1.82892 46.5505V34.3305Z" fill="#D6FF00"/>
</svg>
