<svg width="59" height="56" viewBox="0 0 59 56" fill="none" xmlns="http://www.w3.org/2000/svg">
<path d="M1.84537 11.0702H16.7847C17.3524 13.8709 19.1869 16.25 21.7515 17.5108C24.3159 18.7717 27.32 18.7717 29.8846 17.5108C32.4492 16.2499 34.2836 13.8709 34.8508 11.0702H57.1387C58.1557 11.0702 58.9809 10.2456 58.9809 9.22852C58.9809 8.21094 58.1558 7.38634 57.1387 7.38634H34.8508C34.2836 4.58561 32.449 2.20651 29.8846 0.94567C27.3201 -0.315223 24.3161 -0.315223 21.7515 0.94567C19.187 2.20656 17.3525 4.58561 16.7847 7.38634H1.84537C0.826168 7.38634 0 8.21252 0 9.23171C0 10.2509 0.826182 11.0765 1.84537 11.0765V11.0702ZM25.8178 3.69573C27.2853 3.69573 28.6921 4.27859 29.7297 5.31618C30.7673 6.35376 31.3501 7.76117 31.3501 9.22866C31.3501 10.6956 30.7673 12.103 29.7297 13.1406C28.6921 14.1782 27.2853 14.761 25.8178 14.761C24.3503 14.761 22.9428 14.1782 21.9053 13.1406C20.8682 12.103 20.2848 10.6956 20.2848 9.22866C20.287 7.76172 20.8704 6.35541 21.9075 5.31839C22.9445 4.28135 24.3508 3.69739 25.8178 3.69573V3.69573Z" fill="#FFA73C"/>
<path d="M57.1571 44.2514H25.6272C25.06 41.4507 23.2254 39.0716 20.6609 37.8107C18.0965 36.5498 15.0924 36.5498 12.5278 37.8107C9.96323 39.0716 8.1288 41.4507 7.56101 44.2514H1.84537C0.826168 44.2514 0 45.0776 0 46.0968C0 47.116 0.826182 47.9421 1.84537 47.9421H7.56156H7.56102C8.12875 50.7428 9.96324 53.122 12.5278 54.3828C15.0924 55.6436 18.0963 55.6437 20.6609 54.3828C23.2254 53.1219 25.0599 50.7428 25.6272 47.9421H57.1571C58.1747 47.9421 58.9993 47.1176 58.9993 46.0999C58.9993 45.0829 58.1747 44.2583 57.1571 44.2583L57.1571 44.2514ZM16.5941 51.6264C15.1266 51.6264 13.7192 51.043 12.6816 50.0059C11.6446 48.9683 11.0612 47.5609 11.0612 46.0934C11.0612 44.6259 11.6446 43.2191 12.6816 42.1815C13.7192 41.1439 15.1266 40.5611 16.5941 40.5611C18.0616 40.5611 19.4684 41.1439 20.506 42.1815C21.5436 43.2191 22.1265 44.6259 22.1265 46.0934C22.1248 47.5604 21.5414 48.9667 20.5044 50.0037C19.4668 51.0408 18.061 51.6241 16.5941 51.6264Z" fill="#FFA73C"/>
<path d="M57.1578 25.8199H53.2838C52.7166 23.0191 50.882 20.64 48.3175 19.3792C45.7531 18.1183 42.7485 18.1183 40.1844 19.3792C37.62 20.6401 35.7854 23.0191 35.2176 25.8199H1.84537C0.826168 25.8199 0 26.6461 0 27.6647C0 28.6839 0.826181 29.5101 1.84537 29.5101H35.2176C35.7854 32.3108 37.6198 34.6899 40.1844 35.9507C42.7483 37.2116 45.7529 37.2116 48.3175 35.9507C50.8821 34.6898 52.7165 32.3108 53.2838 29.5101H57.1578C58.1754 29.5101 59 28.6855 59 27.6679C59 26.6508 58.1754 25.8262 57.1578 25.8262V25.8199ZM44.251 33.1943C42.7835 33.1943 41.3761 32.6114 40.3385 31.5738C39.3009 30.5363 38.718 29.1289 38.718 27.6614C38.718 26.1944 39.3009 24.787 40.3385 23.7494C41.3761 22.7118 42.7835 22.129 44.251 22.129C45.7179 22.129 47.1253 22.7118 48.1629 23.7494C49.2005 24.787 49.7834 26.1944 49.7834 27.6614C49.7817 29.1283 49.1983 30.5346 48.1607 31.5716C47.1236 32.6087 45.7174 33.1926 44.251 33.1943V33.1943Z" fill="#FFA73C"/>
</svg>
