<svg width="91" height="73" viewBox="0 0 91 73" fill="none" xmlns="http://www.w3.org/2000/svg">
<path d="M0.063404 1.31132C2.83689 7.65058 9.07444 20.8043 15.2585 24.6276V26.3132C11.1164 27.6902 8.36739 29.8206 8.36739 29.8206C8.13455 30.0006 7.99822 30.2791 7.99746 30.5737V72.0463C7.99746 72.7795 8.78866 73.238 9.42054 72.8703C28.5432 62.4222 39.273 61.4059 49.4787 61.4059C59.6854 61.4059 72.8607 63.163 89.5762 72.8703C90.2081 73.238 90.9992 72.7803 91 72.0463V30.5737C91 30.2783 90.8637 30.0006 90.6316 29.8206C90.6316 29.8206 87.8812 27.6904 83.7392 26.3132V20.4017C83.7392 20.114 83.6089 19.8416 83.3861 19.6608C83.3861 19.6608 81.3718 18.0637 77.9671 17.8006V13.0801C77.9671 12.6577 77.6898 12.2854 77.287 12.1661C77.287 12.1661 70.5116 10.1575 63.2592 10.1575C56.7995 10.1575 50.7509 11.7423 49.4994 12.0908C48.2494 11.743 42.2001 10.1575 35.7396 10.1575C31.0008 10.2875 26.158 10.806 21.6106 12.2024C16.3801 6.99633 7.71374 2.85281 1.30697 0.0687962C0.308204 -0.255079 -0.186571 0.63271 0.0646606 1.31124L0.063404 1.31132ZM2.93415 2.9615C3.95819 3.41847 4.88723 3.80082 6.67036 4.70168L8.24663 7.45891C8.50016 7.93049 9.07229 8.09821 9.55406 7.83279C10.0358 7.56737 10.2066 6.92115 9.80374 6.35955C11.2092 7.13425 12.6576 7.97819 14.0631 8.86901L14.8581 11.8517C14.9845 12.371 15.5107 12.6857 16.0254 12.5472C16.5401 12.4087 16.8395 11.8717 16.6894 11.3586L16.4497 10.4623C17.8682 11.4917 19.5073 12.6864 20.7741 14.0497L20.781 17.133C20.7879 17.6546 21.2122 18.0739 21.7315 18.0731C22.2508 18.0708 22.6728 17.6508 22.6774 17.1284L22.6751 16.3322C24.989 19.6003 25.6882 22.8213 25.8859 24.8408L11.9239 10.7124C11.7455 10.527 11.5012 10.4223 11.2453 10.4215C10.3936 10.4177 9.96932 11.457 10.579 12.0548L24.5594 26.2002C21.3763 25.8532 18.6012 24.7185 16.1273 22.9352L16.9292 22.9375C17.4639 22.9552 17.9081 22.5252 17.9089 21.9882C17.9112 21.4504 17.4685 21.0189 16.9331 21.0342L13.8931 21.0273C12.5597 19.6995 11.2859 18.0046 10.34 16.6384L11.2231 16.8792C11.7317 17.0254 12.2617 16.7261 12.4004 16.213C12.539 15.6998 12.2334 15.1721 11.7202 15.0405L8.77594 14.2374C7.8936 12.8111 7.05723 11.3417 6.28971 9.91622C6.8136 10.2932 7.37348 10.1355 7.65841 9.75236C7.94335 9.36923 7.97321 8.69839 7.38191 8.35143L4.65744 6.75586C4.02096 5.48573 3.42201 4.09022 2.93335 2.96231L2.93415 2.9615ZM35.7376 12.0625C42.0732 12.0625 47.5962 13.5681 48.5491 13.835V55.6542C47.0119 55.2357 41.9637 53.9294 35.7376 53.9294C29.5114 53.9294 24.4632 55.2357 22.926 55.6542V27.8417C24.5865 28.1579 25.8724 28.191 26.5181 28.1794L28.9651 30.6558C29.8544 31.6213 31.2645 30.215 30.3101 29.3149L27.8599 26.8354C27.8913 25.176 27.6501 19.1807 23.0821 13.7677C25.023 13.2669 30.2534 12.0598 35.7374 12.0598L35.7376 12.0625ZM63.2567 12.0625C69.5923 12.0625 75.1154 13.5681 76.0683 13.835C76.0438 27.7604 76.0683 41.6987 76.0683 55.6542C74.5303 55.235 69.4821 53.9294 63.2567 53.9294C57.0306 53.9294 51.9824 55.2357 50.4452 55.6542V13.835C51.3987 13.5688 56.921 12.0625 63.2567 12.0625ZM77.9648 19.7034C80.2802 19.8826 81.4772 20.682 81.8418 20.9451C81.8379 34.612 81.8418 48.2751 81.8418 61.9509C74.8099 58.3982 64.5565 56.8735 57.2029 56.2657C59.0741 56.0157 61.1497 55.8357 63.2575 55.8357C70.1592 55.8357 76.7506 57.7659 76.7506 57.7659C77.358 57.9451 77.9654 57.4874 77.9654 56.8519L77.9648 19.7034ZM42.9241 21.0897H42.9172H32.8499C32.313 21.0651 31.8673 21.5021 31.8673 22.0413C31.8673 22.5806 32.313 23.013 32.8499 22.993H42.9172C43.4518 23.0107 43.8968 22.5829 43.8991 22.0459C43.9014 21.5089 43.461 21.0751 42.9264 21.0889L42.9241 21.0897ZM66.8551 21.0897H56.0802C55.5433 21.0651 55.0975 21.5021 55.0975 22.0413C55.0975 22.5806 55.5433 23.013 56.0802 22.993H66.8459C67.3805 23.0107 67.8255 22.5829 67.8278 22.0459C67.8278 21.3759 67.32 21.0897 66.8551 21.0897L66.8551 21.0897ZM17.152 25.7933C18.5 26.5203 19.8182 27.0319 21.029 27.3866V56.8515C21.029 57.4869 21.6363 57.9447 22.2437 57.7654C22.2437 57.7654 28.8352 55.8352 35.7368 55.8352C37.8446 55.8352 39.9211 56.016 41.7915 56.2652C34.4371 56.8737 24.1837 58.3977 17.1526 61.9504V25.7914L17.152 25.7933ZM83.7372 28.3245C86.7864 29.4177 88.682 30.7794 89.1032 31.0901V70.4554C72.9154 61.3475 60.484 59.6058 50.445 59.5073V57.8163C56.4635 57.941 73.6231 59.218 82.3131 64.2779C82.945 64.6456 83.7362 64.1879 83.7362 63.4547L83.7372 28.3245ZM15.2579 28.3245V63.4554C15.2579 64.1886 16.0491 64.6471 16.681 64.2786C25.371 59.2195 42.5276 57.9425 48.5491 57.8178V59.5503C38.5034 59.6396 26.1083 61.3336 9.89086 70.4577V31.0905C10.3106 30.7812 12.2063 29.4187 15.2569 28.3256L15.2579 28.3245ZM32.8472 29.0491C32.3126 29.0315 31.8691 29.4638 31.8691 30.0008C31.8691 30.5385 32.3118 30.9694 32.8472 30.9524H42.9145C43.4491 30.9701 43.8918 30.5378 43.8918 30.0008C43.8918 29.463 43.4491 29.0322 42.9145 29.0491H32.8472ZM56.0802 29.0491C55.5456 29.0315 55.1021 29.4638 55.1021 30.0008C55.1021 30.5385 55.5448 30.9694 56.0802 30.9524H70.4351C70.9697 30.9701 71.4131 30.5378 71.4131 30.0008C71.4131 29.463 70.9705 29.0322 70.4351 29.0491H56.0802ZM42.9239 37.0085H28.5606C28.026 36.9908 27.5825 37.4231 27.5825 37.9601C27.5825 38.4979 28.0252 38.9287 28.5606 38.9117H42.9147C43.447 38.9294 43.8874 38.4994 43.8905 37.9647C43.8905 37.3847 43.4195 37.0084 42.9247 37.0084L42.9239 37.0085ZM70.4451 37.0085H56.0802C55.5456 36.9908 55.1021 37.4231 55.1021 37.9601C55.1021 38.4979 55.5448 38.9287 56.0802 38.9117H70.4351C70.9674 38.9294 71.4078 38.4994 71.4109 37.9647C71.4109 37.3139 70.8824 37.0077 70.445 37.0077L70.4451 37.0085ZM42.9141 44.9678H28.56C28.0231 44.9432 27.5766 45.3802 27.5766 45.9194C27.5766 46.4595 28.0223 46.8911 28.56 46.8711H42.9141C43.4487 46.8888 43.8937 46.461 43.896 45.924C43.896 45.3378 43.4449 44.9678 42.9141 44.9678V44.9678ZM70.4353 44.9678H56.0804C55.5435 44.9432 55.097 45.3802 55.097 45.9194C55.097 46.4595 55.5427 46.8911 56.0804 46.8711H70.4353C70.9699 46.8888 71.4149 46.4618 71.4179 45.924C71.4179 45.3447 70.9599 44.9678 70.4353 44.9678V44.9678Z" fill="#D6FF00"/>
</svg>
