<svg width="66" height="66" viewBox="0 0 66 66" fill="none" xmlns="http://www.w3.org/2000/svg">
<path d="M64.2192 1H1.78056C1.34362 1 1 1.34362 1 1.78056V32.9991C1 33.436 1.34362 33.7796 1.78056 33.7796H64.2192C64.6561 33.7796 64.9998 33.436 64.9998 32.9991V1.78056C64.9998 1.34362 64.6561 1 64.2192 1ZM63.4387 32.2185H2.55998V2.55998H63.4387V32.2185Z" fill="#D6FF00" stroke="#D6FF00" stroke-width="1.5"/>
<path d="M59.5363 54.0741H56.4142C54.4161 54.0741 52.6832 55.1667 51.7314 56.7748C50.779 55.1667 49.0467 54.0741 47.0486 54.0741H43.9264C41.9284 54.0741 40.1955 55.1667 39.2437 56.7748C38.2913 55.1667 36.5589 54.0741 34.5609 54.0741H31.4387C29.4406 54.0741 27.7077 55.1667 26.7559 56.7748C25.8036 55.1667 24.0712 54.0741 22.0731 54.0741H18.951C16.9529 54.0741 15.22 55.1667 14.2682 56.7748C13.3158 55.1667 11.5835 54.0741 9.58541 54.0741H6.46324C3.4504 54.0741 1 56.5245 1 59.5373V64.2201C1 64.6571 1.34362 65.0007 1.78056 65.0007H64.2192C64.6561 65.0007 64.9998 64.6571 64.9998 64.2201V59.5373C65.0004 56.5251 62.5494 54.0741 59.5365 54.0741H59.5363ZM13.4885 63.4401H2.56203V59.5373C2.56203 57.383 4.31044 55.6352 6.46419 55.6352H9.58636C11.7407 55.6352 13.4885 57.3836 13.4885 59.5373V63.4401ZM25.9762 63.4401H15.0498V59.5373C15.0498 57.383 16.7982 55.6352 18.9519 55.6352H22.0741C24.2285 55.6352 25.9762 57.3836 25.9762 59.5373V63.4401ZM38.4646 63.4401H27.5381L27.5375 59.5373C27.5375 57.383 29.2859 55.6352 31.4397 55.6352H34.5618C36.7162 55.6352 38.464 57.3836 38.464 59.5373L38.4646 63.4401ZM50.9523 63.4401H40.0259L40.0252 59.5373C40.0252 57.383 41.7736 55.6352 43.9274 55.6352H47.0496C49.2039 55.6352 50.9517 57.3836 50.9517 59.5373L50.9523 63.4401ZM63.4401 63.4401H52.5136L52.513 59.5373C52.513 57.383 54.2614 55.6352 56.4151 55.6352H59.5373C61.6917 55.6352 63.4395 57.3836 63.4395 59.5373L63.4401 63.4401Z" fill="#D6FF00" stroke="#D6FF00" stroke-width="1.5"/>
<path d="M20.5113 49.3909H57.9744C58.4114 49.3909 58.755 49.0473 58.755 48.6104V43.9276C58.755 40.9148 56.3046 38.4644 53.2918 38.4644H50.1696C48.1715 38.4644 46.4386 39.557 45.4868 41.165C44.5345 39.557 42.8021 38.4644 40.804 38.4644H37.6819C35.6838 38.4644 33.9509 39.557 32.9991 41.165C32.0467 39.557 30.3144 38.4644 28.3163 38.4644H25.1941C23.1961 38.4644 21.4632 39.557 20.5114 41.165C19.559 39.557 17.8266 38.4644 15.8286 38.4644H12.7064C9.69356 38.4644 7.24316 40.9148 7.24316 43.9276V48.6104C7.24316 49.0473 7.58679 49.3909 8.02372 49.3909H20.5113ZM46.2667 43.9277C46.2667 41.7733 48.0151 40.0255 50.1689 40.0255H53.291C55.4454 40.0255 57.1932 41.7739 57.1932 43.9277V47.8298H46.2667V43.9277ZM33.779 43.9277C33.779 41.7733 35.5274 40.0255 37.6811 40.0255H40.8033C42.9577 40.0255 44.7055 41.7739 44.7055 43.9277V47.8298H33.779V43.9277ZM21.2913 43.9277C21.2913 41.7733 23.0397 40.0255 25.1934 40.0255H28.3156C30.47 40.0255 32.2177 41.7739 32.2177 43.9277V47.8298H21.2913V43.9277ZM8.80352 43.9277C8.80352 41.7733 10.5519 40.0255 12.7057 40.0255H15.8278C17.9822 40.0255 19.73 41.7739 19.73 43.9277V47.8298H8.80352V43.9277Z" fill="#D6FF00" stroke="#D6FF00" stroke-width="1.5"/>
<path d="M26.7561 25.9754C26.881 25.9754 26.9904 25.9439 27.0998 25.8976L42.7096 18.0926C42.9748 17.9678 43.1466 17.6866 43.1466 17.3899C43.1466 17.0933 42.9748 16.8281 42.7096 16.6872L27.0998 8.88228C26.8655 8.75744 26.5689 8.77289 26.3346 8.9138C26.1165 9.07016 25.9756 9.32046 25.9756 9.58559V25.1955C25.9756 25.4606 26.1159 25.7109 26.3501 25.8667C26.4756 25.9445 26.6159 25.9754 26.7561 25.9754L26.7561 25.9754ZM27.5367 10.85L40.6177 17.3905L27.5367 23.931V10.85Z" fill="#D6FF00" stroke="#D6FF00" stroke-width="1.5"/>
</svg>
