<svg width="80" height="79" viewBox="0 0 80 79" fill="none" xmlns="http://www.w3.org/2000/svg">
<path d="M50.3383 10.5948C50.3383 15.9164 45.914 20.2304 40.4563 20.2304C34.9994 20.2304 30.5752 15.9164 30.5752 10.5948C30.5752 5.27399 34.9994 0.960083 40.4563 0.960083C45.914 0.960083 50.3383 5.27399 50.3383 10.5948Z" fill="#FFA73C"/>
<path d="M50.3382 23.4411C53.9768 23.4411 56.9265 26.3141 56.9265 29.8651V33.0766H23.9873V29.8651C23.9873 26.3172 26.9371 23.4411 30.5756 23.4411H50.3382Z" fill="#FFA73C"/>
<path d="M27.2816 55.5589C27.2816 60.8805 22.8574 65.1944 17.3997 65.1944C11.942 65.1944 7.51855 60.8805 7.51855 55.5589C7.51855 50.2372 11.942 45.9233 17.3997 45.9233C22.8574 45.9233 27.2816 50.2372 27.2816 55.5589Z" fill="#FFA73C"/>
<path d="M27.2814 68.4052C30.9201 68.4052 33.8688 71.2774 33.8688 74.8292V78.0408H0.929688V74.8292C0.929688 71.2813 3.87952 68.4052 7.51794 68.4052H27.2814Z" fill="#FFA73C"/>
<path d="M53.3242 17.6304C59.4716 21.6694 63.5152 28.5178 63.5152 36.2888C63.5152 37.9634 63.3122 39.5918 62.9561 41.1631C63.146 41.1535 63.3228 41.1059 63.5152 41.1059C65.6262 41.1059 67.6256 41.5509 69.4441 42.3298C69.8688 40.3826 70.1035 38.3615 70.1035 36.2881C70.1035 25.5669 64.1045 16.2333 55.2137 11.2425C55.1053 13.5609 54.4279 15.7194 53.3243 17.63L53.3242 17.6304Z" fill="#FFA73C"/>
<path d="M17.3997 41.1053C17.5921 41.1053 17.769 41.1522 17.9589 41.1625C17.6019 39.5913 17.3997 37.9636 17.3997 36.2883C17.3997 28.5164 21.4434 21.6656 27.5907 17.6298C26.4838 15.72 25.8081 13.5607 25.7022 11.2408C16.8114 16.2302 10.8115 25.5671 10.8115 36.2885C10.8115 38.3613 11.043 40.3814 11.4709 42.3302C13.2894 41.5505 15.2896 41.1054 17.3998 41.1054L17.3997 41.1053Z" fill="#FFA73C"/>
<path d="M48.863 57.2069C46.2572 58.2043 43.4271 58.7718 40.4571 58.7718C37.4878 58.7718 34.6603 58.2043 32.052 57.2101C31.7912 59.4186 31.0576 61.4795 29.8896 63.2701C33.1744 64.4948 36.7298 65.1958 40.4573 65.1958C44.1848 65.1958 47.736 64.4956 51.024 63.2693C49.8568 61.4787 49.1241 59.4178 48.8634 57.2068L48.863 57.2069Z" fill="#FFA73C"/>
<path d="M73.3959 55.5589C73.3959 60.8805 68.9717 65.1944 63.5148 65.1944C58.057 65.1944 53.6328 60.8805 53.6328 55.5589C53.6328 50.2372 58.057 45.9233 63.5148 45.9233C68.9717 45.9233 73.3959 50.2372 73.3959 55.5589Z" fill="#FFA73C"/>
<path d="M73.3958 68.4052C77.0345 68.4052 79.9841 71.2774 79.9841 74.8292V78.0408H47.0449V74.8292C47.0449 71.2813 49.9939 68.4052 53.6323 68.4052H73.3958Z" fill="#FFA73C"/>
</svg>
