<svg width="87" height="86" viewBox="0 0 87 86" fill="none" xmlns="http://www.w3.org/2000/svg">
<g clip-path="url(#clip0_5471_2452)">
<path d="M37.3691 6.9933L38.8148 6.81467C39.1491 6.77001 39.4563 6.79681 39.7273 6.88612C39.9984 6.97544 40.2243 7.12727 40.3959 7.34162C40.5676 7.54704 40.676 7.80605 40.7122 8.10972C40.7483 8.41338 40.7122 8.69025 40.6037 8.9314C40.4863 9.17255 40.3146 9.37797 40.0707 9.5298C39.8267 9.68163 39.5376 9.77988 39.2033 9.82454L37.7577 10.0032L37.3782 6.98437L37.3691 6.9933ZM39.0768 9.15469C39.3388 9.11896 39.5376 9.02071 39.6822 8.85995C39.8177 8.69025 39.8719 8.48483 39.8448 8.22582C39.8177 7.96682 39.7093 7.77033 39.5286 7.64529C39.3479 7.52025 39.131 7.47559 38.869 7.50238L38.3269 7.57384L38.5347 9.22614L39.0768 9.15469Z" fill="#F8A440"/>
<path d="M43.2602 7.19872L42.3115 7.18086V6.50208L45.0763 6.54673V7.22551L44.1276 7.20765L44.0915 9.56553L43.2241 9.54767L43.2602 7.18979V7.19872Z" fill="#F8A440"/>
<path d="M48.0762 9.04753L47.6064 8.98501L47.498 9.78884L46.6396 9.67273L47.0372 6.65393L48.4286 6.83256C48.7087 6.86828 48.9346 6.94867 49.1334 7.06477C49.3231 7.18088 49.4677 7.33271 49.549 7.51134C49.6393 7.68997 49.6664 7.89539 49.6393 8.1276C49.6122 8.34196 49.5309 8.52952 49.4044 8.68135C49.2779 8.83318 49.1153 8.94036 48.9075 9.00288L49.4406 10.0389L48.519 9.92281L48.0762 9.04753ZM48.6726 7.67211C48.5913 7.58279 48.4648 7.5292 48.2841 7.50241L47.8052 7.43989L47.6877 8.32409L48.1666 8.38661C48.3473 8.41341 48.4828 8.38661 48.5822 8.32409C48.6816 8.26157 48.7449 8.1544 48.7629 8.02043C48.781 7.87753 48.7539 7.76142 48.6726 7.67211Z" fill="#F8A440"/>
<path d="M49.6398 79.0157L48.1941 79.1944C47.8598 79.239 47.5526 79.2122 47.2816 79.1229C47.0105 79.0336 46.7847 78.8818 46.613 78.6674C46.4413 78.462 46.3329 78.203 46.2968 77.8993C46.2606 77.5956 46.2968 77.3188 46.4052 77.0776C46.5226 76.8365 46.6943 76.6311 46.9383 76.4792C47.1822 76.3274 47.4713 76.2291 47.8056 76.1845L49.2513 76.0059L49.6307 79.0247L49.6398 79.0157ZM47.9321 76.8543C47.6701 76.8901 47.4713 76.9883 47.3268 77.1491C47.1912 77.3188 47.137 77.5242 47.1641 77.7832C47.2003 78.0422 47.2997 78.2387 47.4804 78.3637C47.6611 78.4888 47.8779 78.5334 48.1399 78.5066L48.682 78.4352L48.4742 76.7829L47.9321 76.8543Z" fill="#F8A440"/>
<path d="M43.7399 78.8103L44.6886 78.8282V79.5069L41.9238 79.4623V78.7835L42.8725 78.8014L42.9087 76.4435L43.776 76.4613L43.7399 78.8192V78.8103Z" fill="#F8A440"/>
<path d="M38.9237 76.9526L39.3935 77.0151L39.502 76.2113L40.3603 76.3274L39.9628 79.3462L38.5713 79.1675C38.2912 79.1318 38.0654 79.0514 37.8666 78.9353C37.6768 78.8192 37.5323 78.6674 37.451 78.4887C37.3606 78.3101 37.3335 78.1047 37.3606 77.8725C37.3877 77.6581 37.469 77.4706 37.5955 77.3187C37.722 77.1669 37.8847 77.0597 38.0925 76.9972L37.5594 75.9612L38.481 76.0773L38.9237 76.9526ZM38.3274 78.328C38.4087 78.4173 38.5352 78.4709 38.7159 78.4977L39.1948 78.5602L39.3122 77.676L38.8334 77.6135C38.6526 77.5867 38.5171 77.6135 38.4177 77.676C38.3183 77.7385 38.2551 77.8457 38.237 77.9797C38.219 78.1226 38.2461 78.2387 38.3274 78.328Z" fill="#F8A440"/>
<path d="M43.5053 86.0003C37.6324 86.0003 31.9402 84.8661 26.5733 82.6243C21.3961 80.454 16.743 77.3548 12.7494 73.4071C8.75585 69.4595 5.62063 64.8598 3.42507 59.7422C1.15724 54.4369 0.00976562 48.8102 0.00976562 43.0048C0.00976562 37.1994 1.15724 31.5727 3.42507 26.2675C5.62063 21.1498 8.75585 16.5501 12.7494 12.6025C16.743 8.65483 21.3961 5.55565 26.5733 3.38533C31.9402 1.14356 37.6324 0.00927734 43.5053 0.00927734C49.3781 0.00927734 55.0703 1.14356 60.4372 3.38533C65.6144 5.55565 70.2675 8.65483 74.2611 12.6025C78.2547 16.5501 81.3899 21.1498 83.5854 26.2675C85.8533 31.5727 87.0007 37.1994 87.0007 43.0048C87.0007 48.8102 85.8533 54.4369 83.5854 59.7422C81.3899 64.8598 78.2547 69.4595 74.2611 73.4071C70.2675 77.3548 65.6144 80.454 60.4372 82.6243C55.0703 84.8661 49.3781 86.0003 43.5053 86.0003ZM43.5053 2.49219C20.9082 2.50112 2.53059 20.6675 2.53059 43.0048C2.53059 65.3421 20.9082 83.5085 43.5053 83.5085C66.1023 83.5085 84.4799 65.3421 84.4799 43.0048C84.4799 20.6675 66.0933 2.50112 43.5053 2.50112V2.49219Z" fill="#F8A440"/>
<path d="M38.0838 36.172H29.166V49.2832H38.0838V36.172Z" fill="#F8A440"/>
<path d="M61.3861 33.966C57.9708 26.2493 50.1734 20.8547 41.1021 20.8547H25.6699V33.966H34.5877V29.67H41.1111C44.6439 29.67 47.9598 31.0275 50.4535 33.4926C50.6071 33.6444 50.7607 33.8052 50.9053 33.966H61.3861Z" fill="#F8A440"/>
<path d="M72.3905 30.8132V28.6072H61.0693C61.6928 29.2949 62.2439 30.0273 62.7047 30.8132H72.3905Z" fill="#D6FF00"/>
<path d="M59.2713 36.172C59.0635 35.5021 58.8195 34.8501 58.5395 34.216C58.5033 34.1356 58.4672 34.0463 58.431 33.9659H47.9502C48.5736 34.6537 49.1248 35.386 49.5856 36.172H59.2713Z" fill="#F8A440"/>
<path d="M66.7348 42.7276C66.7348 40.4412 66.3824 38.2441 65.7228 36.172H56.0371C57.1936 38.1458 57.817 40.3876 57.817 42.7276C57.817 45.0676 57.2027 47.3183 56.0371 49.2832H65.7228C66.3824 47.2112 66.7348 45.014 66.7348 42.7276Z" fill="#F8A440"/>
<path d="M60.8973 49.2832H51.2115C50.7507 50.0692 50.1996 50.8015 49.5762 51.4892H60.057C60.3732 50.7747 60.6533 50.0334 60.8882 49.2832H60.8973Z" fill="#D6FF00"/>
<path d="M62.8949 51.4893H52.414C52.2695 51.65 52.1159 51.8108 51.9623 51.9626C49.4686 54.4277 46.1526 55.7852 42.6199 55.7852H36.0965V51.4893H27.1787V64.6005H42.6199C51.6912 64.6005 59.4886 59.2059 62.9039 51.4893H62.8949Z" fill="#F8A440"/>
<path d="M33.2586 49.2832H24.3408V51.4892H33.2586V49.2832Z" fill="#D6FF00"/>
<path d="M71.8123 55.303H62.8945V57.509H71.8123V55.303Z" fill="#D6FF00"/>
<path d="M23.5281 39.0569H14.6104V41.2629H23.5281V39.0569Z" fill="#F8A440"/>
<path d="M31.6326 33.9659H22.7148V36.172H31.6326V33.9659Z" fill="#F8A440"/>
</g>
<defs>
<clipPath id="clip0_5471_2452">
<rect width="87" height="86" fill="white"/>
</clipPath>
</defs>
</svg>
