<svg width="66" height="66" viewBox="0 0 66 66" fill="none" xmlns="http://www.w3.org/2000/svg">
<path d="M61.889 37.5434L60.4519 36.9282H60.4525C60.7963 34.536 60.8241 32.1096 60.5345 29.7104L61.9874 29.1281C63.1678 28.6537 64.1121 27.7307 64.6125 26.561C65.1134 25.3913 65.1291 24.0709 64.6572 22.89L62.8807 18.4536H62.8814C62.4069 17.2732 61.484 16.3288 60.3143 15.8285C59.1446 15.3282 57.8242 15.3118 56.6427 15.7837L55.1885 16.3654H55.1892C53.742 14.4299 52.0468 12.6931 50.1466 11.1998L50.7617 9.76264L50.7611 9.76327C51.2594 8.59299 51.2733 7.27319 50.8002 6.09274C50.3277 4.91174 49.406 3.96669 48.2383 3.46392L43.848 1.58384C42.6777 1.08418 41.3573 1.06967 40.1764 1.54283C38.9954 2.01537 38.0504 2.93771 37.5483 4.10737L36.9332 5.54451V5.54388C34.5415 5.20131 32.1146 5.17481 29.716 5.46565L29.1337 4.01148V4.0121C28.6593 2.83173 27.7357 1.88734 26.5661 1.387C25.3965 0.886704 24.0761 0.870941 22.8945 1.34284L18.4595 3.11939V3.11876C17.2792 3.59319 16.3355 4.51679 15.8345 5.68589C15.3342 6.85554 15.3178 8.17598 15.7897 9.35755L16.372 10.8117V10.8111C14.4359 12.2577 12.6991 13.9535 11.2059 15.8538L9.76875 15.2387H9.76938C8.59912 14.7409 7.27934 14.727 6.09844 15.2002C4.91808 15.6727 3.97307 16.5938 3.47032 17.7621L1.58785 22.1486C1.0901 23.3189 1.07558 24.6387 1.54873 25.8192C2.02189 27.0002 2.94295 27.9452 4.11129 28.448L5.5484 29.0631H5.54776C5.2052 31.4553 5.17935 33.8824 5.46954 36.2809L4.01665 36.8632C2.83504 37.3364 1.88934 38.26 1.38788 39.4303C0.886965 40.6006 0.870572 41.9217 1.34246 43.1039L3.11898 47.5403C3.59339 48.7207 4.51634 49.6644 5.68606 50.1654C6.85569 50.6657 8.17609 50.6821 9.357 50.2102L10.8111 49.6279C12.2577 51.564 13.9535 53.3009 15.8537 54.7935L15.2386 56.2306C14.7409 57.4009 14.727 58.7207 15.1995 59.9012C15.6727 61.0816 16.5937 62.0266 17.7621 62.53L22.1523 64.4101C23.3226 64.9078 24.6424 64.9217 25.8228 64.4492C27.0038 63.976 27.9488 63.055 28.4516 61.8866L29.0667 60.4494V60.4501C31.4588 60.7939 33.8852 60.821 36.2843 60.5321L36.8666 61.985C37.3398 63.1666 38.2627 64.1117 39.4331 64.6127C40.6033 65.1136 41.9244 65.1294 43.1053 64.6556L47.5403 62.8784L47.5409 62.879C48.7213 62.4046 49.665 61.481 50.166 60.3119C50.6663 59.1423 50.6827 57.8218 50.2108 56.6402L49.6285 55.1861V55.1867C51.5646 53.7401 53.3014 52.0443 54.7946 50.144L56.2317 50.7591L56.2311 50.7585C57.4014 51.2569 58.7211 51.2708 59.9016 50.7976C61.0825 50.3251 62.0276 49.4034 62.5303 48.2357L64.4128 43.8453C64.9131 42.675 64.9282 41.3539 64.4551 40.1723C63.9819 38.9907 63.059 38.045 61.8893 37.5435L61.889 37.5434ZM62.5135 43.0308L60.6335 47.4242V47.4236C60.3458 48.0886 59.8064 48.6128 59.1339 48.8816C58.462 49.151 57.71 49.1434 57.0433 48.8608L54.8667 47.929C54.4264 47.7409 53.9141 47.8797 53.6296 48.2652C51.9987 50.4727 50.0223 52.4018 47.7764 53.9791C47.3846 54.2542 47.2339 54.7633 47.4118 55.2074L48.2937 57.4073C48.5599 58.0811 48.5498 58.8324 48.2647 59.498C47.9802 60.1636 47.4433 60.6897 46.7727 60.9616L42.3364 62.7388C41.6633 63.0076 40.9113 62.9981 40.2451 62.713C39.5789 62.4278 39.0528 61.8903 38.7821 61.2178L37.9002 59.0166C37.7229 58.5718 37.2624 58.3081 36.7892 58.3801C34.0752 58.7895 31.3133 58.758 28.6099 58.2873C28.1381 58.2047 27.6718 58.4577 27.4832 58.8974L26.5521 61.074H26.5527C26.265 61.7389 25.7263 62.2632 25.0538 62.5326C24.3812 62.802 23.6293 62.7944 22.9625 62.5117L18.5685 60.6317C17.9035 60.344 17.3799 59.8052 17.1105 59.1327C16.8412 58.4602 16.8487 57.7082 17.1314 57.0414L18.0625 54.8648C18.2512 54.4244 18.1124 53.9121 17.7269 53.6276C15.5195 51.9974 13.5904 50.0209 12.0131 47.7743C11.7374 47.3832 11.2296 47.2324 10.7848 47.4097L8.58937 48.2942C7.91623 48.5604 7.16487 48.5503 6.49937 48.2652C5.8338 47.9806 5.30766 47.4438 5.03513 46.7731L3.25796 42.3367H3.25859C2.98983 41.6636 2.99867 40.9116 3.28382 40.2448C3.56897 39.5786 4.10711 39.053 4.77961 38.7824L6.98072 37.9004H6.98009C7.42485 37.7225 7.68855 37.2626 7.61726 36.7888C7.2091 34.0754 7.24127 31.3141 7.71315 28.6107C7.7958 28.1388 7.54345 27.6719 7.10311 27.4833L4.92655 26.5521L4.92592 26.5527C4.26098 26.2651 3.73673 25.7263 3.46799 25.0538C3.1986 24.3812 3.20618 23.6292 3.48881 22.9624L5.36885 18.569C5.65652 17.9041 6.19529 17.3798 6.86779 17.1104C7.5403 16.8417 8.29165 16.8486 8.95843 17.1312L11.135 18.0624H11.1356C11.576 18.2511 12.0876 18.1123 12.3728 17.7268C14.003 15.5193 15.9794 13.5902 18.2259 12.0129C18.6171 11.7378 18.7678 11.23 18.5906 10.7852L17.7086 8.58405V8.58468C17.4418 7.91153 17.4525 7.16016 17.737 6.494C18.0222 5.82842 18.5584 5.30227 19.2296 5.03036L23.6659 3.25315C24.3391 2.98502 25.0911 2.99386 25.7572 3.27902C26.4234 3.56418 26.9496 4.10232 27.2196 4.7742L28.1015 6.97536C28.2794 7.42013 28.74 7.68383 29.2131 7.61191C31.9246 7.205 34.6846 7.2378 37.3859 7.7097C37.8572 7.79171 38.3234 7.53936 38.512 7.09965L39.4438 4.92304V4.92241C39.7296 4.2562 40.2684 3.73068 40.9415 3.46129C41.6146 3.1919 42.3672 3.2001 43.0341 3.48526L47.4261 5.36534C48.0911 5.65239 48.6159 6.19117 48.8853 6.86368C49.1541 7.53683 49.1465 8.2882 48.8639 8.95501L47.9321 11.1316V11.1322C47.7441 11.5726 47.8829 12.0849 48.2683 12.3694C50.4764 13.9996 52.4055 15.9761 53.9821 18.2227C54.2578 18.6145 54.7663 18.7646 55.2104 18.5861L57.4096 17.6997C58.0834 17.4335 58.8347 17.4435 59.5002 17.7281C60.1658 18.0132 60.6919 18.5495 60.9639 19.2207L62.741 23.6571C63.0098 24.3303 63.0003 25.0823 62.7151 25.7484C62.43 26.4146 61.8925 26.9408 61.22 27.2115L59.0189 28.0934C58.5748 28.2713 58.3111 28.7312 58.3823 29.2044C58.7911 31.9179 58.759 34.6798 58.2864 37.3832C58.2038 37.8545 58.4562 38.3213 58.8965 38.5093L61.0731 39.4411C61.7399 39.7269 62.266 40.2651 62.536 40.9376C62.806 41.6107 62.7985 42.3633 62.514 43.0308L62.5135 43.0308ZM40.0131 16.6069C34.9195 14.4266 29.101 14.739 24.2703 17.4523C19.4392 20.1664 16.1448 24.9723 15.3569 30.4572C14.5689 35.9415 16.3764 41.4806 20.2473 45.4451C24.119 49.4095 29.6138 51.3476 35.115 50.6896C40.6168 50.0316 45.4998 46.8526 48.3274 42.0869C51.1543 37.3218 51.6047 31.5127 49.5456 26.3686C47.7867 21.9801 44.358 18.4693 40.0132 16.607L40.0131 16.6069ZM30.2611 48.5155L30.2441 39.7098C30.2453 39.1363 29.9185 38.6127 29.4031 38.3622C28.1893 37.7957 27.1603 36.898 26.4336 35.7731C25.7068 34.6483 25.3113 33.341 25.2936 32.0017C25.3012 29.8851 26.2664 27.8859 27.92 26.5647L27.9288 31.2295C27.9269 31.767 28.2146 32.2629 28.6814 32.5285L32.1644 34.5303H32.165C32.6287 34.8029 33.2034 34.8029 33.6671 34.5303L37.142 32.5152C37.6088 32.2484 37.8952 31.75 37.8908 31.2125L37.8814 26.5503C39.54 27.8651 40.5134 29.8605 40.5285 31.9766C40.5153 33.3159 40.1254 34.6244 39.4024 35.7517C38.6801 36.8798 37.6543 37.7806 36.4431 38.3523C35.9283 38.6047 35.6034 39.1289 35.6065 39.7024L35.6242 48.529C33.849 48.8324 32.0345 48.828 30.2612 48.5157L30.2611 48.5155ZM47.4885 39.1986C45.6749 43.4381 42.0914 46.6682 37.6868 48.0341L37.671 40.0376L37.6717 40.037C39.6077 39.0472 41.1218 37.3924 41.9363 35.3768C42.7514 33.3605 42.8113 31.1184 42.1066 29.0611C41.4013 27.0045 39.9787 25.2708 38.0981 24.1782C37.6344 23.8955 37.0541 23.8854 36.5803 24.1523C36.1071 24.4185 35.8144 24.9201 35.8157 25.4639L35.8251 30.8902L32.9118 32.5797L29.9928 30.9008L29.9821 25.4797L29.9814 25.4804C29.9808 24.9372 29.6875 24.4369 29.2137 24.1719C28.7399 23.9063 28.1601 23.917 27.6965 24.2003C25.8209 25.2993 24.4039 27.0386 23.7069 29.0978C23.0091 31.157 23.0773 33.3992 23.8993 35.4123C24.7213 37.4255 26.2411 39.0746 28.1804 40.0575L28.1955 48.0091C27.7274 47.8583 27.2587 47.6873 26.7988 47.4899H26.7982C22.9555 45.8451 19.923 42.7413 18.3685 38.8606C16.8141 34.9808 16.8646 30.6415 18.5092 26.7981C20.154 22.9548 23.2577 19.9229 27.1383 18.3684C31.0187 16.8139 35.3579 16.8644 39.2006 18.5091C43.0438 20.1538 46.0757 23.2583 47.6301 27.1389C49.1846 31.0194 49.1341 35.3587 47.4888 39.2014L47.4885 39.1986Z" fill="#FFA73C" stroke="#FFA73C"/>
</svg>
