<svg width="76" height="76" viewBox="0 0 76 76" fill="none" xmlns="http://www.w3.org/2000/svg">
<path d="M0.889274 75.3324H27.6366C28.1282 75.3324 28.5266 74.934 28.5266 74.4431V54.5677C28.5266 54.3323 28.4327 54.1058 28.2656 53.9388C28.0992 53.7724 27.8727 53.6785 27.6366 53.6785H0.889274C0.653155 53.6785 0.427378 53.7724 0.260298 53.9388C0.093905 54.1058 0 54.3323 0 54.5677V74.4431C0 74.6785 0.093898 74.905 0.260298 75.0721C0.42738 75.2385 0.653155 75.3324 0.889274 75.3324V75.3324ZM3.01308 56.6907H25.5132L25.5138 72.3184H3.01377L3.01308 56.6907Z" fill="#D6FF00"/>
<path d="M74.4452 53.679H47.6979C47.4618 53.679 47.2353 53.7729 47.0689 53.9393C46.9018 54.1063 46.8086 54.3328 46.8086 54.5682V74.4436C46.8086 74.679 46.9018 74.9055 47.0689 75.0726C47.2353 75.239 47.4618 75.3329 47.6979 75.3329H74.4452C74.9361 75.3329 75.3345 74.9345 75.3345 74.4436V54.5682C75.3345 54.3328 75.2406 54.1064 75.0742 53.9393C74.9071 53.7729 74.6806 53.679 74.4452 53.679L74.4452 53.679ZM72.3214 72.3188H49.8213L49.8206 56.6911H72.3207L72.3214 72.3188Z" fill="#D6FF00"/>
<path d="M51.0419 21.6539C51.5328 21.6539 51.9312 21.2555 51.9312 20.7646V0.889258C51.9312 0.398374 51.5328 0 51.0419 0H24.2945C24.0584 0 23.8327 0.093898 23.6656 0.260298C23.4985 0.42738 23.4053 0.653156 23.4053 0.889274V20.7646C23.4053 21.0001 23.4985 21.2265 23.6656 21.3929C23.8327 21.56 24.0584 21.6539 24.2945 21.6539L51.0419 21.6539ZM26.4173 3.01222H48.9174L48.9181 18.64H26.418L26.4173 3.01222Z" fill="#D6FF00"/>
<path d="M62.7461 53.6789V37.6659C62.7461 36.7414 61.9963 35.9923 61.0718 35.9923H39.3424V21.6536H35.9946V35.9923H14.2651C13.3399 35.9923 12.5908 36.7414 12.5908 37.6659V53.6789H15.9386V39.3402H59.3975V53.6789H62.7461Z" fill="#D6FF00"/>
</svg>
