<svg width="58" height="64" viewBox="0 0 58 64" fill="none" xmlns="http://www.w3.org/2000/svg">
<path d="M56.9725 56.8646H54.1771V52.1282C54.1771 51.8506 54.0691 51.5839 53.876 51.3876C53.6834 51.1912 53.4219 51.0806 53.1496 51.0806H52.574V26.6771H53.1496C53.4219 26.6771 53.6834 26.567 53.876 26.3701C54.0691 26.1737 54.1771 25.9071 54.1771 25.6295V20.883H55.3488C55.6212 20.883 55.8826 20.7724 56.0752 20.576C56.2683 20.3791 56.3763 20.113 56.3763 19.8348V14.7952C56.3763 14.517 56.2683 14.2504 56.0752 14.054C55.8826 13.8577 55.6212 13.747 55.3488 13.747H54.4239V9.55593C54.425 9.10513 54.1434 8.70467 53.7252 8.56031L29.3287 0.0311136H29.2153C29.0743 -0.0103712 28.9246 -0.0103712 28.7841 0.0311136H28.6712L4.27476 8.56031C3.85597 8.70467 3.57495 9.10514 3.57605 9.55593V13.747H2.6511C2.08366 13.747 1.62364 14.2161 1.62364 14.7952V19.8348C1.62364 20.113 1.73159 20.3791 1.92418 20.576C2.1173 20.7723 2.37823 20.883 2.65111 20.883H3.82234V25.6294C3.82234 25.9071 3.93084 26.1737 4.12343 26.3701C4.31655 26.567 4.57748 26.6771 4.85036 26.6771H5.42594V51.0806H4.85036C4.28293 51.0806 3.82236 51.5496 3.82236 52.1282V56.864L1.02747 56.8646C0.46003 56.8646 0 57.3337 0 57.9122V62.9524C0 63.23 0.107955 63.4967 0.300544 63.693C0.493666 63.8894 0.7546 64 1.02748 64H56.9725C57.2448 64 57.5063 63.8894 57.6989 63.693C57.892 63.4967 58 63.23 58 62.9524V57.9122C58 57.6346 57.8921 57.3679 57.6989 57.171C57.5063 56.9747 57.2449 56.8646 56.9725 56.8646L56.9725 56.8646ZM35.5869 56.8646V52.1282C35.5869 51.8506 35.4784 51.5839 35.2858 51.3876C35.0932 51.1912 34.8318 51.0806 34.5594 51.0806H33.9838V26.6771H34.5594C34.8317 26.6771 35.0932 26.567 35.2858 26.3701C35.4784 26.1737 35.5869 25.9071 35.5869 25.6295V20.883H41.0025V25.6295C41.0025 25.9071 41.111 26.1737 41.3036 26.3701C41.4962 26.567 41.7577 26.6771 42.03 26.6771H42.6056V51.0806H42.03C41.4626 51.0806 41.0025 51.5496 41.0025 52.1282V56.8641L35.5869 56.8646ZM16.9969 56.8646V52.1282C16.9969 51.8506 16.8884 51.5839 16.6958 51.3876C16.5032 51.1912 16.2417 51.0806 15.9689 51.0806H15.3933L15.3938 26.6771H15.9694H15.9689C16.2417 26.6771 16.5032 26.567 16.6958 26.3701C16.8884 26.1737 16.9969 25.9071 16.9969 25.6295V20.883H22.4125V25.6295C22.4125 25.9071 22.5205 26.1737 22.7136 26.3701C22.9062 26.567 23.1676 26.6771 23.44 26.6771H24.0156V51.0806H23.44C22.8725 51.0806 22.4125 51.5496 22.4125 52.1282V56.8641L16.9969 56.8646ZM31.9289 51.0805H26.0711V26.677H31.9289V51.0805ZM33.5319 24.5813L24.4675 24.5808V20.8826H33.5314L33.5319 24.5813ZM24.4675 53.1762H33.5314V56.8645H24.4675V53.1762ZM43.0575 53.1762H52.122V56.8645H43.058L43.0575 53.1762ZM50.5183 51.0804H44.6605L44.6611 26.6769H50.5189L50.5183 51.0804ZM52.122 24.5812H43.058V20.883H52.122V24.5812ZM5.63024 10.2993L28.999 2.13672L52.3678 10.2993V13.7464H5.63024V10.2993ZM3.67777 15.8423H54.3205V18.7866H3.67777V15.8423ZM14.9821 20.8824V24.5812L5.87702 24.5806V20.8824L14.9821 20.8824ZM7.52118 26.677H13.379V51.0805H7.52118V26.677ZM5.87688 53.1762H14.9408V56.8645H5.87688V53.1762ZM55.9433 61.9046L2.05361 61.9041V58.9598H55.9433V61.9046Z" fill="#D6FF00"/>
</svg>
