<svg width="89" height="85" viewBox="0 0 89 85" fill="none" xmlns="http://www.w3.org/2000/svg">
<path d="M34.4023 56.434C36.1877 56.434 37.8994 55.7003 39.1616 54.3938C40.4239 53.0873 41.1336 51.3146 41.1336 49.4674V45.9837C41.1336 43.4949 39.8501 41.1943 37.7679 39.9504C35.6859 38.7055 33.1198 38.7055 31.0375 39.9504C28.9546 41.1944 27.6719 43.4949 27.6719 45.9837V49.4674C27.6719 51.3146 28.3807 53.0872 29.6429 54.3938C30.9051 55.7003 32.6177 56.434 34.4023 56.434H34.4023ZM31.0366 45.9839H31.0375C31.0375 44.739 31.6788 43.5897 32.7199 42.9674C33.7609 42.3451 35.0445 42.345 36.0855 42.9674C37.1265 43.5898 37.7679 44.7391 37.7679 45.9839V49.4677C37.7679 50.7117 37.1266 51.8619 36.0855 52.4842C35.0445 53.1057 33.7609 53.1057 32.7199 52.4842C31.6788 51.8618 31.0375 50.7116 31.0375 49.4677L31.0366 45.9839Z" fill="#D6FF00"/>
<path d="M39.787 59.2208C40.6611 60.4262 41.1336 61.8935 41.1336 63.4006H27.6722C27.6722 61.8936 28.1447 60.4262 29.0188 59.2208C29.5757 58.4513 29.4256 57.3599 28.6821 56.7826C27.9386 56.2052 26.8834 56.3615 26.3265 57.1311C25.0155 58.9396 24.3066 61.1397 24.3066 63.4007V65.143C24.3066 65.6045 24.4843 66.0477 24.7996 66.3741C25.1158 66.7005 25.5431 66.8844 25.9899 66.8844H42.8161C43.262 66.8844 43.6902 66.7005 44.0064 66.3741C44.3217 66.0477 44.4985 65.6045 44.4985 65.143V63.4007C44.4985 61.1398 43.7905 58.9397 42.4795 57.1311C41.9217 56.3615 40.8673 56.2052 40.1239 56.7826C39.3804 57.36 39.2303 58.4513 39.7873 59.2208H39.787Z" fill="#D6FF00"/>
<path d="M68.0575 75.3838C68.0264 75.1531 67.958 74.9296 67.8559 74.7218L61.3272 64.6201V51.2093C61.3272 50.2476 60.573 49.4679 59.6439 49.4679C58.7148 49.4679 57.9616 50.2476 57.9616 51.2093V63.4009H49.548C48.6189 63.4009 47.8657 64.1806 47.8657 65.1432C47.8657 66.1049 48.6189 66.8846 49.548 66.8846H58.7352L63.2448 73.8511H5.56418L10.0738 66.8846H19.261C20.1901 66.8846 20.9434 66.1049 20.9434 65.1432C20.9434 64.1806 20.1901 63.4009 19.261 63.4009H10.8474V33.7934C10.8474 32.8317 11.6007 32.0511 12.5298 32.0511H39.4509C40.3809 32.0511 41.1342 31.2714 41.1342 30.3097C41.1342 29.348 40.3809 28.5684 39.4509 28.5684H12.5298C11.1912 28.5684 9.90772 29.1191 8.96085 30.0983C8.01396 31.0784 7.4819 32.4079 7.4819 33.7934V64.6225L1.02074 74.6194C0.91859 74.8263 0.850195 75.0506 0.819106 75.2814H0.751598C0.668991 77.6443 1.51905 79.9411 3.10626 81.6428C4.69269 83.3438 6.87963 84.3047 9.16516 84.3028H59.6443H59.6434C61.8747 84.3028 64.0146 83.3852 65.5929 81.7523C67.1704 80.1194 68.0569 77.9044 68.0569 75.5949V75.3853L68.0575 75.3838ZM59.6439 80.8176H9.16483C8.1238 80.8103 7.11119 80.4719 6.26283 79.8486C5.41365 79.2261 4.77056 78.3481 4.41969 77.3348H64.3879C64.0371 78.348 63.3931 79.226 62.5448 79.8486C61.6965 80.4719 60.683 80.8103 59.6428 80.8176H59.6439Z" fill="#D6FF00"/>
<path d="M83.202 0.700242H52.9131C51.5745 0.700242 50.2901 1.25005 49.3442 2.23016C48.3973 3.21028 47.8652 4.53883 47.8652 5.92527V26.8256V26.8247C47.8652 28.2112 48.3973 29.5397 49.3442 30.5198C50.2902 31.4999 51.5746 32.0497 52.9131 32.0497H57.961V40.7585C57.9646 41.4619 58.3759 42.0935 59.0038 42.3611C59.2144 42.4098 59.4329 42.4098 59.6434 42.3611C60.0902 42.3666 60.5174 42.1772 60.8212 41.8388L70.4463 32.0497H83.2008C84.5394 32.0497 85.8238 31.4999 86.7698 30.5198C87.7167 29.5397 88.2487 28.2111 88.2487 26.8247V5.9243V5.92522C88.2487 4.53874 87.7167 3.21021 86.7698 2.23012C85.8238 1.25 84.5394 0.700195 83.2008 0.700195L83.202 0.700242ZM84.8843 26.8266V26.8257C84.8843 27.2881 84.7076 27.7313 84.3913 28.0577C84.076 28.3841 83.6479 28.568 83.2019 28.568H69.7405C69.2946 28.5625 68.8664 28.7519 68.5626 29.0902L61.3279 36.5449V30.3094C61.3279 29.8479 61.1502 29.4047 60.8349 29.0783C60.5196 28.751 60.0914 28.568 59.6446 28.568H52.9142C51.9851 28.568 51.2319 27.7884 51.2319 26.8257V5.92539V5.92631C51.2319 4.96368 51.9851 4.18401 52.9142 4.18401H83.203C83.6489 4.18401 84.0771 4.3679 84.3924 4.6943C84.7086 5.02069 84.8854 5.46385 84.8854 5.92633L84.8843 26.8266Z" fill="#D6FF00"/>
<path d="M76.4704 11.1508H59.6433C58.7142 11.1508 57.9609 11.9304 57.9609 12.8921C57.9609 13.8538 58.7142 14.6335 59.6433 14.6335H76.4704C77.3995 14.6335 78.1528 13.8538 78.1528 12.8921C78.1528 11.9304 77.3995 11.1508 76.4704 11.1508Z" fill="#D6FF00"/>
<path d="M69.7411 18.1178H59.6452C58.7161 18.1178 57.9629 18.8975 57.9629 19.8592C57.9629 20.8209 58.7161 21.6006 59.6452 21.6006H69.7411C70.6702 21.6006 71.4243 20.8209 71.4243 19.8592C71.4243 18.8975 70.6702 18.1178 69.7411 18.1178Z" fill="#D6FF00"/>
</svg>
