<svg width="69" height="46" viewBox="0 0 69 46" fill="none" xmlns="http://www.w3.org/2000/svg">
<path d="M61.7908 15.8278C63.0664 14.6465 63.8314 13.0428 63.8314 11.1864C63.8314 7.72628 60.9408 4.85705 57.4548 4.85705C53.9689 4.85705 51.0782 7.72628 51.0782 11.1864C51.0782 13.0428 51.8433 14.6465 53.1188 15.8278C49.3783 17.3466 46.5726 20.8066 46.062 24.9419C44.3615 23.9291 42.4912 23.1697 40.6209 22.5787C44.1069 20.5532 46.4021 16.7561 46.4021 12.4525C46.4021 5.95471 41.0459 0.638184 34.4996 0.638184C27.9534 0.638184 22.5972 5.95471 22.5972 12.4525C22.5972 16.7561 24.8924 20.4689 28.3783 22.5787C26.4231 23.0847 24.5523 23.9291 22.9372 24.9419C22.4274 20.8066 19.6216 17.3472 15.8804 15.8278C17.156 14.6465 17.921 13.0428 17.921 11.1864C17.921 7.72628 15.0304 4.85705 11.5444 4.85705C8.05846 4.85705 5.16781 7.72628 5.16781 11.1864C5.16781 13.0428 5.93288 14.6465 7.20843 15.8278C3.04228 17.5157 0.0668945 21.6503 0.0668945 26.3765C0.0668945 27.0517 0.662259 27.6427 1.34248 27.6427C2.02271 27.6427 2.61807 27.0517 2.61807 26.3765C2.61807 21.4818 6.61385 17.5156 11.5451 17.5156C16.4757 17.5156 20.4715 21.4818 20.4715 26.3765V26.6299C15.2856 30.7652 11.9695 37.0095 11.9695 44.0982C11.9695 44.7734 12.5649 45.3643 13.2451 45.3643C13.9253 45.3643 14.5207 44.7734 14.5207 44.0982C14.5207 33.1276 23.4477 24.2672 34.4996 24.2672C45.552 24.2672 54.4785 33.1282 54.4785 44.0982C54.4785 44.7734 55.0739 45.3643 55.7541 45.3643C56.4343 45.3643 57.0297 44.7734 57.0297 44.0982C57.0297 37.0095 53.7141 30.6802 48.5278 26.6299V26.3765C48.5278 21.4818 52.5235 17.5156 57.4548 17.5156C62.3854 17.5156 66.3812 21.4818 66.3812 26.3765C66.3812 27.0517 66.9765 27.6427 67.6567 27.6427C68.337 27.6427 68.9323 27.0517 68.9323 26.3765C68.9316 21.6509 65.9562 17.5156 61.7901 15.8278H61.7908ZM7.71899 11.1864C7.71899 9.07662 9.41954 7.38879 11.5449 7.38879C13.6705 7.38879 15.3709 9.07674 15.3709 11.1864C15.3709 13.2962 13.6704 14.984 11.5449 14.984C9.41941 14.984 7.71899 13.2961 7.71899 11.1864ZM25.1473 12.4525C25.1473 7.30513 29.3134 3.16984 34.4993 3.16984C39.6851 3.16984 43.8512 7.30513 43.8512 12.4525C43.8512 17.6 39.6851 21.7353 34.4993 21.7353C29.3134 21.7353 25.1473 17.6 25.1473 12.4525ZM53.6283 11.1864C53.6283 9.07662 55.3289 7.38879 57.4543 7.38879C59.5797 7.38879 61.2802 9.07674 61.2802 11.1864C61.2802 13.2962 59.5797 14.984 57.4543 14.984C55.328 14.984 53.6283 13.2961 53.6283 11.1864Z" fill="#D6FF00"/>
</svg>
