<svg width="80" height="41" viewBox="0 0 80 41" fill="none" xmlns="http://www.w3.org/2000/svg">
<path d="M39.9989 41C18.386 41 1.27453 22.6932 0.555856 21.9149C-0.185285 21.1104 -0.185285 19.8904 0.555856 19.086C1.27367 18.3059 18.3863 0 39.9989 0C61.6117 0 78.7233 18.3059 79.4441 19.0851C80.1853 19.8896 80.1853 21.1096 79.4441 21.914C78.7263 22.6932 61.6128 41 39.9989 41ZM5.22613 20.4983C9.6211 24.6926 23.6896 36.7589 39.9989 36.7589C56.3409 36.7589 70.3844 24.6986 74.7717 20.5026C70.3767 16.3083 56.3081 4.242 39.9989 4.242C23.6569 4.242 9.61557 16.3031 5.22613 20.4983ZM39.9989 31.8131C33.5826 31.8131 28.3628 26.739 28.3628 20.5009C28.3628 14.2621 33.5826 9.18778 39.9989 9.18778C46.4161 9.18778 51.6359 14.2619 51.6359 20.5C51.6367 26.7388 46.4168 31.8131 39.9989 31.8131ZM39.9989 13.4298C35.9891 13.4298 32.7257 16.6021 32.7257 20.5009C32.7257 24.3987 35.9891 27.5719 39.9989 27.5719C44.0087 27.5711 47.273 24.3979 47.273 20.5002C47.273 16.6015 44.0087 13.43 39.9989 13.43V13.4298Z" fill="#FFA73C"/>
</svg>
