<svg width="40" height="33" viewBox="0 0 40 33" fill="none" xmlns="http://www.w3.org/2000/svg">
<path d="M2.99987 0.000528401C1.87442 0.000528401 1.00013 0.875255 1.00013 2.00026C1.00013 3.12571 1.87486 4 2.99987 4H33.9994V0L2.99987 0.000528401ZM0 4.64096V30.4999C0 31.8848 1.11511 33 2.50007 33H37.4999C38.8848 33 40 31.8849 40 30.4999V26.0001H24.5002C23.1327 26.0001 22.0002 24.8676 22.0002 23.5001V15.5002C22.0002 14.1326 23.1327 13.0001 24.5002 13.0001H40V8.50032C40 7.11547 38.8849 6.00026 37.4999 6.00026L2.53174 5.96933C1.52999 5.84973 0.636736 5.36473 0.000317363 4.64138L0 4.64096ZM24.4992 15.0003C24.2047 15.0003 23.9993 15.2061 23.9993 15.5001V23.5C23.9993 23.7945 24.2051 23.9999 24.4992 23.9999H39.999V14.9998L24.4992 15.0003ZM29.4992 18.0001C30.3277 18.0001 30.9991 18.6716 30.9991 19.5001C30.9991 20.3286 30.3277 21 29.4992 21C28.6707 21 27.9993 20.3286 27.9993 19.5001C27.9993 18.6715 28.6707 18.0001 29.4992 18.0001Z" fill="white" fill-opacity="0.5"/>
</svg>
