<svg width="82" height="68" viewBox="0 0 82 68" fill="none" xmlns="http://www.w3.org/2000/svg">
<path d="M6.31251 0.333354C4.01607 0.333354 2.23213 2.1182 2.23213 4.41373C2.23213 6.71016 4.01698 8.4941 6.31251 8.4941H69.5658V0.332275L6.31251 0.333354ZM0.191406 9.80195V62.5661C0.191406 65.3919 2.46673 67.6674 5.29268 67.6674H76.7084C79.5341 67.6674 81.8097 65.3921 81.8097 62.5661V53.3845H50.1831C47.3927 53.3845 45.0818 51.0736 45.0818 48.2832V31.9598C45.0818 29.1694 47.3927 26.8585 50.1831 26.8585H81.8097V17.6768C81.8097 14.8511 79.5344 12.5756 76.7084 12.5756L5.35731 12.5124C3.31329 12.2684 1.49064 11.2788 0.192054 9.80282L0.191406 9.80195ZM50.1809 30.9397C49.5801 30.9397 49.161 31.3596 49.161 31.9596V48.2831C49.161 48.8839 49.5809 49.303 50.1809 49.303H81.8075V30.9388L50.1809 30.9397ZM60.3832 37.0608C62.0738 37.0608 63.4438 38.4308 63.4438 40.1214C63.4438 41.812 62.0738 43.1819 60.3832 43.1819C58.6927 43.1819 57.3227 41.812 57.3227 40.1214C57.3227 38.4308 58.6927 37.0608 60.3832 37.0608Z" fill="#D6FF00"/>
</svg>
