<svg width="55" height="56" viewBox="0 0 55 56" fill="none" xmlns="http://www.w3.org/2000/svg">
<path fill-rule="evenodd" clip-rule="evenodd" d="M27.4999 0.841797C12.3479 0.841797 0.0463867 13.0114 0.0463867 28.0001C0.0463867 42.9893 12.3482 55.1585 27.4999 55.1585C42.652 55.1585 54.9535 42.9889 54.9535 28.0001C54.9535 13.011 42.6516 0.841797 27.4999 0.841797ZM27.4999 2.65256C33.6003 2.65256 39.1969 4.76048 43.5944 8.27496C39.5964 9.27231 37.692 12.5679 37.5655 15.3263C37.5655 16.8154 38.8055 18.0421 40.3108 18.0421H51.0706C51.3257 18.6333 51.5542 19.2393 51.7643 19.8529H41.2258C37.1935 19.8529 33.9046 23.1059 33.9046 27.0953C33.9046 29.5847 35.964 31.6219 38.4804 31.6219H41.0862C42.3668 31.6219 43.4726 32.4759 43.7833 33.7045L46.6089 44.8891C41.9181 50.0805 35.0984 53.3479 27.4981 53.3479C13.3354 53.3479 1.8749 42.0098 1.8749 28.0001C1.8749 25.6308 2.21064 23.3407 2.82417 21.1663L9.35359 27.6255C9.97242 28.2377 10.886 28.3543 11.5898 28.0657C12.2936 27.7775 12.8569 27.0559 12.8569 26.1895V23.8469C12.8569 23.6299 13.0149 23.4737 13.2342 23.4737H16.1405C17.2105 23.4737 18.2365 23.0531 18.993 22.3047L26.5838 14.7956C27.1693 14.2164 27.4988 13.4298 27.4988 12.6102C27.4988 10.1209 25.4394 8.08364 22.923 8.08364H11.6487C16.009 4.68441 21.5099 2.65197 27.4983 2.65197L27.4999 2.65256ZM45.4185 9.88068C47.3281 11.7291 48.9451 13.8701 50.1978 16.2319H40.3118C39.8041 16.2319 39.4186 15.8462 39.4055 15.3478C39.6389 12.2142 42.2761 9.83864 45.418 9.8806L45.4185 9.88068ZM9.56776 9.89501H22.9254C24.4525 9.89501 25.6707 11.1003 25.6707 12.6108C25.6707 12.9506 25.535 13.2756 25.292 13.516L17.7012 21.0251C17.2877 21.4342 16.7278 21.6636 16.1427 21.6636H13.2365C12.0283 21.6636 11.0292 22.6518 11.0292 23.8471V26.1897C11.0292 26.3259 10.9795 26.3569 10.8915 26.3928C10.8036 26.4286 10.7476 26.4415 10.6505 26.345L3.45301 19.2249C4.77714 15.6698 6.88684 12.4947 9.56937 9.89401L9.56776 9.89501ZM41.2273 21.6636H52.3176C52.8437 23.6884 53.1239 25.8121 53.1239 28.0004C53.1239 33.6802 51.2404 38.9208 48.0567 43.1449L45.5597 33.2664C45.0476 31.2406 43.1988 29.8118 41.0878 29.8118H38.482C36.955 29.8118 35.7367 28.6065 35.7367 27.096C35.7367 24.0853 38.184 21.6643 41.2274 21.6643L41.2273 21.6636ZM16.7814 28.0004C15.2906 28.0176 13.8587 28.9084 13.2834 30.3875L12.1216 33.3758C11.7347 34.3713 11.9859 35.5062 12.7578 36.2508L14.2931 37.7309C14.9544 38.3689 15.3264 39.2429 15.3264 40.1567V44.5556C15.3264 45.3504 15.6051 46.1198 16.1148 46.7339L17.9255 48.9174C18.9375 50.1375 20.9501 49.9468 21.7109 48.5605L28.0576 36.9993C28.833 35.5871 28.3059 33.7959 26.8871 33.0142L18.6403 28.4685C18.1012 28.1722 17.5089 28.0088 16.7814 28.0016L16.7814 28.0004ZM17.75 30.0496L25.9969 34.594C26.5582 34.9031 26.7558 35.5755 26.449 36.1342L20.1023 47.6973C19.9308 48.0099 19.5689 48.0429 19.3409 47.7681L17.5303 45.586C17.2892 45.2954 17.1568 44.9313 17.1568 44.5552V40.1562C17.1568 38.755 16.5839 37.4108 15.5694 36.4324L14.0357 34.9523C13.784 34.7096 13.7038 34.3487 13.8303 34.0243L14.9922 31.0379C15.2071 30.485 15.6347 30.0927 16.1395 29.9115C16.7202 29.6998 17.2656 29.8012 17.75 30.0497L17.75 30.0496Z" fill="#D6FF00"/>
</svg>
